%
M48
M72
T01C0.01969
T02C0.02362
T03C0.02756
T04C0.03150
T05C0.03937
T06C0.04000
T07C0.04400
T08C0.05118
T09C0.07874
T10C0.12598
%
T01
X16125Y27250
X16125Y30375
X16125Y33500
X19250Y33500
X19250Y30375
X19250Y27250
X22375Y27250
X22375Y30375
X22375Y33500
X18625Y59750
X8000Y66625
X23000Y93500
X39250Y87250
X56750Y87250
X39875Y141625
X24875Y139750
X10500Y162250
X22375Y208500
X22375Y211625
X22375Y214750
X19250Y214750
X16125Y214750
X16125Y211625
X16125Y208500
X19250Y208500
X19250Y211625
X37375Y203500
X44250Y197875
X44250Y193500
X48625Y203500
X52375Y185375
X43000Y181000
X39875Y177875
X36750Y174750
X71125Y189125
X74875Y191937
X71125Y194750
X74875Y198500
X74875Y203500
X85500Y201312
X92375Y199750
X101125Y202250
X101125Y205375
X104250Y205375
X104250Y202250
X107375Y202250
X107375Y205375
X128000Y174750
X132375Y174750
X136750Y174750
X141125Y174750
X146750Y174750
X156750Y178500
X134875Y202250
X131750Y202250
X128625Y202250
X128625Y205375
X131750Y205375
X134875Y205375
X156125Y208500
X156125Y211625
X156125Y214750
X159250Y214750
X159250Y211625
X159250Y208500
X162375Y208500
X162375Y211625
X162375Y214750
X120500Y172875
X115500Y172875
X106750Y174750
X102375Y174750
X98000Y174750
X93625Y174750
X83000Y182562
X95500Y132250
X130500Y159750
X132375Y139750
X153000Y136000
X168000Y161625
X170500Y126000
X170500Y104750
X156750Y89750
X153000Y96000
X143000Y64750
X129250Y64750
X119250Y73500
X109250Y64750
X99250Y64750
X89250Y64750
X79250Y64750
X69250Y64750
X59250Y64750
X49250Y64750
X39250Y64750
X7375Y108500
X7375Y126625
X139250Y96000
X169875Y61625
X156125Y33500
X156125Y30375
X156125Y27250
X159250Y27250
X159250Y30375
X159250Y33500
X162375Y33500
X162375Y30375
X162375Y27250
T02
X144250Y44750
X165500Y104750
X165500Y126000
X155500Y168500
X118000Y161000
X108000Y161000
X74875Y178500
X11750Y59750
X11750Y104750
X11750Y126000
X123000Y128500
X123000Y123500
T03
X19250Y46000
X14250Y46000
X9250Y46000
X24250Y46000
X29250Y46000
X34250Y46000
T04
X168000Y82250
X168000Y148500
X146750Y191000
X10500Y82250
X10500Y148500
T05
X66750Y102220
T06
X134250Y46000
X134250Y56000
X124250Y56000
X124250Y46000
X114250Y46000
X114250Y56000
X104250Y56000
X104250Y46000
X94250Y46000
X94250Y56000
X84250Y56000
X84250Y46000
X74250Y46000
X74250Y56000
X64250Y56000
X64250Y46000
X54250Y46000
X54250Y56000
X44250Y56000
X44250Y46000
T07
X29016Y100883
X29016Y110883
X29016Y120883
X29016Y130883
T08
X66750Y131748
T09
X148703Y78070
X148703Y152875
X29797Y78070
X29797Y152875
T10
X14250Y14750
X19250Y191000
X14250Y226000
X159250Y191000
X164250Y226000
X159250Y51000
X164250Y14750
M30
