G75*
%MOIN*%
%OFA0B0*%
%FSLAX25Y25*%
%IPPOS*%
%LPD*%
%AMOC8*
5,1,8,0,0,1.08239X$1,22.5*
%
%ADD10C,0.00000*%
%ADD11R,0.10000X0.05300*%
%ADD12C,0.01142*%
%ADD13C,0.01250*%
%ADD14C,0.01000*%
%ADD15R,0.11811X0.04921*%
%ADD16R,0.01600X0.01600*%
%ADD17R,0.01063X0.01772*%
%ADD18R,0.01772X0.01063*%
%ADD19R,0.01378X0.01969*%
%ADD20R,0.04724X0.02165*%
%ADD21R,0.02165X0.01181*%
%ADD22R,0.02165X0.00984*%
D10*
X0003000Y0001000D02*
X0175500Y0001000D01*
X0175500Y0026000D01*
X0164250Y0026000D01*
X0164250Y0034750D01*
X0171750Y0034750D01*
X0171870Y0034752D01*
X0171990Y0034758D01*
X0172110Y0034767D01*
X0172230Y0034781D01*
X0172348Y0034798D01*
X0172467Y0034819D01*
X0172584Y0034844D01*
X0172701Y0034873D01*
X0172817Y0034905D01*
X0172932Y0034941D01*
X0173045Y0034981D01*
X0173157Y0035024D01*
X0173268Y0035071D01*
X0173377Y0035121D01*
X0173485Y0035175D01*
X0173590Y0035233D01*
X0173694Y0035293D01*
X0173796Y0035357D01*
X0173895Y0035424D01*
X0173993Y0035495D01*
X0174088Y0035568D01*
X0174181Y0035645D01*
X0174271Y0035724D01*
X0174359Y0035806D01*
X0174444Y0035891D01*
X0174526Y0035979D01*
X0174605Y0036069D01*
X0174682Y0036162D01*
X0174755Y0036257D01*
X0174826Y0036355D01*
X0174893Y0036454D01*
X0174957Y0036556D01*
X0175017Y0036660D01*
X0175075Y0036765D01*
X0175129Y0036873D01*
X0175179Y0036982D01*
X0175226Y0037093D01*
X0175269Y0037205D01*
X0175309Y0037318D01*
X0175345Y0037433D01*
X0175377Y0037549D01*
X0175406Y0037666D01*
X0175431Y0037783D01*
X0175452Y0037902D01*
X0175469Y0038020D01*
X0175483Y0038140D01*
X0175492Y0038260D01*
X0175498Y0038380D01*
X0175500Y0038500D01*
X0175500Y0203500D01*
X0175498Y0203620D01*
X0175492Y0203740D01*
X0175483Y0203860D01*
X0175469Y0203980D01*
X0175452Y0204098D01*
X0175431Y0204217D01*
X0175406Y0204334D01*
X0175377Y0204451D01*
X0175345Y0204567D01*
X0175309Y0204682D01*
X0175269Y0204795D01*
X0175226Y0204907D01*
X0175179Y0205018D01*
X0175129Y0205127D01*
X0175075Y0205235D01*
X0175017Y0205340D01*
X0174957Y0205444D01*
X0174893Y0205546D01*
X0174826Y0205645D01*
X0174755Y0205743D01*
X0174682Y0205838D01*
X0174605Y0205931D01*
X0174526Y0206021D01*
X0174444Y0206109D01*
X0174359Y0206194D01*
X0174271Y0206276D01*
X0174181Y0206355D01*
X0174088Y0206432D01*
X0173993Y0206505D01*
X0173895Y0206576D01*
X0173796Y0206643D01*
X0173694Y0206707D01*
X0173590Y0206767D01*
X0173485Y0206825D01*
X0173377Y0206879D01*
X0173268Y0206929D01*
X0173157Y0206976D01*
X0173045Y0207019D01*
X0172932Y0207059D01*
X0172817Y0207095D01*
X0172701Y0207127D01*
X0172584Y0207156D01*
X0172467Y0207181D01*
X0172348Y0207202D01*
X0172230Y0207219D01*
X0172110Y0207233D01*
X0171990Y0207242D01*
X0171870Y0207248D01*
X0171750Y0207250D01*
X0164250Y0207250D01*
X0164250Y0216000D01*
X0175500Y0216000D01*
X0175500Y0241000D01*
X0003000Y0241000D01*
X0003000Y0216000D01*
X0014250Y0216000D01*
X0014250Y0207250D01*
X0006750Y0207250D01*
X0006630Y0207248D01*
X0006510Y0207242D01*
X0006390Y0207233D01*
X0006270Y0207219D01*
X0006152Y0207202D01*
X0006033Y0207181D01*
X0005916Y0207156D01*
X0005799Y0207127D01*
X0005683Y0207095D01*
X0005568Y0207059D01*
X0005455Y0207019D01*
X0005343Y0206976D01*
X0005232Y0206929D01*
X0005123Y0206879D01*
X0005015Y0206825D01*
X0004910Y0206767D01*
X0004806Y0206707D01*
X0004704Y0206643D01*
X0004605Y0206576D01*
X0004507Y0206505D01*
X0004412Y0206432D01*
X0004319Y0206355D01*
X0004229Y0206276D01*
X0004141Y0206194D01*
X0004056Y0206109D01*
X0003974Y0206021D01*
X0003895Y0205931D01*
X0003818Y0205838D01*
X0003745Y0205743D01*
X0003674Y0205645D01*
X0003607Y0205546D01*
X0003543Y0205444D01*
X0003483Y0205340D01*
X0003425Y0205235D01*
X0003371Y0205127D01*
X0003321Y0205018D01*
X0003274Y0204907D01*
X0003231Y0204795D01*
X0003191Y0204682D01*
X0003155Y0204567D01*
X0003123Y0204451D01*
X0003094Y0204334D01*
X0003069Y0204217D01*
X0003048Y0204098D01*
X0003031Y0203980D01*
X0003017Y0203860D01*
X0003008Y0203740D01*
X0003002Y0203620D01*
X0003000Y0203500D01*
X0003000Y0038500D01*
X0003002Y0038380D01*
X0003008Y0038260D01*
X0003017Y0038140D01*
X0003031Y0038020D01*
X0003048Y0037902D01*
X0003069Y0037783D01*
X0003094Y0037666D01*
X0003123Y0037549D01*
X0003155Y0037433D01*
X0003191Y0037318D01*
X0003231Y0037205D01*
X0003274Y0037093D01*
X0003321Y0036982D01*
X0003371Y0036873D01*
X0003425Y0036765D01*
X0003483Y0036660D01*
X0003543Y0036556D01*
X0003607Y0036454D01*
X0003674Y0036355D01*
X0003745Y0036257D01*
X0003818Y0036162D01*
X0003895Y0036069D01*
X0003974Y0035979D01*
X0004056Y0035891D01*
X0004141Y0035806D01*
X0004229Y0035724D01*
X0004319Y0035645D01*
X0004412Y0035568D01*
X0004507Y0035495D01*
X0004605Y0035424D01*
X0004704Y0035357D01*
X0004806Y0035293D01*
X0004910Y0035233D01*
X0005015Y0035175D01*
X0005123Y0035121D01*
X0005232Y0035071D01*
X0005343Y0035024D01*
X0005455Y0034981D01*
X0005568Y0034941D01*
X0005683Y0034905D01*
X0005799Y0034873D01*
X0005916Y0034844D01*
X0006033Y0034819D01*
X0006152Y0034798D01*
X0006270Y0034781D01*
X0006390Y0034767D01*
X0006510Y0034758D01*
X0006630Y0034752D01*
X0006750Y0034750D01*
X0014250Y0034750D01*
X0014250Y0026000D01*
X0003000Y0026000D01*
X0003000Y0001000D01*
X0007951Y0014750D02*
X0007953Y0014908D01*
X0007959Y0015066D01*
X0007969Y0015224D01*
X0007983Y0015382D01*
X0008001Y0015539D01*
X0008022Y0015696D01*
X0008048Y0015852D01*
X0008078Y0016008D01*
X0008111Y0016163D01*
X0008149Y0016316D01*
X0008190Y0016469D01*
X0008235Y0016621D01*
X0008284Y0016772D01*
X0008337Y0016921D01*
X0008393Y0017069D01*
X0008453Y0017215D01*
X0008517Y0017360D01*
X0008585Y0017503D01*
X0008656Y0017645D01*
X0008730Y0017785D01*
X0008808Y0017922D01*
X0008890Y0018058D01*
X0008974Y0018192D01*
X0009063Y0018323D01*
X0009154Y0018452D01*
X0009249Y0018579D01*
X0009346Y0018704D01*
X0009447Y0018826D01*
X0009551Y0018945D01*
X0009658Y0019062D01*
X0009768Y0019176D01*
X0009881Y0019287D01*
X0009996Y0019396D01*
X0010114Y0019501D01*
X0010235Y0019603D01*
X0010358Y0019703D01*
X0010484Y0019799D01*
X0010612Y0019892D01*
X0010742Y0019982D01*
X0010875Y0020068D01*
X0011010Y0020152D01*
X0011146Y0020231D01*
X0011285Y0020308D01*
X0011426Y0020380D01*
X0011568Y0020450D01*
X0011712Y0020515D01*
X0011858Y0020577D01*
X0012005Y0020635D01*
X0012154Y0020690D01*
X0012304Y0020741D01*
X0012455Y0020788D01*
X0012607Y0020831D01*
X0012760Y0020870D01*
X0012915Y0020906D01*
X0013070Y0020937D01*
X0013226Y0020965D01*
X0013382Y0020989D01*
X0013539Y0021009D01*
X0013697Y0021025D01*
X0013854Y0021037D01*
X0014013Y0021045D01*
X0014171Y0021049D01*
X0014329Y0021049D01*
X0014487Y0021045D01*
X0014646Y0021037D01*
X0014803Y0021025D01*
X0014961Y0021009D01*
X0015118Y0020989D01*
X0015274Y0020965D01*
X0015430Y0020937D01*
X0015585Y0020906D01*
X0015740Y0020870D01*
X0015893Y0020831D01*
X0016045Y0020788D01*
X0016196Y0020741D01*
X0016346Y0020690D01*
X0016495Y0020635D01*
X0016642Y0020577D01*
X0016788Y0020515D01*
X0016932Y0020450D01*
X0017074Y0020380D01*
X0017215Y0020308D01*
X0017354Y0020231D01*
X0017490Y0020152D01*
X0017625Y0020068D01*
X0017758Y0019982D01*
X0017888Y0019892D01*
X0018016Y0019799D01*
X0018142Y0019703D01*
X0018265Y0019603D01*
X0018386Y0019501D01*
X0018504Y0019396D01*
X0018619Y0019287D01*
X0018732Y0019176D01*
X0018842Y0019062D01*
X0018949Y0018945D01*
X0019053Y0018826D01*
X0019154Y0018704D01*
X0019251Y0018579D01*
X0019346Y0018452D01*
X0019437Y0018323D01*
X0019526Y0018192D01*
X0019610Y0018058D01*
X0019692Y0017922D01*
X0019770Y0017785D01*
X0019844Y0017645D01*
X0019915Y0017503D01*
X0019983Y0017360D01*
X0020047Y0017215D01*
X0020107Y0017069D01*
X0020163Y0016921D01*
X0020216Y0016772D01*
X0020265Y0016621D01*
X0020310Y0016469D01*
X0020351Y0016316D01*
X0020389Y0016163D01*
X0020422Y0016008D01*
X0020452Y0015852D01*
X0020478Y0015696D01*
X0020499Y0015539D01*
X0020517Y0015382D01*
X0020531Y0015224D01*
X0020541Y0015066D01*
X0020547Y0014908D01*
X0020549Y0014750D01*
X0020547Y0014592D01*
X0020541Y0014434D01*
X0020531Y0014276D01*
X0020517Y0014118D01*
X0020499Y0013961D01*
X0020478Y0013804D01*
X0020452Y0013648D01*
X0020422Y0013492D01*
X0020389Y0013337D01*
X0020351Y0013184D01*
X0020310Y0013031D01*
X0020265Y0012879D01*
X0020216Y0012728D01*
X0020163Y0012579D01*
X0020107Y0012431D01*
X0020047Y0012285D01*
X0019983Y0012140D01*
X0019915Y0011997D01*
X0019844Y0011855D01*
X0019770Y0011715D01*
X0019692Y0011578D01*
X0019610Y0011442D01*
X0019526Y0011308D01*
X0019437Y0011177D01*
X0019346Y0011048D01*
X0019251Y0010921D01*
X0019154Y0010796D01*
X0019053Y0010674D01*
X0018949Y0010555D01*
X0018842Y0010438D01*
X0018732Y0010324D01*
X0018619Y0010213D01*
X0018504Y0010104D01*
X0018386Y0009999D01*
X0018265Y0009897D01*
X0018142Y0009797D01*
X0018016Y0009701D01*
X0017888Y0009608D01*
X0017758Y0009518D01*
X0017625Y0009432D01*
X0017490Y0009348D01*
X0017354Y0009269D01*
X0017215Y0009192D01*
X0017074Y0009120D01*
X0016932Y0009050D01*
X0016788Y0008985D01*
X0016642Y0008923D01*
X0016495Y0008865D01*
X0016346Y0008810D01*
X0016196Y0008759D01*
X0016045Y0008712D01*
X0015893Y0008669D01*
X0015740Y0008630D01*
X0015585Y0008594D01*
X0015430Y0008563D01*
X0015274Y0008535D01*
X0015118Y0008511D01*
X0014961Y0008491D01*
X0014803Y0008475D01*
X0014646Y0008463D01*
X0014487Y0008455D01*
X0014329Y0008451D01*
X0014171Y0008451D01*
X0014013Y0008455D01*
X0013854Y0008463D01*
X0013697Y0008475D01*
X0013539Y0008491D01*
X0013382Y0008511D01*
X0013226Y0008535D01*
X0013070Y0008563D01*
X0012915Y0008594D01*
X0012760Y0008630D01*
X0012607Y0008669D01*
X0012455Y0008712D01*
X0012304Y0008759D01*
X0012154Y0008810D01*
X0012005Y0008865D01*
X0011858Y0008923D01*
X0011712Y0008985D01*
X0011568Y0009050D01*
X0011426Y0009120D01*
X0011285Y0009192D01*
X0011146Y0009269D01*
X0011010Y0009348D01*
X0010875Y0009432D01*
X0010742Y0009518D01*
X0010612Y0009608D01*
X0010484Y0009701D01*
X0010358Y0009797D01*
X0010235Y0009897D01*
X0010114Y0009999D01*
X0009996Y0010104D01*
X0009881Y0010213D01*
X0009768Y0010324D01*
X0009658Y0010438D01*
X0009551Y0010555D01*
X0009447Y0010674D01*
X0009346Y0010796D01*
X0009249Y0010921D01*
X0009154Y0011048D01*
X0009063Y0011177D01*
X0008974Y0011308D01*
X0008890Y0011442D01*
X0008808Y0011578D01*
X0008730Y0011715D01*
X0008656Y0011855D01*
X0008585Y0011997D01*
X0008517Y0012140D01*
X0008453Y0012285D01*
X0008393Y0012431D01*
X0008337Y0012579D01*
X0008284Y0012728D01*
X0008235Y0012879D01*
X0008190Y0013031D01*
X0008149Y0013184D01*
X0008111Y0013337D01*
X0008078Y0013492D01*
X0008048Y0013648D01*
X0008022Y0013804D01*
X0008001Y0013961D01*
X0007983Y0014118D01*
X0007969Y0014276D01*
X0007959Y0014434D01*
X0007953Y0014592D01*
X0007951Y0014750D01*
X0015141Y0027250D02*
X0015143Y0027312D01*
X0015149Y0027375D01*
X0015159Y0027436D01*
X0015173Y0027497D01*
X0015190Y0027557D01*
X0015211Y0027616D01*
X0015237Y0027673D01*
X0015265Y0027728D01*
X0015297Y0027782D01*
X0015333Y0027833D01*
X0015371Y0027883D01*
X0015413Y0027929D01*
X0015457Y0027973D01*
X0015505Y0028014D01*
X0015554Y0028052D01*
X0015606Y0028086D01*
X0015660Y0028117D01*
X0015716Y0028145D01*
X0015774Y0028169D01*
X0015833Y0028190D01*
X0015893Y0028206D01*
X0015954Y0028219D01*
X0016016Y0028228D01*
X0016078Y0028233D01*
X0016141Y0028234D01*
X0016203Y0028231D01*
X0016265Y0028224D01*
X0016327Y0028213D01*
X0016387Y0028198D01*
X0016447Y0028180D01*
X0016505Y0028158D01*
X0016562Y0028132D01*
X0016617Y0028102D01*
X0016670Y0028069D01*
X0016721Y0028033D01*
X0016769Y0027994D01*
X0016815Y0027951D01*
X0016858Y0027906D01*
X0016898Y0027858D01*
X0016935Y0027808D01*
X0016969Y0027755D01*
X0017000Y0027701D01*
X0017026Y0027645D01*
X0017050Y0027587D01*
X0017069Y0027527D01*
X0017085Y0027467D01*
X0017097Y0027405D01*
X0017105Y0027344D01*
X0017109Y0027281D01*
X0017109Y0027219D01*
X0017105Y0027156D01*
X0017097Y0027095D01*
X0017085Y0027033D01*
X0017069Y0026973D01*
X0017050Y0026913D01*
X0017026Y0026855D01*
X0017000Y0026799D01*
X0016969Y0026745D01*
X0016935Y0026692D01*
X0016898Y0026642D01*
X0016858Y0026594D01*
X0016815Y0026549D01*
X0016769Y0026506D01*
X0016721Y0026467D01*
X0016670Y0026431D01*
X0016617Y0026398D01*
X0016562Y0026368D01*
X0016505Y0026342D01*
X0016447Y0026320D01*
X0016387Y0026302D01*
X0016327Y0026287D01*
X0016265Y0026276D01*
X0016203Y0026269D01*
X0016141Y0026266D01*
X0016078Y0026267D01*
X0016016Y0026272D01*
X0015954Y0026281D01*
X0015893Y0026294D01*
X0015833Y0026310D01*
X0015774Y0026331D01*
X0015716Y0026355D01*
X0015660Y0026383D01*
X0015606Y0026414D01*
X0015554Y0026448D01*
X0015505Y0026486D01*
X0015457Y0026527D01*
X0015413Y0026571D01*
X0015371Y0026617D01*
X0015333Y0026667D01*
X0015297Y0026718D01*
X0015265Y0026772D01*
X0015237Y0026827D01*
X0015211Y0026884D01*
X0015190Y0026943D01*
X0015173Y0027003D01*
X0015159Y0027064D01*
X0015149Y0027125D01*
X0015143Y0027188D01*
X0015141Y0027250D01*
X0015141Y0030375D02*
X0015143Y0030437D01*
X0015149Y0030500D01*
X0015159Y0030561D01*
X0015173Y0030622D01*
X0015190Y0030682D01*
X0015211Y0030741D01*
X0015237Y0030798D01*
X0015265Y0030853D01*
X0015297Y0030907D01*
X0015333Y0030958D01*
X0015371Y0031008D01*
X0015413Y0031054D01*
X0015457Y0031098D01*
X0015505Y0031139D01*
X0015554Y0031177D01*
X0015606Y0031211D01*
X0015660Y0031242D01*
X0015716Y0031270D01*
X0015774Y0031294D01*
X0015833Y0031315D01*
X0015893Y0031331D01*
X0015954Y0031344D01*
X0016016Y0031353D01*
X0016078Y0031358D01*
X0016141Y0031359D01*
X0016203Y0031356D01*
X0016265Y0031349D01*
X0016327Y0031338D01*
X0016387Y0031323D01*
X0016447Y0031305D01*
X0016505Y0031283D01*
X0016562Y0031257D01*
X0016617Y0031227D01*
X0016670Y0031194D01*
X0016721Y0031158D01*
X0016769Y0031119D01*
X0016815Y0031076D01*
X0016858Y0031031D01*
X0016898Y0030983D01*
X0016935Y0030933D01*
X0016969Y0030880D01*
X0017000Y0030826D01*
X0017026Y0030770D01*
X0017050Y0030712D01*
X0017069Y0030652D01*
X0017085Y0030592D01*
X0017097Y0030530D01*
X0017105Y0030469D01*
X0017109Y0030406D01*
X0017109Y0030344D01*
X0017105Y0030281D01*
X0017097Y0030220D01*
X0017085Y0030158D01*
X0017069Y0030098D01*
X0017050Y0030038D01*
X0017026Y0029980D01*
X0017000Y0029924D01*
X0016969Y0029870D01*
X0016935Y0029817D01*
X0016898Y0029767D01*
X0016858Y0029719D01*
X0016815Y0029674D01*
X0016769Y0029631D01*
X0016721Y0029592D01*
X0016670Y0029556D01*
X0016617Y0029523D01*
X0016562Y0029493D01*
X0016505Y0029467D01*
X0016447Y0029445D01*
X0016387Y0029427D01*
X0016327Y0029412D01*
X0016265Y0029401D01*
X0016203Y0029394D01*
X0016141Y0029391D01*
X0016078Y0029392D01*
X0016016Y0029397D01*
X0015954Y0029406D01*
X0015893Y0029419D01*
X0015833Y0029435D01*
X0015774Y0029456D01*
X0015716Y0029480D01*
X0015660Y0029508D01*
X0015606Y0029539D01*
X0015554Y0029573D01*
X0015505Y0029611D01*
X0015457Y0029652D01*
X0015413Y0029696D01*
X0015371Y0029742D01*
X0015333Y0029792D01*
X0015297Y0029843D01*
X0015265Y0029897D01*
X0015237Y0029952D01*
X0015211Y0030009D01*
X0015190Y0030068D01*
X0015173Y0030128D01*
X0015159Y0030189D01*
X0015149Y0030250D01*
X0015143Y0030313D01*
X0015141Y0030375D01*
X0015141Y0033500D02*
X0015143Y0033562D01*
X0015149Y0033625D01*
X0015159Y0033686D01*
X0015173Y0033747D01*
X0015190Y0033807D01*
X0015211Y0033866D01*
X0015237Y0033923D01*
X0015265Y0033978D01*
X0015297Y0034032D01*
X0015333Y0034083D01*
X0015371Y0034133D01*
X0015413Y0034179D01*
X0015457Y0034223D01*
X0015505Y0034264D01*
X0015554Y0034302D01*
X0015606Y0034336D01*
X0015660Y0034367D01*
X0015716Y0034395D01*
X0015774Y0034419D01*
X0015833Y0034440D01*
X0015893Y0034456D01*
X0015954Y0034469D01*
X0016016Y0034478D01*
X0016078Y0034483D01*
X0016141Y0034484D01*
X0016203Y0034481D01*
X0016265Y0034474D01*
X0016327Y0034463D01*
X0016387Y0034448D01*
X0016447Y0034430D01*
X0016505Y0034408D01*
X0016562Y0034382D01*
X0016617Y0034352D01*
X0016670Y0034319D01*
X0016721Y0034283D01*
X0016769Y0034244D01*
X0016815Y0034201D01*
X0016858Y0034156D01*
X0016898Y0034108D01*
X0016935Y0034058D01*
X0016969Y0034005D01*
X0017000Y0033951D01*
X0017026Y0033895D01*
X0017050Y0033837D01*
X0017069Y0033777D01*
X0017085Y0033717D01*
X0017097Y0033655D01*
X0017105Y0033594D01*
X0017109Y0033531D01*
X0017109Y0033469D01*
X0017105Y0033406D01*
X0017097Y0033345D01*
X0017085Y0033283D01*
X0017069Y0033223D01*
X0017050Y0033163D01*
X0017026Y0033105D01*
X0017000Y0033049D01*
X0016969Y0032995D01*
X0016935Y0032942D01*
X0016898Y0032892D01*
X0016858Y0032844D01*
X0016815Y0032799D01*
X0016769Y0032756D01*
X0016721Y0032717D01*
X0016670Y0032681D01*
X0016617Y0032648D01*
X0016562Y0032618D01*
X0016505Y0032592D01*
X0016447Y0032570D01*
X0016387Y0032552D01*
X0016327Y0032537D01*
X0016265Y0032526D01*
X0016203Y0032519D01*
X0016141Y0032516D01*
X0016078Y0032517D01*
X0016016Y0032522D01*
X0015954Y0032531D01*
X0015893Y0032544D01*
X0015833Y0032560D01*
X0015774Y0032581D01*
X0015716Y0032605D01*
X0015660Y0032633D01*
X0015606Y0032664D01*
X0015554Y0032698D01*
X0015505Y0032736D01*
X0015457Y0032777D01*
X0015413Y0032821D01*
X0015371Y0032867D01*
X0015333Y0032917D01*
X0015297Y0032968D01*
X0015265Y0033022D01*
X0015237Y0033077D01*
X0015211Y0033134D01*
X0015190Y0033193D01*
X0015173Y0033253D01*
X0015159Y0033314D01*
X0015149Y0033375D01*
X0015143Y0033438D01*
X0015141Y0033500D01*
X0018266Y0033500D02*
X0018268Y0033562D01*
X0018274Y0033625D01*
X0018284Y0033686D01*
X0018298Y0033747D01*
X0018315Y0033807D01*
X0018336Y0033866D01*
X0018362Y0033923D01*
X0018390Y0033978D01*
X0018422Y0034032D01*
X0018458Y0034083D01*
X0018496Y0034133D01*
X0018538Y0034179D01*
X0018582Y0034223D01*
X0018630Y0034264D01*
X0018679Y0034302D01*
X0018731Y0034336D01*
X0018785Y0034367D01*
X0018841Y0034395D01*
X0018899Y0034419D01*
X0018958Y0034440D01*
X0019018Y0034456D01*
X0019079Y0034469D01*
X0019141Y0034478D01*
X0019203Y0034483D01*
X0019266Y0034484D01*
X0019328Y0034481D01*
X0019390Y0034474D01*
X0019452Y0034463D01*
X0019512Y0034448D01*
X0019572Y0034430D01*
X0019630Y0034408D01*
X0019687Y0034382D01*
X0019742Y0034352D01*
X0019795Y0034319D01*
X0019846Y0034283D01*
X0019894Y0034244D01*
X0019940Y0034201D01*
X0019983Y0034156D01*
X0020023Y0034108D01*
X0020060Y0034058D01*
X0020094Y0034005D01*
X0020125Y0033951D01*
X0020151Y0033895D01*
X0020175Y0033837D01*
X0020194Y0033777D01*
X0020210Y0033717D01*
X0020222Y0033655D01*
X0020230Y0033594D01*
X0020234Y0033531D01*
X0020234Y0033469D01*
X0020230Y0033406D01*
X0020222Y0033345D01*
X0020210Y0033283D01*
X0020194Y0033223D01*
X0020175Y0033163D01*
X0020151Y0033105D01*
X0020125Y0033049D01*
X0020094Y0032995D01*
X0020060Y0032942D01*
X0020023Y0032892D01*
X0019983Y0032844D01*
X0019940Y0032799D01*
X0019894Y0032756D01*
X0019846Y0032717D01*
X0019795Y0032681D01*
X0019742Y0032648D01*
X0019687Y0032618D01*
X0019630Y0032592D01*
X0019572Y0032570D01*
X0019512Y0032552D01*
X0019452Y0032537D01*
X0019390Y0032526D01*
X0019328Y0032519D01*
X0019266Y0032516D01*
X0019203Y0032517D01*
X0019141Y0032522D01*
X0019079Y0032531D01*
X0019018Y0032544D01*
X0018958Y0032560D01*
X0018899Y0032581D01*
X0018841Y0032605D01*
X0018785Y0032633D01*
X0018731Y0032664D01*
X0018679Y0032698D01*
X0018630Y0032736D01*
X0018582Y0032777D01*
X0018538Y0032821D01*
X0018496Y0032867D01*
X0018458Y0032917D01*
X0018422Y0032968D01*
X0018390Y0033022D01*
X0018362Y0033077D01*
X0018336Y0033134D01*
X0018315Y0033193D01*
X0018298Y0033253D01*
X0018284Y0033314D01*
X0018274Y0033375D01*
X0018268Y0033438D01*
X0018266Y0033500D01*
X0018266Y0030375D02*
X0018268Y0030437D01*
X0018274Y0030500D01*
X0018284Y0030561D01*
X0018298Y0030622D01*
X0018315Y0030682D01*
X0018336Y0030741D01*
X0018362Y0030798D01*
X0018390Y0030853D01*
X0018422Y0030907D01*
X0018458Y0030958D01*
X0018496Y0031008D01*
X0018538Y0031054D01*
X0018582Y0031098D01*
X0018630Y0031139D01*
X0018679Y0031177D01*
X0018731Y0031211D01*
X0018785Y0031242D01*
X0018841Y0031270D01*
X0018899Y0031294D01*
X0018958Y0031315D01*
X0019018Y0031331D01*
X0019079Y0031344D01*
X0019141Y0031353D01*
X0019203Y0031358D01*
X0019266Y0031359D01*
X0019328Y0031356D01*
X0019390Y0031349D01*
X0019452Y0031338D01*
X0019512Y0031323D01*
X0019572Y0031305D01*
X0019630Y0031283D01*
X0019687Y0031257D01*
X0019742Y0031227D01*
X0019795Y0031194D01*
X0019846Y0031158D01*
X0019894Y0031119D01*
X0019940Y0031076D01*
X0019983Y0031031D01*
X0020023Y0030983D01*
X0020060Y0030933D01*
X0020094Y0030880D01*
X0020125Y0030826D01*
X0020151Y0030770D01*
X0020175Y0030712D01*
X0020194Y0030652D01*
X0020210Y0030592D01*
X0020222Y0030530D01*
X0020230Y0030469D01*
X0020234Y0030406D01*
X0020234Y0030344D01*
X0020230Y0030281D01*
X0020222Y0030220D01*
X0020210Y0030158D01*
X0020194Y0030098D01*
X0020175Y0030038D01*
X0020151Y0029980D01*
X0020125Y0029924D01*
X0020094Y0029870D01*
X0020060Y0029817D01*
X0020023Y0029767D01*
X0019983Y0029719D01*
X0019940Y0029674D01*
X0019894Y0029631D01*
X0019846Y0029592D01*
X0019795Y0029556D01*
X0019742Y0029523D01*
X0019687Y0029493D01*
X0019630Y0029467D01*
X0019572Y0029445D01*
X0019512Y0029427D01*
X0019452Y0029412D01*
X0019390Y0029401D01*
X0019328Y0029394D01*
X0019266Y0029391D01*
X0019203Y0029392D01*
X0019141Y0029397D01*
X0019079Y0029406D01*
X0019018Y0029419D01*
X0018958Y0029435D01*
X0018899Y0029456D01*
X0018841Y0029480D01*
X0018785Y0029508D01*
X0018731Y0029539D01*
X0018679Y0029573D01*
X0018630Y0029611D01*
X0018582Y0029652D01*
X0018538Y0029696D01*
X0018496Y0029742D01*
X0018458Y0029792D01*
X0018422Y0029843D01*
X0018390Y0029897D01*
X0018362Y0029952D01*
X0018336Y0030009D01*
X0018315Y0030068D01*
X0018298Y0030128D01*
X0018284Y0030189D01*
X0018274Y0030250D01*
X0018268Y0030313D01*
X0018266Y0030375D01*
X0018266Y0027250D02*
X0018268Y0027312D01*
X0018274Y0027375D01*
X0018284Y0027436D01*
X0018298Y0027497D01*
X0018315Y0027557D01*
X0018336Y0027616D01*
X0018362Y0027673D01*
X0018390Y0027728D01*
X0018422Y0027782D01*
X0018458Y0027833D01*
X0018496Y0027883D01*
X0018538Y0027929D01*
X0018582Y0027973D01*
X0018630Y0028014D01*
X0018679Y0028052D01*
X0018731Y0028086D01*
X0018785Y0028117D01*
X0018841Y0028145D01*
X0018899Y0028169D01*
X0018958Y0028190D01*
X0019018Y0028206D01*
X0019079Y0028219D01*
X0019141Y0028228D01*
X0019203Y0028233D01*
X0019266Y0028234D01*
X0019328Y0028231D01*
X0019390Y0028224D01*
X0019452Y0028213D01*
X0019512Y0028198D01*
X0019572Y0028180D01*
X0019630Y0028158D01*
X0019687Y0028132D01*
X0019742Y0028102D01*
X0019795Y0028069D01*
X0019846Y0028033D01*
X0019894Y0027994D01*
X0019940Y0027951D01*
X0019983Y0027906D01*
X0020023Y0027858D01*
X0020060Y0027808D01*
X0020094Y0027755D01*
X0020125Y0027701D01*
X0020151Y0027645D01*
X0020175Y0027587D01*
X0020194Y0027527D01*
X0020210Y0027467D01*
X0020222Y0027405D01*
X0020230Y0027344D01*
X0020234Y0027281D01*
X0020234Y0027219D01*
X0020230Y0027156D01*
X0020222Y0027095D01*
X0020210Y0027033D01*
X0020194Y0026973D01*
X0020175Y0026913D01*
X0020151Y0026855D01*
X0020125Y0026799D01*
X0020094Y0026745D01*
X0020060Y0026692D01*
X0020023Y0026642D01*
X0019983Y0026594D01*
X0019940Y0026549D01*
X0019894Y0026506D01*
X0019846Y0026467D01*
X0019795Y0026431D01*
X0019742Y0026398D01*
X0019687Y0026368D01*
X0019630Y0026342D01*
X0019572Y0026320D01*
X0019512Y0026302D01*
X0019452Y0026287D01*
X0019390Y0026276D01*
X0019328Y0026269D01*
X0019266Y0026266D01*
X0019203Y0026267D01*
X0019141Y0026272D01*
X0019079Y0026281D01*
X0019018Y0026294D01*
X0018958Y0026310D01*
X0018899Y0026331D01*
X0018841Y0026355D01*
X0018785Y0026383D01*
X0018731Y0026414D01*
X0018679Y0026448D01*
X0018630Y0026486D01*
X0018582Y0026527D01*
X0018538Y0026571D01*
X0018496Y0026617D01*
X0018458Y0026667D01*
X0018422Y0026718D01*
X0018390Y0026772D01*
X0018362Y0026827D01*
X0018336Y0026884D01*
X0018315Y0026943D01*
X0018298Y0027003D01*
X0018284Y0027064D01*
X0018274Y0027125D01*
X0018268Y0027188D01*
X0018266Y0027250D01*
X0021391Y0027250D02*
X0021393Y0027312D01*
X0021399Y0027375D01*
X0021409Y0027436D01*
X0021423Y0027497D01*
X0021440Y0027557D01*
X0021461Y0027616D01*
X0021487Y0027673D01*
X0021515Y0027728D01*
X0021547Y0027782D01*
X0021583Y0027833D01*
X0021621Y0027883D01*
X0021663Y0027929D01*
X0021707Y0027973D01*
X0021755Y0028014D01*
X0021804Y0028052D01*
X0021856Y0028086D01*
X0021910Y0028117D01*
X0021966Y0028145D01*
X0022024Y0028169D01*
X0022083Y0028190D01*
X0022143Y0028206D01*
X0022204Y0028219D01*
X0022266Y0028228D01*
X0022328Y0028233D01*
X0022391Y0028234D01*
X0022453Y0028231D01*
X0022515Y0028224D01*
X0022577Y0028213D01*
X0022637Y0028198D01*
X0022697Y0028180D01*
X0022755Y0028158D01*
X0022812Y0028132D01*
X0022867Y0028102D01*
X0022920Y0028069D01*
X0022971Y0028033D01*
X0023019Y0027994D01*
X0023065Y0027951D01*
X0023108Y0027906D01*
X0023148Y0027858D01*
X0023185Y0027808D01*
X0023219Y0027755D01*
X0023250Y0027701D01*
X0023276Y0027645D01*
X0023300Y0027587D01*
X0023319Y0027527D01*
X0023335Y0027467D01*
X0023347Y0027405D01*
X0023355Y0027344D01*
X0023359Y0027281D01*
X0023359Y0027219D01*
X0023355Y0027156D01*
X0023347Y0027095D01*
X0023335Y0027033D01*
X0023319Y0026973D01*
X0023300Y0026913D01*
X0023276Y0026855D01*
X0023250Y0026799D01*
X0023219Y0026745D01*
X0023185Y0026692D01*
X0023148Y0026642D01*
X0023108Y0026594D01*
X0023065Y0026549D01*
X0023019Y0026506D01*
X0022971Y0026467D01*
X0022920Y0026431D01*
X0022867Y0026398D01*
X0022812Y0026368D01*
X0022755Y0026342D01*
X0022697Y0026320D01*
X0022637Y0026302D01*
X0022577Y0026287D01*
X0022515Y0026276D01*
X0022453Y0026269D01*
X0022391Y0026266D01*
X0022328Y0026267D01*
X0022266Y0026272D01*
X0022204Y0026281D01*
X0022143Y0026294D01*
X0022083Y0026310D01*
X0022024Y0026331D01*
X0021966Y0026355D01*
X0021910Y0026383D01*
X0021856Y0026414D01*
X0021804Y0026448D01*
X0021755Y0026486D01*
X0021707Y0026527D01*
X0021663Y0026571D01*
X0021621Y0026617D01*
X0021583Y0026667D01*
X0021547Y0026718D01*
X0021515Y0026772D01*
X0021487Y0026827D01*
X0021461Y0026884D01*
X0021440Y0026943D01*
X0021423Y0027003D01*
X0021409Y0027064D01*
X0021399Y0027125D01*
X0021393Y0027188D01*
X0021391Y0027250D01*
X0024250Y0026000D02*
X0154250Y0026000D01*
X0154250Y0034750D01*
X0024250Y0034750D01*
X0024250Y0026000D01*
X0021391Y0030375D02*
X0021393Y0030437D01*
X0021399Y0030500D01*
X0021409Y0030561D01*
X0021423Y0030622D01*
X0021440Y0030682D01*
X0021461Y0030741D01*
X0021487Y0030798D01*
X0021515Y0030853D01*
X0021547Y0030907D01*
X0021583Y0030958D01*
X0021621Y0031008D01*
X0021663Y0031054D01*
X0021707Y0031098D01*
X0021755Y0031139D01*
X0021804Y0031177D01*
X0021856Y0031211D01*
X0021910Y0031242D01*
X0021966Y0031270D01*
X0022024Y0031294D01*
X0022083Y0031315D01*
X0022143Y0031331D01*
X0022204Y0031344D01*
X0022266Y0031353D01*
X0022328Y0031358D01*
X0022391Y0031359D01*
X0022453Y0031356D01*
X0022515Y0031349D01*
X0022577Y0031338D01*
X0022637Y0031323D01*
X0022697Y0031305D01*
X0022755Y0031283D01*
X0022812Y0031257D01*
X0022867Y0031227D01*
X0022920Y0031194D01*
X0022971Y0031158D01*
X0023019Y0031119D01*
X0023065Y0031076D01*
X0023108Y0031031D01*
X0023148Y0030983D01*
X0023185Y0030933D01*
X0023219Y0030880D01*
X0023250Y0030826D01*
X0023276Y0030770D01*
X0023300Y0030712D01*
X0023319Y0030652D01*
X0023335Y0030592D01*
X0023347Y0030530D01*
X0023355Y0030469D01*
X0023359Y0030406D01*
X0023359Y0030344D01*
X0023355Y0030281D01*
X0023347Y0030220D01*
X0023335Y0030158D01*
X0023319Y0030098D01*
X0023300Y0030038D01*
X0023276Y0029980D01*
X0023250Y0029924D01*
X0023219Y0029870D01*
X0023185Y0029817D01*
X0023148Y0029767D01*
X0023108Y0029719D01*
X0023065Y0029674D01*
X0023019Y0029631D01*
X0022971Y0029592D01*
X0022920Y0029556D01*
X0022867Y0029523D01*
X0022812Y0029493D01*
X0022755Y0029467D01*
X0022697Y0029445D01*
X0022637Y0029427D01*
X0022577Y0029412D01*
X0022515Y0029401D01*
X0022453Y0029394D01*
X0022391Y0029391D01*
X0022328Y0029392D01*
X0022266Y0029397D01*
X0022204Y0029406D01*
X0022143Y0029419D01*
X0022083Y0029435D01*
X0022024Y0029456D01*
X0021966Y0029480D01*
X0021910Y0029508D01*
X0021856Y0029539D01*
X0021804Y0029573D01*
X0021755Y0029611D01*
X0021707Y0029652D01*
X0021663Y0029696D01*
X0021621Y0029742D01*
X0021583Y0029792D01*
X0021547Y0029843D01*
X0021515Y0029897D01*
X0021487Y0029952D01*
X0021461Y0030009D01*
X0021440Y0030068D01*
X0021423Y0030128D01*
X0021409Y0030189D01*
X0021399Y0030250D01*
X0021393Y0030313D01*
X0021391Y0030375D01*
X0021391Y0033500D02*
X0021393Y0033562D01*
X0021399Y0033625D01*
X0021409Y0033686D01*
X0021423Y0033747D01*
X0021440Y0033807D01*
X0021461Y0033866D01*
X0021487Y0033923D01*
X0021515Y0033978D01*
X0021547Y0034032D01*
X0021583Y0034083D01*
X0021621Y0034133D01*
X0021663Y0034179D01*
X0021707Y0034223D01*
X0021755Y0034264D01*
X0021804Y0034302D01*
X0021856Y0034336D01*
X0021910Y0034367D01*
X0021966Y0034395D01*
X0022024Y0034419D01*
X0022083Y0034440D01*
X0022143Y0034456D01*
X0022204Y0034469D01*
X0022266Y0034478D01*
X0022328Y0034483D01*
X0022391Y0034484D01*
X0022453Y0034481D01*
X0022515Y0034474D01*
X0022577Y0034463D01*
X0022637Y0034448D01*
X0022697Y0034430D01*
X0022755Y0034408D01*
X0022812Y0034382D01*
X0022867Y0034352D01*
X0022920Y0034319D01*
X0022971Y0034283D01*
X0023019Y0034244D01*
X0023065Y0034201D01*
X0023108Y0034156D01*
X0023148Y0034108D01*
X0023185Y0034058D01*
X0023219Y0034005D01*
X0023250Y0033951D01*
X0023276Y0033895D01*
X0023300Y0033837D01*
X0023319Y0033777D01*
X0023335Y0033717D01*
X0023347Y0033655D01*
X0023355Y0033594D01*
X0023359Y0033531D01*
X0023359Y0033469D01*
X0023355Y0033406D01*
X0023347Y0033345D01*
X0023335Y0033283D01*
X0023319Y0033223D01*
X0023300Y0033163D01*
X0023276Y0033105D01*
X0023250Y0033049D01*
X0023219Y0032995D01*
X0023185Y0032942D01*
X0023148Y0032892D01*
X0023108Y0032844D01*
X0023065Y0032799D01*
X0023019Y0032756D01*
X0022971Y0032717D01*
X0022920Y0032681D01*
X0022867Y0032648D01*
X0022812Y0032618D01*
X0022755Y0032592D01*
X0022697Y0032570D01*
X0022637Y0032552D01*
X0022577Y0032537D01*
X0022515Y0032526D01*
X0022453Y0032519D01*
X0022391Y0032516D01*
X0022328Y0032517D01*
X0022266Y0032522D01*
X0022204Y0032531D01*
X0022143Y0032544D01*
X0022083Y0032560D01*
X0022024Y0032581D01*
X0021966Y0032605D01*
X0021910Y0032633D01*
X0021856Y0032664D01*
X0021804Y0032698D01*
X0021755Y0032736D01*
X0021707Y0032777D01*
X0021663Y0032821D01*
X0021621Y0032867D01*
X0021583Y0032917D01*
X0021547Y0032968D01*
X0021515Y0033022D01*
X0021487Y0033077D01*
X0021461Y0033134D01*
X0021440Y0033193D01*
X0021423Y0033253D01*
X0021409Y0033314D01*
X0021399Y0033375D01*
X0021393Y0033438D01*
X0021391Y0033500D01*
X0025860Y0078070D02*
X0025862Y0078195D01*
X0025868Y0078320D01*
X0025878Y0078444D01*
X0025892Y0078568D01*
X0025909Y0078692D01*
X0025931Y0078815D01*
X0025957Y0078937D01*
X0025986Y0079059D01*
X0026019Y0079179D01*
X0026057Y0079298D01*
X0026097Y0079417D01*
X0026142Y0079533D01*
X0026190Y0079648D01*
X0026242Y0079762D01*
X0026298Y0079874D01*
X0026357Y0079984D01*
X0026419Y0080092D01*
X0026485Y0080199D01*
X0026554Y0080303D01*
X0026627Y0080404D01*
X0026702Y0080504D01*
X0026781Y0080601D01*
X0026863Y0080695D01*
X0026948Y0080787D01*
X0027035Y0080876D01*
X0027126Y0080962D01*
X0027219Y0081045D01*
X0027315Y0081126D01*
X0027413Y0081203D01*
X0027513Y0081277D01*
X0027616Y0081348D01*
X0027721Y0081415D01*
X0027829Y0081480D01*
X0027938Y0081540D01*
X0028049Y0081598D01*
X0028162Y0081651D01*
X0028276Y0081701D01*
X0028392Y0081748D01*
X0028509Y0081790D01*
X0028628Y0081829D01*
X0028748Y0081865D01*
X0028869Y0081896D01*
X0028991Y0081924D01*
X0029113Y0081947D01*
X0029237Y0081967D01*
X0029361Y0081983D01*
X0029485Y0081995D01*
X0029610Y0082003D01*
X0029735Y0082007D01*
X0029859Y0082007D01*
X0029984Y0082003D01*
X0030109Y0081995D01*
X0030233Y0081983D01*
X0030357Y0081967D01*
X0030481Y0081947D01*
X0030603Y0081924D01*
X0030725Y0081896D01*
X0030846Y0081865D01*
X0030966Y0081829D01*
X0031085Y0081790D01*
X0031202Y0081748D01*
X0031318Y0081701D01*
X0031432Y0081651D01*
X0031545Y0081598D01*
X0031656Y0081540D01*
X0031766Y0081480D01*
X0031873Y0081415D01*
X0031978Y0081348D01*
X0032081Y0081277D01*
X0032181Y0081203D01*
X0032279Y0081126D01*
X0032375Y0081045D01*
X0032468Y0080962D01*
X0032559Y0080876D01*
X0032646Y0080787D01*
X0032731Y0080695D01*
X0032813Y0080601D01*
X0032892Y0080504D01*
X0032967Y0080404D01*
X0033040Y0080303D01*
X0033109Y0080199D01*
X0033175Y0080092D01*
X0033237Y0079984D01*
X0033296Y0079874D01*
X0033352Y0079762D01*
X0033404Y0079648D01*
X0033452Y0079533D01*
X0033497Y0079417D01*
X0033537Y0079298D01*
X0033575Y0079179D01*
X0033608Y0079059D01*
X0033637Y0078937D01*
X0033663Y0078815D01*
X0033685Y0078692D01*
X0033702Y0078568D01*
X0033716Y0078444D01*
X0033726Y0078320D01*
X0033732Y0078195D01*
X0033734Y0078070D01*
X0033732Y0077945D01*
X0033726Y0077820D01*
X0033716Y0077696D01*
X0033702Y0077572D01*
X0033685Y0077448D01*
X0033663Y0077325D01*
X0033637Y0077203D01*
X0033608Y0077081D01*
X0033575Y0076961D01*
X0033537Y0076842D01*
X0033497Y0076723D01*
X0033452Y0076607D01*
X0033404Y0076492D01*
X0033352Y0076378D01*
X0033296Y0076266D01*
X0033237Y0076156D01*
X0033175Y0076048D01*
X0033109Y0075941D01*
X0033040Y0075837D01*
X0032967Y0075736D01*
X0032892Y0075636D01*
X0032813Y0075539D01*
X0032731Y0075445D01*
X0032646Y0075353D01*
X0032559Y0075264D01*
X0032468Y0075178D01*
X0032375Y0075095D01*
X0032279Y0075014D01*
X0032181Y0074937D01*
X0032081Y0074863D01*
X0031978Y0074792D01*
X0031873Y0074725D01*
X0031765Y0074660D01*
X0031656Y0074600D01*
X0031545Y0074542D01*
X0031432Y0074489D01*
X0031318Y0074439D01*
X0031202Y0074392D01*
X0031085Y0074350D01*
X0030966Y0074311D01*
X0030846Y0074275D01*
X0030725Y0074244D01*
X0030603Y0074216D01*
X0030481Y0074193D01*
X0030357Y0074173D01*
X0030233Y0074157D01*
X0030109Y0074145D01*
X0029984Y0074137D01*
X0029859Y0074133D01*
X0029735Y0074133D01*
X0029610Y0074137D01*
X0029485Y0074145D01*
X0029361Y0074157D01*
X0029237Y0074173D01*
X0029113Y0074193D01*
X0028991Y0074216D01*
X0028869Y0074244D01*
X0028748Y0074275D01*
X0028628Y0074311D01*
X0028509Y0074350D01*
X0028392Y0074392D01*
X0028276Y0074439D01*
X0028162Y0074489D01*
X0028049Y0074542D01*
X0027938Y0074600D01*
X0027828Y0074660D01*
X0027721Y0074725D01*
X0027616Y0074792D01*
X0027513Y0074863D01*
X0027413Y0074937D01*
X0027315Y0075014D01*
X0027219Y0075095D01*
X0027126Y0075178D01*
X0027035Y0075264D01*
X0026948Y0075353D01*
X0026863Y0075445D01*
X0026781Y0075539D01*
X0026702Y0075636D01*
X0026627Y0075736D01*
X0026554Y0075837D01*
X0026485Y0075941D01*
X0026419Y0076048D01*
X0026357Y0076156D01*
X0026298Y0076266D01*
X0026242Y0076378D01*
X0026190Y0076492D01*
X0026142Y0076607D01*
X0026097Y0076723D01*
X0026057Y0076842D01*
X0026019Y0076961D01*
X0025986Y0077081D01*
X0025957Y0077203D01*
X0025931Y0077325D01*
X0025909Y0077448D01*
X0025892Y0077572D01*
X0025878Y0077696D01*
X0025868Y0077820D01*
X0025862Y0077945D01*
X0025860Y0078070D01*
X0008925Y0082250D02*
X0008927Y0082329D01*
X0008933Y0082408D01*
X0008943Y0082487D01*
X0008957Y0082565D01*
X0008974Y0082642D01*
X0008996Y0082718D01*
X0009021Y0082793D01*
X0009051Y0082866D01*
X0009083Y0082938D01*
X0009120Y0083009D01*
X0009160Y0083077D01*
X0009203Y0083143D01*
X0009249Y0083207D01*
X0009299Y0083269D01*
X0009352Y0083328D01*
X0009407Y0083384D01*
X0009466Y0083438D01*
X0009527Y0083488D01*
X0009590Y0083536D01*
X0009656Y0083580D01*
X0009724Y0083621D01*
X0009794Y0083658D01*
X0009865Y0083692D01*
X0009939Y0083722D01*
X0010013Y0083748D01*
X0010089Y0083770D01*
X0010166Y0083789D01*
X0010244Y0083804D01*
X0010322Y0083815D01*
X0010401Y0083822D01*
X0010480Y0083825D01*
X0010559Y0083824D01*
X0010638Y0083819D01*
X0010717Y0083810D01*
X0010795Y0083797D01*
X0010872Y0083780D01*
X0010949Y0083760D01*
X0011024Y0083735D01*
X0011098Y0083707D01*
X0011171Y0083675D01*
X0011241Y0083640D01*
X0011310Y0083601D01*
X0011377Y0083558D01*
X0011442Y0083512D01*
X0011504Y0083464D01*
X0011564Y0083412D01*
X0011621Y0083357D01*
X0011675Y0083299D01*
X0011726Y0083239D01*
X0011774Y0083176D01*
X0011819Y0083111D01*
X0011861Y0083043D01*
X0011899Y0082974D01*
X0011933Y0082903D01*
X0011964Y0082830D01*
X0011992Y0082755D01*
X0012015Y0082680D01*
X0012035Y0082603D01*
X0012051Y0082526D01*
X0012063Y0082447D01*
X0012071Y0082369D01*
X0012075Y0082290D01*
X0012075Y0082210D01*
X0012071Y0082131D01*
X0012063Y0082053D01*
X0012051Y0081974D01*
X0012035Y0081897D01*
X0012015Y0081820D01*
X0011992Y0081745D01*
X0011964Y0081670D01*
X0011933Y0081597D01*
X0011899Y0081526D01*
X0011861Y0081457D01*
X0011819Y0081389D01*
X0011774Y0081324D01*
X0011726Y0081261D01*
X0011675Y0081201D01*
X0011621Y0081143D01*
X0011564Y0081088D01*
X0011504Y0081036D01*
X0011442Y0080988D01*
X0011377Y0080942D01*
X0011310Y0080899D01*
X0011241Y0080860D01*
X0011171Y0080825D01*
X0011098Y0080793D01*
X0011024Y0080765D01*
X0010949Y0080740D01*
X0010872Y0080720D01*
X0010795Y0080703D01*
X0010717Y0080690D01*
X0010638Y0080681D01*
X0010559Y0080676D01*
X0010480Y0080675D01*
X0010401Y0080678D01*
X0010322Y0080685D01*
X0010244Y0080696D01*
X0010166Y0080711D01*
X0010089Y0080730D01*
X0010013Y0080752D01*
X0009939Y0080778D01*
X0009865Y0080808D01*
X0009794Y0080842D01*
X0009724Y0080879D01*
X0009656Y0080920D01*
X0009590Y0080964D01*
X0009527Y0081012D01*
X0009466Y0081062D01*
X0009407Y0081116D01*
X0009352Y0081172D01*
X0009299Y0081231D01*
X0009249Y0081293D01*
X0009203Y0081357D01*
X0009160Y0081423D01*
X0009120Y0081491D01*
X0009083Y0081562D01*
X0009051Y0081634D01*
X0009021Y0081707D01*
X0008996Y0081782D01*
X0008974Y0081858D01*
X0008957Y0081935D01*
X0008943Y0082013D01*
X0008933Y0082092D01*
X0008927Y0082171D01*
X0008925Y0082250D01*
X0008925Y0148500D02*
X0008927Y0148579D01*
X0008933Y0148658D01*
X0008943Y0148737D01*
X0008957Y0148815D01*
X0008974Y0148892D01*
X0008996Y0148968D01*
X0009021Y0149043D01*
X0009051Y0149116D01*
X0009083Y0149188D01*
X0009120Y0149259D01*
X0009160Y0149327D01*
X0009203Y0149393D01*
X0009249Y0149457D01*
X0009299Y0149519D01*
X0009352Y0149578D01*
X0009407Y0149634D01*
X0009466Y0149688D01*
X0009527Y0149738D01*
X0009590Y0149786D01*
X0009656Y0149830D01*
X0009724Y0149871D01*
X0009794Y0149908D01*
X0009865Y0149942D01*
X0009939Y0149972D01*
X0010013Y0149998D01*
X0010089Y0150020D01*
X0010166Y0150039D01*
X0010244Y0150054D01*
X0010322Y0150065D01*
X0010401Y0150072D01*
X0010480Y0150075D01*
X0010559Y0150074D01*
X0010638Y0150069D01*
X0010717Y0150060D01*
X0010795Y0150047D01*
X0010872Y0150030D01*
X0010949Y0150010D01*
X0011024Y0149985D01*
X0011098Y0149957D01*
X0011171Y0149925D01*
X0011241Y0149890D01*
X0011310Y0149851D01*
X0011377Y0149808D01*
X0011442Y0149762D01*
X0011504Y0149714D01*
X0011564Y0149662D01*
X0011621Y0149607D01*
X0011675Y0149549D01*
X0011726Y0149489D01*
X0011774Y0149426D01*
X0011819Y0149361D01*
X0011861Y0149293D01*
X0011899Y0149224D01*
X0011933Y0149153D01*
X0011964Y0149080D01*
X0011992Y0149005D01*
X0012015Y0148930D01*
X0012035Y0148853D01*
X0012051Y0148776D01*
X0012063Y0148697D01*
X0012071Y0148619D01*
X0012075Y0148540D01*
X0012075Y0148460D01*
X0012071Y0148381D01*
X0012063Y0148303D01*
X0012051Y0148224D01*
X0012035Y0148147D01*
X0012015Y0148070D01*
X0011992Y0147995D01*
X0011964Y0147920D01*
X0011933Y0147847D01*
X0011899Y0147776D01*
X0011861Y0147707D01*
X0011819Y0147639D01*
X0011774Y0147574D01*
X0011726Y0147511D01*
X0011675Y0147451D01*
X0011621Y0147393D01*
X0011564Y0147338D01*
X0011504Y0147286D01*
X0011442Y0147238D01*
X0011377Y0147192D01*
X0011310Y0147149D01*
X0011241Y0147110D01*
X0011171Y0147075D01*
X0011098Y0147043D01*
X0011024Y0147015D01*
X0010949Y0146990D01*
X0010872Y0146970D01*
X0010795Y0146953D01*
X0010717Y0146940D01*
X0010638Y0146931D01*
X0010559Y0146926D01*
X0010480Y0146925D01*
X0010401Y0146928D01*
X0010322Y0146935D01*
X0010244Y0146946D01*
X0010166Y0146961D01*
X0010089Y0146980D01*
X0010013Y0147002D01*
X0009939Y0147028D01*
X0009865Y0147058D01*
X0009794Y0147092D01*
X0009724Y0147129D01*
X0009656Y0147170D01*
X0009590Y0147214D01*
X0009527Y0147262D01*
X0009466Y0147312D01*
X0009407Y0147366D01*
X0009352Y0147422D01*
X0009299Y0147481D01*
X0009249Y0147543D01*
X0009203Y0147607D01*
X0009160Y0147673D01*
X0009120Y0147741D01*
X0009083Y0147812D01*
X0009051Y0147884D01*
X0009021Y0147957D01*
X0008996Y0148032D01*
X0008974Y0148108D01*
X0008957Y0148185D01*
X0008943Y0148263D01*
X0008933Y0148342D01*
X0008927Y0148421D01*
X0008925Y0148500D01*
X0025860Y0152875D02*
X0025862Y0153000D01*
X0025868Y0153125D01*
X0025878Y0153249D01*
X0025892Y0153373D01*
X0025909Y0153497D01*
X0025931Y0153620D01*
X0025957Y0153742D01*
X0025986Y0153864D01*
X0026019Y0153984D01*
X0026057Y0154103D01*
X0026097Y0154222D01*
X0026142Y0154338D01*
X0026190Y0154453D01*
X0026242Y0154567D01*
X0026298Y0154679D01*
X0026357Y0154789D01*
X0026419Y0154897D01*
X0026485Y0155004D01*
X0026554Y0155108D01*
X0026627Y0155209D01*
X0026702Y0155309D01*
X0026781Y0155406D01*
X0026863Y0155500D01*
X0026948Y0155592D01*
X0027035Y0155681D01*
X0027126Y0155767D01*
X0027219Y0155850D01*
X0027315Y0155931D01*
X0027413Y0156008D01*
X0027513Y0156082D01*
X0027616Y0156153D01*
X0027721Y0156220D01*
X0027829Y0156285D01*
X0027938Y0156345D01*
X0028049Y0156403D01*
X0028162Y0156456D01*
X0028276Y0156506D01*
X0028392Y0156553D01*
X0028509Y0156595D01*
X0028628Y0156634D01*
X0028748Y0156670D01*
X0028869Y0156701D01*
X0028991Y0156729D01*
X0029113Y0156752D01*
X0029237Y0156772D01*
X0029361Y0156788D01*
X0029485Y0156800D01*
X0029610Y0156808D01*
X0029735Y0156812D01*
X0029859Y0156812D01*
X0029984Y0156808D01*
X0030109Y0156800D01*
X0030233Y0156788D01*
X0030357Y0156772D01*
X0030481Y0156752D01*
X0030603Y0156729D01*
X0030725Y0156701D01*
X0030846Y0156670D01*
X0030966Y0156634D01*
X0031085Y0156595D01*
X0031202Y0156553D01*
X0031318Y0156506D01*
X0031432Y0156456D01*
X0031545Y0156403D01*
X0031656Y0156345D01*
X0031766Y0156285D01*
X0031873Y0156220D01*
X0031978Y0156153D01*
X0032081Y0156082D01*
X0032181Y0156008D01*
X0032279Y0155931D01*
X0032375Y0155850D01*
X0032468Y0155767D01*
X0032559Y0155681D01*
X0032646Y0155592D01*
X0032731Y0155500D01*
X0032813Y0155406D01*
X0032892Y0155309D01*
X0032967Y0155209D01*
X0033040Y0155108D01*
X0033109Y0155004D01*
X0033175Y0154897D01*
X0033237Y0154789D01*
X0033296Y0154679D01*
X0033352Y0154567D01*
X0033404Y0154453D01*
X0033452Y0154338D01*
X0033497Y0154222D01*
X0033537Y0154103D01*
X0033575Y0153984D01*
X0033608Y0153864D01*
X0033637Y0153742D01*
X0033663Y0153620D01*
X0033685Y0153497D01*
X0033702Y0153373D01*
X0033716Y0153249D01*
X0033726Y0153125D01*
X0033732Y0153000D01*
X0033734Y0152875D01*
X0033732Y0152750D01*
X0033726Y0152625D01*
X0033716Y0152501D01*
X0033702Y0152377D01*
X0033685Y0152253D01*
X0033663Y0152130D01*
X0033637Y0152008D01*
X0033608Y0151886D01*
X0033575Y0151766D01*
X0033537Y0151647D01*
X0033497Y0151528D01*
X0033452Y0151412D01*
X0033404Y0151297D01*
X0033352Y0151183D01*
X0033296Y0151071D01*
X0033237Y0150961D01*
X0033175Y0150853D01*
X0033109Y0150746D01*
X0033040Y0150642D01*
X0032967Y0150541D01*
X0032892Y0150441D01*
X0032813Y0150344D01*
X0032731Y0150250D01*
X0032646Y0150158D01*
X0032559Y0150069D01*
X0032468Y0149983D01*
X0032375Y0149900D01*
X0032279Y0149819D01*
X0032181Y0149742D01*
X0032081Y0149668D01*
X0031978Y0149597D01*
X0031873Y0149530D01*
X0031765Y0149465D01*
X0031656Y0149405D01*
X0031545Y0149347D01*
X0031432Y0149294D01*
X0031318Y0149244D01*
X0031202Y0149197D01*
X0031085Y0149155D01*
X0030966Y0149116D01*
X0030846Y0149080D01*
X0030725Y0149049D01*
X0030603Y0149021D01*
X0030481Y0148998D01*
X0030357Y0148978D01*
X0030233Y0148962D01*
X0030109Y0148950D01*
X0029984Y0148942D01*
X0029859Y0148938D01*
X0029735Y0148938D01*
X0029610Y0148942D01*
X0029485Y0148950D01*
X0029361Y0148962D01*
X0029237Y0148978D01*
X0029113Y0148998D01*
X0028991Y0149021D01*
X0028869Y0149049D01*
X0028748Y0149080D01*
X0028628Y0149116D01*
X0028509Y0149155D01*
X0028392Y0149197D01*
X0028276Y0149244D01*
X0028162Y0149294D01*
X0028049Y0149347D01*
X0027938Y0149405D01*
X0027828Y0149465D01*
X0027721Y0149530D01*
X0027616Y0149597D01*
X0027513Y0149668D01*
X0027413Y0149742D01*
X0027315Y0149819D01*
X0027219Y0149900D01*
X0027126Y0149983D01*
X0027035Y0150069D01*
X0026948Y0150158D01*
X0026863Y0150250D01*
X0026781Y0150344D01*
X0026702Y0150441D01*
X0026627Y0150541D01*
X0026554Y0150642D01*
X0026485Y0150746D01*
X0026419Y0150853D01*
X0026357Y0150961D01*
X0026298Y0151071D01*
X0026242Y0151183D01*
X0026190Y0151297D01*
X0026142Y0151412D01*
X0026097Y0151528D01*
X0026057Y0151647D01*
X0026019Y0151766D01*
X0025986Y0151886D01*
X0025957Y0152008D01*
X0025931Y0152130D01*
X0025909Y0152253D01*
X0025892Y0152377D01*
X0025878Y0152501D01*
X0025868Y0152625D01*
X0025862Y0152750D01*
X0025860Y0152875D01*
X0012951Y0191000D02*
X0012953Y0191158D01*
X0012959Y0191316D01*
X0012969Y0191474D01*
X0012983Y0191632D01*
X0013001Y0191789D01*
X0013022Y0191946D01*
X0013048Y0192102D01*
X0013078Y0192258D01*
X0013111Y0192413D01*
X0013149Y0192566D01*
X0013190Y0192719D01*
X0013235Y0192871D01*
X0013284Y0193022D01*
X0013337Y0193171D01*
X0013393Y0193319D01*
X0013453Y0193465D01*
X0013517Y0193610D01*
X0013585Y0193753D01*
X0013656Y0193895D01*
X0013730Y0194035D01*
X0013808Y0194172D01*
X0013890Y0194308D01*
X0013974Y0194442D01*
X0014063Y0194573D01*
X0014154Y0194702D01*
X0014249Y0194829D01*
X0014346Y0194954D01*
X0014447Y0195076D01*
X0014551Y0195195D01*
X0014658Y0195312D01*
X0014768Y0195426D01*
X0014881Y0195537D01*
X0014996Y0195646D01*
X0015114Y0195751D01*
X0015235Y0195853D01*
X0015358Y0195953D01*
X0015484Y0196049D01*
X0015612Y0196142D01*
X0015742Y0196232D01*
X0015875Y0196318D01*
X0016010Y0196402D01*
X0016146Y0196481D01*
X0016285Y0196558D01*
X0016426Y0196630D01*
X0016568Y0196700D01*
X0016712Y0196765D01*
X0016858Y0196827D01*
X0017005Y0196885D01*
X0017154Y0196940D01*
X0017304Y0196991D01*
X0017455Y0197038D01*
X0017607Y0197081D01*
X0017760Y0197120D01*
X0017915Y0197156D01*
X0018070Y0197187D01*
X0018226Y0197215D01*
X0018382Y0197239D01*
X0018539Y0197259D01*
X0018697Y0197275D01*
X0018854Y0197287D01*
X0019013Y0197295D01*
X0019171Y0197299D01*
X0019329Y0197299D01*
X0019487Y0197295D01*
X0019646Y0197287D01*
X0019803Y0197275D01*
X0019961Y0197259D01*
X0020118Y0197239D01*
X0020274Y0197215D01*
X0020430Y0197187D01*
X0020585Y0197156D01*
X0020740Y0197120D01*
X0020893Y0197081D01*
X0021045Y0197038D01*
X0021196Y0196991D01*
X0021346Y0196940D01*
X0021495Y0196885D01*
X0021642Y0196827D01*
X0021788Y0196765D01*
X0021932Y0196700D01*
X0022074Y0196630D01*
X0022215Y0196558D01*
X0022354Y0196481D01*
X0022490Y0196402D01*
X0022625Y0196318D01*
X0022758Y0196232D01*
X0022888Y0196142D01*
X0023016Y0196049D01*
X0023142Y0195953D01*
X0023265Y0195853D01*
X0023386Y0195751D01*
X0023504Y0195646D01*
X0023619Y0195537D01*
X0023732Y0195426D01*
X0023842Y0195312D01*
X0023949Y0195195D01*
X0024053Y0195076D01*
X0024154Y0194954D01*
X0024251Y0194829D01*
X0024346Y0194702D01*
X0024437Y0194573D01*
X0024526Y0194442D01*
X0024610Y0194308D01*
X0024692Y0194172D01*
X0024770Y0194035D01*
X0024844Y0193895D01*
X0024915Y0193753D01*
X0024983Y0193610D01*
X0025047Y0193465D01*
X0025107Y0193319D01*
X0025163Y0193171D01*
X0025216Y0193022D01*
X0025265Y0192871D01*
X0025310Y0192719D01*
X0025351Y0192566D01*
X0025389Y0192413D01*
X0025422Y0192258D01*
X0025452Y0192102D01*
X0025478Y0191946D01*
X0025499Y0191789D01*
X0025517Y0191632D01*
X0025531Y0191474D01*
X0025541Y0191316D01*
X0025547Y0191158D01*
X0025549Y0191000D01*
X0025547Y0190842D01*
X0025541Y0190684D01*
X0025531Y0190526D01*
X0025517Y0190368D01*
X0025499Y0190211D01*
X0025478Y0190054D01*
X0025452Y0189898D01*
X0025422Y0189742D01*
X0025389Y0189587D01*
X0025351Y0189434D01*
X0025310Y0189281D01*
X0025265Y0189129D01*
X0025216Y0188978D01*
X0025163Y0188829D01*
X0025107Y0188681D01*
X0025047Y0188535D01*
X0024983Y0188390D01*
X0024915Y0188247D01*
X0024844Y0188105D01*
X0024770Y0187965D01*
X0024692Y0187828D01*
X0024610Y0187692D01*
X0024526Y0187558D01*
X0024437Y0187427D01*
X0024346Y0187298D01*
X0024251Y0187171D01*
X0024154Y0187046D01*
X0024053Y0186924D01*
X0023949Y0186805D01*
X0023842Y0186688D01*
X0023732Y0186574D01*
X0023619Y0186463D01*
X0023504Y0186354D01*
X0023386Y0186249D01*
X0023265Y0186147D01*
X0023142Y0186047D01*
X0023016Y0185951D01*
X0022888Y0185858D01*
X0022758Y0185768D01*
X0022625Y0185682D01*
X0022490Y0185598D01*
X0022354Y0185519D01*
X0022215Y0185442D01*
X0022074Y0185370D01*
X0021932Y0185300D01*
X0021788Y0185235D01*
X0021642Y0185173D01*
X0021495Y0185115D01*
X0021346Y0185060D01*
X0021196Y0185009D01*
X0021045Y0184962D01*
X0020893Y0184919D01*
X0020740Y0184880D01*
X0020585Y0184844D01*
X0020430Y0184813D01*
X0020274Y0184785D01*
X0020118Y0184761D01*
X0019961Y0184741D01*
X0019803Y0184725D01*
X0019646Y0184713D01*
X0019487Y0184705D01*
X0019329Y0184701D01*
X0019171Y0184701D01*
X0019013Y0184705D01*
X0018854Y0184713D01*
X0018697Y0184725D01*
X0018539Y0184741D01*
X0018382Y0184761D01*
X0018226Y0184785D01*
X0018070Y0184813D01*
X0017915Y0184844D01*
X0017760Y0184880D01*
X0017607Y0184919D01*
X0017455Y0184962D01*
X0017304Y0185009D01*
X0017154Y0185060D01*
X0017005Y0185115D01*
X0016858Y0185173D01*
X0016712Y0185235D01*
X0016568Y0185300D01*
X0016426Y0185370D01*
X0016285Y0185442D01*
X0016146Y0185519D01*
X0016010Y0185598D01*
X0015875Y0185682D01*
X0015742Y0185768D01*
X0015612Y0185858D01*
X0015484Y0185951D01*
X0015358Y0186047D01*
X0015235Y0186147D01*
X0015114Y0186249D01*
X0014996Y0186354D01*
X0014881Y0186463D01*
X0014768Y0186574D01*
X0014658Y0186688D01*
X0014551Y0186805D01*
X0014447Y0186924D01*
X0014346Y0187046D01*
X0014249Y0187171D01*
X0014154Y0187298D01*
X0014063Y0187427D01*
X0013974Y0187558D01*
X0013890Y0187692D01*
X0013808Y0187828D01*
X0013730Y0187965D01*
X0013656Y0188105D01*
X0013585Y0188247D01*
X0013517Y0188390D01*
X0013453Y0188535D01*
X0013393Y0188681D01*
X0013337Y0188829D01*
X0013284Y0188978D01*
X0013235Y0189129D01*
X0013190Y0189281D01*
X0013149Y0189434D01*
X0013111Y0189587D01*
X0013078Y0189742D01*
X0013048Y0189898D01*
X0013022Y0190054D01*
X0013001Y0190211D01*
X0012983Y0190368D01*
X0012969Y0190526D01*
X0012959Y0190684D01*
X0012953Y0190842D01*
X0012951Y0191000D01*
X0024250Y0207250D02*
X0024250Y0216000D01*
X0154250Y0216000D01*
X0154250Y0207250D01*
X0024250Y0207250D01*
X0021391Y0208500D02*
X0021393Y0208562D01*
X0021399Y0208625D01*
X0021409Y0208686D01*
X0021423Y0208747D01*
X0021440Y0208807D01*
X0021461Y0208866D01*
X0021487Y0208923D01*
X0021515Y0208978D01*
X0021547Y0209032D01*
X0021583Y0209083D01*
X0021621Y0209133D01*
X0021663Y0209179D01*
X0021707Y0209223D01*
X0021755Y0209264D01*
X0021804Y0209302D01*
X0021856Y0209336D01*
X0021910Y0209367D01*
X0021966Y0209395D01*
X0022024Y0209419D01*
X0022083Y0209440D01*
X0022143Y0209456D01*
X0022204Y0209469D01*
X0022266Y0209478D01*
X0022328Y0209483D01*
X0022391Y0209484D01*
X0022453Y0209481D01*
X0022515Y0209474D01*
X0022577Y0209463D01*
X0022637Y0209448D01*
X0022697Y0209430D01*
X0022755Y0209408D01*
X0022812Y0209382D01*
X0022867Y0209352D01*
X0022920Y0209319D01*
X0022971Y0209283D01*
X0023019Y0209244D01*
X0023065Y0209201D01*
X0023108Y0209156D01*
X0023148Y0209108D01*
X0023185Y0209058D01*
X0023219Y0209005D01*
X0023250Y0208951D01*
X0023276Y0208895D01*
X0023300Y0208837D01*
X0023319Y0208777D01*
X0023335Y0208717D01*
X0023347Y0208655D01*
X0023355Y0208594D01*
X0023359Y0208531D01*
X0023359Y0208469D01*
X0023355Y0208406D01*
X0023347Y0208345D01*
X0023335Y0208283D01*
X0023319Y0208223D01*
X0023300Y0208163D01*
X0023276Y0208105D01*
X0023250Y0208049D01*
X0023219Y0207995D01*
X0023185Y0207942D01*
X0023148Y0207892D01*
X0023108Y0207844D01*
X0023065Y0207799D01*
X0023019Y0207756D01*
X0022971Y0207717D01*
X0022920Y0207681D01*
X0022867Y0207648D01*
X0022812Y0207618D01*
X0022755Y0207592D01*
X0022697Y0207570D01*
X0022637Y0207552D01*
X0022577Y0207537D01*
X0022515Y0207526D01*
X0022453Y0207519D01*
X0022391Y0207516D01*
X0022328Y0207517D01*
X0022266Y0207522D01*
X0022204Y0207531D01*
X0022143Y0207544D01*
X0022083Y0207560D01*
X0022024Y0207581D01*
X0021966Y0207605D01*
X0021910Y0207633D01*
X0021856Y0207664D01*
X0021804Y0207698D01*
X0021755Y0207736D01*
X0021707Y0207777D01*
X0021663Y0207821D01*
X0021621Y0207867D01*
X0021583Y0207917D01*
X0021547Y0207968D01*
X0021515Y0208022D01*
X0021487Y0208077D01*
X0021461Y0208134D01*
X0021440Y0208193D01*
X0021423Y0208253D01*
X0021409Y0208314D01*
X0021399Y0208375D01*
X0021393Y0208438D01*
X0021391Y0208500D01*
X0021391Y0211625D02*
X0021393Y0211687D01*
X0021399Y0211750D01*
X0021409Y0211811D01*
X0021423Y0211872D01*
X0021440Y0211932D01*
X0021461Y0211991D01*
X0021487Y0212048D01*
X0021515Y0212103D01*
X0021547Y0212157D01*
X0021583Y0212208D01*
X0021621Y0212258D01*
X0021663Y0212304D01*
X0021707Y0212348D01*
X0021755Y0212389D01*
X0021804Y0212427D01*
X0021856Y0212461D01*
X0021910Y0212492D01*
X0021966Y0212520D01*
X0022024Y0212544D01*
X0022083Y0212565D01*
X0022143Y0212581D01*
X0022204Y0212594D01*
X0022266Y0212603D01*
X0022328Y0212608D01*
X0022391Y0212609D01*
X0022453Y0212606D01*
X0022515Y0212599D01*
X0022577Y0212588D01*
X0022637Y0212573D01*
X0022697Y0212555D01*
X0022755Y0212533D01*
X0022812Y0212507D01*
X0022867Y0212477D01*
X0022920Y0212444D01*
X0022971Y0212408D01*
X0023019Y0212369D01*
X0023065Y0212326D01*
X0023108Y0212281D01*
X0023148Y0212233D01*
X0023185Y0212183D01*
X0023219Y0212130D01*
X0023250Y0212076D01*
X0023276Y0212020D01*
X0023300Y0211962D01*
X0023319Y0211902D01*
X0023335Y0211842D01*
X0023347Y0211780D01*
X0023355Y0211719D01*
X0023359Y0211656D01*
X0023359Y0211594D01*
X0023355Y0211531D01*
X0023347Y0211470D01*
X0023335Y0211408D01*
X0023319Y0211348D01*
X0023300Y0211288D01*
X0023276Y0211230D01*
X0023250Y0211174D01*
X0023219Y0211120D01*
X0023185Y0211067D01*
X0023148Y0211017D01*
X0023108Y0210969D01*
X0023065Y0210924D01*
X0023019Y0210881D01*
X0022971Y0210842D01*
X0022920Y0210806D01*
X0022867Y0210773D01*
X0022812Y0210743D01*
X0022755Y0210717D01*
X0022697Y0210695D01*
X0022637Y0210677D01*
X0022577Y0210662D01*
X0022515Y0210651D01*
X0022453Y0210644D01*
X0022391Y0210641D01*
X0022328Y0210642D01*
X0022266Y0210647D01*
X0022204Y0210656D01*
X0022143Y0210669D01*
X0022083Y0210685D01*
X0022024Y0210706D01*
X0021966Y0210730D01*
X0021910Y0210758D01*
X0021856Y0210789D01*
X0021804Y0210823D01*
X0021755Y0210861D01*
X0021707Y0210902D01*
X0021663Y0210946D01*
X0021621Y0210992D01*
X0021583Y0211042D01*
X0021547Y0211093D01*
X0021515Y0211147D01*
X0021487Y0211202D01*
X0021461Y0211259D01*
X0021440Y0211318D01*
X0021423Y0211378D01*
X0021409Y0211439D01*
X0021399Y0211500D01*
X0021393Y0211563D01*
X0021391Y0211625D01*
X0021391Y0214750D02*
X0021393Y0214812D01*
X0021399Y0214875D01*
X0021409Y0214936D01*
X0021423Y0214997D01*
X0021440Y0215057D01*
X0021461Y0215116D01*
X0021487Y0215173D01*
X0021515Y0215228D01*
X0021547Y0215282D01*
X0021583Y0215333D01*
X0021621Y0215383D01*
X0021663Y0215429D01*
X0021707Y0215473D01*
X0021755Y0215514D01*
X0021804Y0215552D01*
X0021856Y0215586D01*
X0021910Y0215617D01*
X0021966Y0215645D01*
X0022024Y0215669D01*
X0022083Y0215690D01*
X0022143Y0215706D01*
X0022204Y0215719D01*
X0022266Y0215728D01*
X0022328Y0215733D01*
X0022391Y0215734D01*
X0022453Y0215731D01*
X0022515Y0215724D01*
X0022577Y0215713D01*
X0022637Y0215698D01*
X0022697Y0215680D01*
X0022755Y0215658D01*
X0022812Y0215632D01*
X0022867Y0215602D01*
X0022920Y0215569D01*
X0022971Y0215533D01*
X0023019Y0215494D01*
X0023065Y0215451D01*
X0023108Y0215406D01*
X0023148Y0215358D01*
X0023185Y0215308D01*
X0023219Y0215255D01*
X0023250Y0215201D01*
X0023276Y0215145D01*
X0023300Y0215087D01*
X0023319Y0215027D01*
X0023335Y0214967D01*
X0023347Y0214905D01*
X0023355Y0214844D01*
X0023359Y0214781D01*
X0023359Y0214719D01*
X0023355Y0214656D01*
X0023347Y0214595D01*
X0023335Y0214533D01*
X0023319Y0214473D01*
X0023300Y0214413D01*
X0023276Y0214355D01*
X0023250Y0214299D01*
X0023219Y0214245D01*
X0023185Y0214192D01*
X0023148Y0214142D01*
X0023108Y0214094D01*
X0023065Y0214049D01*
X0023019Y0214006D01*
X0022971Y0213967D01*
X0022920Y0213931D01*
X0022867Y0213898D01*
X0022812Y0213868D01*
X0022755Y0213842D01*
X0022697Y0213820D01*
X0022637Y0213802D01*
X0022577Y0213787D01*
X0022515Y0213776D01*
X0022453Y0213769D01*
X0022391Y0213766D01*
X0022328Y0213767D01*
X0022266Y0213772D01*
X0022204Y0213781D01*
X0022143Y0213794D01*
X0022083Y0213810D01*
X0022024Y0213831D01*
X0021966Y0213855D01*
X0021910Y0213883D01*
X0021856Y0213914D01*
X0021804Y0213948D01*
X0021755Y0213986D01*
X0021707Y0214027D01*
X0021663Y0214071D01*
X0021621Y0214117D01*
X0021583Y0214167D01*
X0021547Y0214218D01*
X0021515Y0214272D01*
X0021487Y0214327D01*
X0021461Y0214384D01*
X0021440Y0214443D01*
X0021423Y0214503D01*
X0021409Y0214564D01*
X0021399Y0214625D01*
X0021393Y0214688D01*
X0021391Y0214750D01*
X0018266Y0214750D02*
X0018268Y0214812D01*
X0018274Y0214875D01*
X0018284Y0214936D01*
X0018298Y0214997D01*
X0018315Y0215057D01*
X0018336Y0215116D01*
X0018362Y0215173D01*
X0018390Y0215228D01*
X0018422Y0215282D01*
X0018458Y0215333D01*
X0018496Y0215383D01*
X0018538Y0215429D01*
X0018582Y0215473D01*
X0018630Y0215514D01*
X0018679Y0215552D01*
X0018731Y0215586D01*
X0018785Y0215617D01*
X0018841Y0215645D01*
X0018899Y0215669D01*
X0018958Y0215690D01*
X0019018Y0215706D01*
X0019079Y0215719D01*
X0019141Y0215728D01*
X0019203Y0215733D01*
X0019266Y0215734D01*
X0019328Y0215731D01*
X0019390Y0215724D01*
X0019452Y0215713D01*
X0019512Y0215698D01*
X0019572Y0215680D01*
X0019630Y0215658D01*
X0019687Y0215632D01*
X0019742Y0215602D01*
X0019795Y0215569D01*
X0019846Y0215533D01*
X0019894Y0215494D01*
X0019940Y0215451D01*
X0019983Y0215406D01*
X0020023Y0215358D01*
X0020060Y0215308D01*
X0020094Y0215255D01*
X0020125Y0215201D01*
X0020151Y0215145D01*
X0020175Y0215087D01*
X0020194Y0215027D01*
X0020210Y0214967D01*
X0020222Y0214905D01*
X0020230Y0214844D01*
X0020234Y0214781D01*
X0020234Y0214719D01*
X0020230Y0214656D01*
X0020222Y0214595D01*
X0020210Y0214533D01*
X0020194Y0214473D01*
X0020175Y0214413D01*
X0020151Y0214355D01*
X0020125Y0214299D01*
X0020094Y0214245D01*
X0020060Y0214192D01*
X0020023Y0214142D01*
X0019983Y0214094D01*
X0019940Y0214049D01*
X0019894Y0214006D01*
X0019846Y0213967D01*
X0019795Y0213931D01*
X0019742Y0213898D01*
X0019687Y0213868D01*
X0019630Y0213842D01*
X0019572Y0213820D01*
X0019512Y0213802D01*
X0019452Y0213787D01*
X0019390Y0213776D01*
X0019328Y0213769D01*
X0019266Y0213766D01*
X0019203Y0213767D01*
X0019141Y0213772D01*
X0019079Y0213781D01*
X0019018Y0213794D01*
X0018958Y0213810D01*
X0018899Y0213831D01*
X0018841Y0213855D01*
X0018785Y0213883D01*
X0018731Y0213914D01*
X0018679Y0213948D01*
X0018630Y0213986D01*
X0018582Y0214027D01*
X0018538Y0214071D01*
X0018496Y0214117D01*
X0018458Y0214167D01*
X0018422Y0214218D01*
X0018390Y0214272D01*
X0018362Y0214327D01*
X0018336Y0214384D01*
X0018315Y0214443D01*
X0018298Y0214503D01*
X0018284Y0214564D01*
X0018274Y0214625D01*
X0018268Y0214688D01*
X0018266Y0214750D01*
X0015141Y0214750D02*
X0015143Y0214812D01*
X0015149Y0214875D01*
X0015159Y0214936D01*
X0015173Y0214997D01*
X0015190Y0215057D01*
X0015211Y0215116D01*
X0015237Y0215173D01*
X0015265Y0215228D01*
X0015297Y0215282D01*
X0015333Y0215333D01*
X0015371Y0215383D01*
X0015413Y0215429D01*
X0015457Y0215473D01*
X0015505Y0215514D01*
X0015554Y0215552D01*
X0015606Y0215586D01*
X0015660Y0215617D01*
X0015716Y0215645D01*
X0015774Y0215669D01*
X0015833Y0215690D01*
X0015893Y0215706D01*
X0015954Y0215719D01*
X0016016Y0215728D01*
X0016078Y0215733D01*
X0016141Y0215734D01*
X0016203Y0215731D01*
X0016265Y0215724D01*
X0016327Y0215713D01*
X0016387Y0215698D01*
X0016447Y0215680D01*
X0016505Y0215658D01*
X0016562Y0215632D01*
X0016617Y0215602D01*
X0016670Y0215569D01*
X0016721Y0215533D01*
X0016769Y0215494D01*
X0016815Y0215451D01*
X0016858Y0215406D01*
X0016898Y0215358D01*
X0016935Y0215308D01*
X0016969Y0215255D01*
X0017000Y0215201D01*
X0017026Y0215145D01*
X0017050Y0215087D01*
X0017069Y0215027D01*
X0017085Y0214967D01*
X0017097Y0214905D01*
X0017105Y0214844D01*
X0017109Y0214781D01*
X0017109Y0214719D01*
X0017105Y0214656D01*
X0017097Y0214595D01*
X0017085Y0214533D01*
X0017069Y0214473D01*
X0017050Y0214413D01*
X0017026Y0214355D01*
X0017000Y0214299D01*
X0016969Y0214245D01*
X0016935Y0214192D01*
X0016898Y0214142D01*
X0016858Y0214094D01*
X0016815Y0214049D01*
X0016769Y0214006D01*
X0016721Y0213967D01*
X0016670Y0213931D01*
X0016617Y0213898D01*
X0016562Y0213868D01*
X0016505Y0213842D01*
X0016447Y0213820D01*
X0016387Y0213802D01*
X0016327Y0213787D01*
X0016265Y0213776D01*
X0016203Y0213769D01*
X0016141Y0213766D01*
X0016078Y0213767D01*
X0016016Y0213772D01*
X0015954Y0213781D01*
X0015893Y0213794D01*
X0015833Y0213810D01*
X0015774Y0213831D01*
X0015716Y0213855D01*
X0015660Y0213883D01*
X0015606Y0213914D01*
X0015554Y0213948D01*
X0015505Y0213986D01*
X0015457Y0214027D01*
X0015413Y0214071D01*
X0015371Y0214117D01*
X0015333Y0214167D01*
X0015297Y0214218D01*
X0015265Y0214272D01*
X0015237Y0214327D01*
X0015211Y0214384D01*
X0015190Y0214443D01*
X0015173Y0214503D01*
X0015159Y0214564D01*
X0015149Y0214625D01*
X0015143Y0214688D01*
X0015141Y0214750D01*
X0015141Y0211625D02*
X0015143Y0211687D01*
X0015149Y0211750D01*
X0015159Y0211811D01*
X0015173Y0211872D01*
X0015190Y0211932D01*
X0015211Y0211991D01*
X0015237Y0212048D01*
X0015265Y0212103D01*
X0015297Y0212157D01*
X0015333Y0212208D01*
X0015371Y0212258D01*
X0015413Y0212304D01*
X0015457Y0212348D01*
X0015505Y0212389D01*
X0015554Y0212427D01*
X0015606Y0212461D01*
X0015660Y0212492D01*
X0015716Y0212520D01*
X0015774Y0212544D01*
X0015833Y0212565D01*
X0015893Y0212581D01*
X0015954Y0212594D01*
X0016016Y0212603D01*
X0016078Y0212608D01*
X0016141Y0212609D01*
X0016203Y0212606D01*
X0016265Y0212599D01*
X0016327Y0212588D01*
X0016387Y0212573D01*
X0016447Y0212555D01*
X0016505Y0212533D01*
X0016562Y0212507D01*
X0016617Y0212477D01*
X0016670Y0212444D01*
X0016721Y0212408D01*
X0016769Y0212369D01*
X0016815Y0212326D01*
X0016858Y0212281D01*
X0016898Y0212233D01*
X0016935Y0212183D01*
X0016969Y0212130D01*
X0017000Y0212076D01*
X0017026Y0212020D01*
X0017050Y0211962D01*
X0017069Y0211902D01*
X0017085Y0211842D01*
X0017097Y0211780D01*
X0017105Y0211719D01*
X0017109Y0211656D01*
X0017109Y0211594D01*
X0017105Y0211531D01*
X0017097Y0211470D01*
X0017085Y0211408D01*
X0017069Y0211348D01*
X0017050Y0211288D01*
X0017026Y0211230D01*
X0017000Y0211174D01*
X0016969Y0211120D01*
X0016935Y0211067D01*
X0016898Y0211017D01*
X0016858Y0210969D01*
X0016815Y0210924D01*
X0016769Y0210881D01*
X0016721Y0210842D01*
X0016670Y0210806D01*
X0016617Y0210773D01*
X0016562Y0210743D01*
X0016505Y0210717D01*
X0016447Y0210695D01*
X0016387Y0210677D01*
X0016327Y0210662D01*
X0016265Y0210651D01*
X0016203Y0210644D01*
X0016141Y0210641D01*
X0016078Y0210642D01*
X0016016Y0210647D01*
X0015954Y0210656D01*
X0015893Y0210669D01*
X0015833Y0210685D01*
X0015774Y0210706D01*
X0015716Y0210730D01*
X0015660Y0210758D01*
X0015606Y0210789D01*
X0015554Y0210823D01*
X0015505Y0210861D01*
X0015457Y0210902D01*
X0015413Y0210946D01*
X0015371Y0210992D01*
X0015333Y0211042D01*
X0015297Y0211093D01*
X0015265Y0211147D01*
X0015237Y0211202D01*
X0015211Y0211259D01*
X0015190Y0211318D01*
X0015173Y0211378D01*
X0015159Y0211439D01*
X0015149Y0211500D01*
X0015143Y0211563D01*
X0015141Y0211625D01*
X0015141Y0208500D02*
X0015143Y0208562D01*
X0015149Y0208625D01*
X0015159Y0208686D01*
X0015173Y0208747D01*
X0015190Y0208807D01*
X0015211Y0208866D01*
X0015237Y0208923D01*
X0015265Y0208978D01*
X0015297Y0209032D01*
X0015333Y0209083D01*
X0015371Y0209133D01*
X0015413Y0209179D01*
X0015457Y0209223D01*
X0015505Y0209264D01*
X0015554Y0209302D01*
X0015606Y0209336D01*
X0015660Y0209367D01*
X0015716Y0209395D01*
X0015774Y0209419D01*
X0015833Y0209440D01*
X0015893Y0209456D01*
X0015954Y0209469D01*
X0016016Y0209478D01*
X0016078Y0209483D01*
X0016141Y0209484D01*
X0016203Y0209481D01*
X0016265Y0209474D01*
X0016327Y0209463D01*
X0016387Y0209448D01*
X0016447Y0209430D01*
X0016505Y0209408D01*
X0016562Y0209382D01*
X0016617Y0209352D01*
X0016670Y0209319D01*
X0016721Y0209283D01*
X0016769Y0209244D01*
X0016815Y0209201D01*
X0016858Y0209156D01*
X0016898Y0209108D01*
X0016935Y0209058D01*
X0016969Y0209005D01*
X0017000Y0208951D01*
X0017026Y0208895D01*
X0017050Y0208837D01*
X0017069Y0208777D01*
X0017085Y0208717D01*
X0017097Y0208655D01*
X0017105Y0208594D01*
X0017109Y0208531D01*
X0017109Y0208469D01*
X0017105Y0208406D01*
X0017097Y0208345D01*
X0017085Y0208283D01*
X0017069Y0208223D01*
X0017050Y0208163D01*
X0017026Y0208105D01*
X0017000Y0208049D01*
X0016969Y0207995D01*
X0016935Y0207942D01*
X0016898Y0207892D01*
X0016858Y0207844D01*
X0016815Y0207799D01*
X0016769Y0207756D01*
X0016721Y0207717D01*
X0016670Y0207681D01*
X0016617Y0207648D01*
X0016562Y0207618D01*
X0016505Y0207592D01*
X0016447Y0207570D01*
X0016387Y0207552D01*
X0016327Y0207537D01*
X0016265Y0207526D01*
X0016203Y0207519D01*
X0016141Y0207516D01*
X0016078Y0207517D01*
X0016016Y0207522D01*
X0015954Y0207531D01*
X0015893Y0207544D01*
X0015833Y0207560D01*
X0015774Y0207581D01*
X0015716Y0207605D01*
X0015660Y0207633D01*
X0015606Y0207664D01*
X0015554Y0207698D01*
X0015505Y0207736D01*
X0015457Y0207777D01*
X0015413Y0207821D01*
X0015371Y0207867D01*
X0015333Y0207917D01*
X0015297Y0207968D01*
X0015265Y0208022D01*
X0015237Y0208077D01*
X0015211Y0208134D01*
X0015190Y0208193D01*
X0015173Y0208253D01*
X0015159Y0208314D01*
X0015149Y0208375D01*
X0015143Y0208438D01*
X0015141Y0208500D01*
X0018266Y0208500D02*
X0018268Y0208562D01*
X0018274Y0208625D01*
X0018284Y0208686D01*
X0018298Y0208747D01*
X0018315Y0208807D01*
X0018336Y0208866D01*
X0018362Y0208923D01*
X0018390Y0208978D01*
X0018422Y0209032D01*
X0018458Y0209083D01*
X0018496Y0209133D01*
X0018538Y0209179D01*
X0018582Y0209223D01*
X0018630Y0209264D01*
X0018679Y0209302D01*
X0018731Y0209336D01*
X0018785Y0209367D01*
X0018841Y0209395D01*
X0018899Y0209419D01*
X0018958Y0209440D01*
X0019018Y0209456D01*
X0019079Y0209469D01*
X0019141Y0209478D01*
X0019203Y0209483D01*
X0019266Y0209484D01*
X0019328Y0209481D01*
X0019390Y0209474D01*
X0019452Y0209463D01*
X0019512Y0209448D01*
X0019572Y0209430D01*
X0019630Y0209408D01*
X0019687Y0209382D01*
X0019742Y0209352D01*
X0019795Y0209319D01*
X0019846Y0209283D01*
X0019894Y0209244D01*
X0019940Y0209201D01*
X0019983Y0209156D01*
X0020023Y0209108D01*
X0020060Y0209058D01*
X0020094Y0209005D01*
X0020125Y0208951D01*
X0020151Y0208895D01*
X0020175Y0208837D01*
X0020194Y0208777D01*
X0020210Y0208717D01*
X0020222Y0208655D01*
X0020230Y0208594D01*
X0020234Y0208531D01*
X0020234Y0208469D01*
X0020230Y0208406D01*
X0020222Y0208345D01*
X0020210Y0208283D01*
X0020194Y0208223D01*
X0020175Y0208163D01*
X0020151Y0208105D01*
X0020125Y0208049D01*
X0020094Y0207995D01*
X0020060Y0207942D01*
X0020023Y0207892D01*
X0019983Y0207844D01*
X0019940Y0207799D01*
X0019894Y0207756D01*
X0019846Y0207717D01*
X0019795Y0207681D01*
X0019742Y0207648D01*
X0019687Y0207618D01*
X0019630Y0207592D01*
X0019572Y0207570D01*
X0019512Y0207552D01*
X0019452Y0207537D01*
X0019390Y0207526D01*
X0019328Y0207519D01*
X0019266Y0207516D01*
X0019203Y0207517D01*
X0019141Y0207522D01*
X0019079Y0207531D01*
X0019018Y0207544D01*
X0018958Y0207560D01*
X0018899Y0207581D01*
X0018841Y0207605D01*
X0018785Y0207633D01*
X0018731Y0207664D01*
X0018679Y0207698D01*
X0018630Y0207736D01*
X0018582Y0207777D01*
X0018538Y0207821D01*
X0018496Y0207867D01*
X0018458Y0207917D01*
X0018422Y0207968D01*
X0018390Y0208022D01*
X0018362Y0208077D01*
X0018336Y0208134D01*
X0018315Y0208193D01*
X0018298Y0208253D01*
X0018284Y0208314D01*
X0018274Y0208375D01*
X0018268Y0208438D01*
X0018266Y0208500D01*
X0018266Y0211625D02*
X0018268Y0211687D01*
X0018274Y0211750D01*
X0018284Y0211811D01*
X0018298Y0211872D01*
X0018315Y0211932D01*
X0018336Y0211991D01*
X0018362Y0212048D01*
X0018390Y0212103D01*
X0018422Y0212157D01*
X0018458Y0212208D01*
X0018496Y0212258D01*
X0018538Y0212304D01*
X0018582Y0212348D01*
X0018630Y0212389D01*
X0018679Y0212427D01*
X0018731Y0212461D01*
X0018785Y0212492D01*
X0018841Y0212520D01*
X0018899Y0212544D01*
X0018958Y0212565D01*
X0019018Y0212581D01*
X0019079Y0212594D01*
X0019141Y0212603D01*
X0019203Y0212608D01*
X0019266Y0212609D01*
X0019328Y0212606D01*
X0019390Y0212599D01*
X0019452Y0212588D01*
X0019512Y0212573D01*
X0019572Y0212555D01*
X0019630Y0212533D01*
X0019687Y0212507D01*
X0019742Y0212477D01*
X0019795Y0212444D01*
X0019846Y0212408D01*
X0019894Y0212369D01*
X0019940Y0212326D01*
X0019983Y0212281D01*
X0020023Y0212233D01*
X0020060Y0212183D01*
X0020094Y0212130D01*
X0020125Y0212076D01*
X0020151Y0212020D01*
X0020175Y0211962D01*
X0020194Y0211902D01*
X0020210Y0211842D01*
X0020222Y0211780D01*
X0020230Y0211719D01*
X0020234Y0211656D01*
X0020234Y0211594D01*
X0020230Y0211531D01*
X0020222Y0211470D01*
X0020210Y0211408D01*
X0020194Y0211348D01*
X0020175Y0211288D01*
X0020151Y0211230D01*
X0020125Y0211174D01*
X0020094Y0211120D01*
X0020060Y0211067D01*
X0020023Y0211017D01*
X0019983Y0210969D01*
X0019940Y0210924D01*
X0019894Y0210881D01*
X0019846Y0210842D01*
X0019795Y0210806D01*
X0019742Y0210773D01*
X0019687Y0210743D01*
X0019630Y0210717D01*
X0019572Y0210695D01*
X0019512Y0210677D01*
X0019452Y0210662D01*
X0019390Y0210651D01*
X0019328Y0210644D01*
X0019266Y0210641D01*
X0019203Y0210642D01*
X0019141Y0210647D01*
X0019079Y0210656D01*
X0019018Y0210669D01*
X0018958Y0210685D01*
X0018899Y0210706D01*
X0018841Y0210730D01*
X0018785Y0210758D01*
X0018731Y0210789D01*
X0018679Y0210823D01*
X0018630Y0210861D01*
X0018582Y0210902D01*
X0018538Y0210946D01*
X0018496Y0210992D01*
X0018458Y0211042D01*
X0018422Y0211093D01*
X0018390Y0211147D01*
X0018362Y0211202D01*
X0018336Y0211259D01*
X0018315Y0211318D01*
X0018298Y0211378D01*
X0018284Y0211439D01*
X0018274Y0211500D01*
X0018268Y0211563D01*
X0018266Y0211625D01*
X0007951Y0226000D02*
X0007953Y0226158D01*
X0007959Y0226316D01*
X0007969Y0226474D01*
X0007983Y0226632D01*
X0008001Y0226789D01*
X0008022Y0226946D01*
X0008048Y0227102D01*
X0008078Y0227258D01*
X0008111Y0227413D01*
X0008149Y0227566D01*
X0008190Y0227719D01*
X0008235Y0227871D01*
X0008284Y0228022D01*
X0008337Y0228171D01*
X0008393Y0228319D01*
X0008453Y0228465D01*
X0008517Y0228610D01*
X0008585Y0228753D01*
X0008656Y0228895D01*
X0008730Y0229035D01*
X0008808Y0229172D01*
X0008890Y0229308D01*
X0008974Y0229442D01*
X0009063Y0229573D01*
X0009154Y0229702D01*
X0009249Y0229829D01*
X0009346Y0229954D01*
X0009447Y0230076D01*
X0009551Y0230195D01*
X0009658Y0230312D01*
X0009768Y0230426D01*
X0009881Y0230537D01*
X0009996Y0230646D01*
X0010114Y0230751D01*
X0010235Y0230853D01*
X0010358Y0230953D01*
X0010484Y0231049D01*
X0010612Y0231142D01*
X0010742Y0231232D01*
X0010875Y0231318D01*
X0011010Y0231402D01*
X0011146Y0231481D01*
X0011285Y0231558D01*
X0011426Y0231630D01*
X0011568Y0231700D01*
X0011712Y0231765D01*
X0011858Y0231827D01*
X0012005Y0231885D01*
X0012154Y0231940D01*
X0012304Y0231991D01*
X0012455Y0232038D01*
X0012607Y0232081D01*
X0012760Y0232120D01*
X0012915Y0232156D01*
X0013070Y0232187D01*
X0013226Y0232215D01*
X0013382Y0232239D01*
X0013539Y0232259D01*
X0013697Y0232275D01*
X0013854Y0232287D01*
X0014013Y0232295D01*
X0014171Y0232299D01*
X0014329Y0232299D01*
X0014487Y0232295D01*
X0014646Y0232287D01*
X0014803Y0232275D01*
X0014961Y0232259D01*
X0015118Y0232239D01*
X0015274Y0232215D01*
X0015430Y0232187D01*
X0015585Y0232156D01*
X0015740Y0232120D01*
X0015893Y0232081D01*
X0016045Y0232038D01*
X0016196Y0231991D01*
X0016346Y0231940D01*
X0016495Y0231885D01*
X0016642Y0231827D01*
X0016788Y0231765D01*
X0016932Y0231700D01*
X0017074Y0231630D01*
X0017215Y0231558D01*
X0017354Y0231481D01*
X0017490Y0231402D01*
X0017625Y0231318D01*
X0017758Y0231232D01*
X0017888Y0231142D01*
X0018016Y0231049D01*
X0018142Y0230953D01*
X0018265Y0230853D01*
X0018386Y0230751D01*
X0018504Y0230646D01*
X0018619Y0230537D01*
X0018732Y0230426D01*
X0018842Y0230312D01*
X0018949Y0230195D01*
X0019053Y0230076D01*
X0019154Y0229954D01*
X0019251Y0229829D01*
X0019346Y0229702D01*
X0019437Y0229573D01*
X0019526Y0229442D01*
X0019610Y0229308D01*
X0019692Y0229172D01*
X0019770Y0229035D01*
X0019844Y0228895D01*
X0019915Y0228753D01*
X0019983Y0228610D01*
X0020047Y0228465D01*
X0020107Y0228319D01*
X0020163Y0228171D01*
X0020216Y0228022D01*
X0020265Y0227871D01*
X0020310Y0227719D01*
X0020351Y0227566D01*
X0020389Y0227413D01*
X0020422Y0227258D01*
X0020452Y0227102D01*
X0020478Y0226946D01*
X0020499Y0226789D01*
X0020517Y0226632D01*
X0020531Y0226474D01*
X0020541Y0226316D01*
X0020547Y0226158D01*
X0020549Y0226000D01*
X0020547Y0225842D01*
X0020541Y0225684D01*
X0020531Y0225526D01*
X0020517Y0225368D01*
X0020499Y0225211D01*
X0020478Y0225054D01*
X0020452Y0224898D01*
X0020422Y0224742D01*
X0020389Y0224587D01*
X0020351Y0224434D01*
X0020310Y0224281D01*
X0020265Y0224129D01*
X0020216Y0223978D01*
X0020163Y0223829D01*
X0020107Y0223681D01*
X0020047Y0223535D01*
X0019983Y0223390D01*
X0019915Y0223247D01*
X0019844Y0223105D01*
X0019770Y0222965D01*
X0019692Y0222828D01*
X0019610Y0222692D01*
X0019526Y0222558D01*
X0019437Y0222427D01*
X0019346Y0222298D01*
X0019251Y0222171D01*
X0019154Y0222046D01*
X0019053Y0221924D01*
X0018949Y0221805D01*
X0018842Y0221688D01*
X0018732Y0221574D01*
X0018619Y0221463D01*
X0018504Y0221354D01*
X0018386Y0221249D01*
X0018265Y0221147D01*
X0018142Y0221047D01*
X0018016Y0220951D01*
X0017888Y0220858D01*
X0017758Y0220768D01*
X0017625Y0220682D01*
X0017490Y0220598D01*
X0017354Y0220519D01*
X0017215Y0220442D01*
X0017074Y0220370D01*
X0016932Y0220300D01*
X0016788Y0220235D01*
X0016642Y0220173D01*
X0016495Y0220115D01*
X0016346Y0220060D01*
X0016196Y0220009D01*
X0016045Y0219962D01*
X0015893Y0219919D01*
X0015740Y0219880D01*
X0015585Y0219844D01*
X0015430Y0219813D01*
X0015274Y0219785D01*
X0015118Y0219761D01*
X0014961Y0219741D01*
X0014803Y0219725D01*
X0014646Y0219713D01*
X0014487Y0219705D01*
X0014329Y0219701D01*
X0014171Y0219701D01*
X0014013Y0219705D01*
X0013854Y0219713D01*
X0013697Y0219725D01*
X0013539Y0219741D01*
X0013382Y0219761D01*
X0013226Y0219785D01*
X0013070Y0219813D01*
X0012915Y0219844D01*
X0012760Y0219880D01*
X0012607Y0219919D01*
X0012455Y0219962D01*
X0012304Y0220009D01*
X0012154Y0220060D01*
X0012005Y0220115D01*
X0011858Y0220173D01*
X0011712Y0220235D01*
X0011568Y0220300D01*
X0011426Y0220370D01*
X0011285Y0220442D01*
X0011146Y0220519D01*
X0011010Y0220598D01*
X0010875Y0220682D01*
X0010742Y0220768D01*
X0010612Y0220858D01*
X0010484Y0220951D01*
X0010358Y0221047D01*
X0010235Y0221147D01*
X0010114Y0221249D01*
X0009996Y0221354D01*
X0009881Y0221463D01*
X0009768Y0221574D01*
X0009658Y0221688D01*
X0009551Y0221805D01*
X0009447Y0221924D01*
X0009346Y0222046D01*
X0009249Y0222171D01*
X0009154Y0222298D01*
X0009063Y0222427D01*
X0008974Y0222558D01*
X0008890Y0222692D01*
X0008808Y0222828D01*
X0008730Y0222965D01*
X0008656Y0223105D01*
X0008585Y0223247D01*
X0008517Y0223390D01*
X0008453Y0223535D01*
X0008393Y0223681D01*
X0008337Y0223829D01*
X0008284Y0223978D01*
X0008235Y0224129D01*
X0008190Y0224281D01*
X0008149Y0224434D01*
X0008111Y0224587D01*
X0008078Y0224742D01*
X0008048Y0224898D01*
X0008022Y0225054D01*
X0008001Y0225211D01*
X0007983Y0225368D01*
X0007969Y0225526D01*
X0007959Y0225684D01*
X0007953Y0225842D01*
X0007951Y0226000D01*
X0064191Y0131748D02*
X0064193Y0131849D01*
X0064199Y0131950D01*
X0064209Y0132051D01*
X0064223Y0132151D01*
X0064241Y0132250D01*
X0064263Y0132349D01*
X0064288Y0132447D01*
X0064318Y0132544D01*
X0064351Y0132639D01*
X0064388Y0132733D01*
X0064429Y0132826D01*
X0064473Y0132917D01*
X0064521Y0133006D01*
X0064573Y0133093D01*
X0064628Y0133178D01*
X0064686Y0133260D01*
X0064747Y0133341D01*
X0064812Y0133419D01*
X0064879Y0133494D01*
X0064949Y0133566D01*
X0065023Y0133636D01*
X0065099Y0133703D01*
X0065177Y0133767D01*
X0065258Y0133827D01*
X0065341Y0133884D01*
X0065427Y0133938D01*
X0065515Y0133989D01*
X0065604Y0134036D01*
X0065695Y0134080D01*
X0065788Y0134119D01*
X0065883Y0134156D01*
X0065978Y0134188D01*
X0066075Y0134217D01*
X0066174Y0134241D01*
X0066272Y0134262D01*
X0066372Y0134279D01*
X0066472Y0134292D01*
X0066573Y0134301D01*
X0066674Y0134306D01*
X0066775Y0134307D01*
X0066876Y0134304D01*
X0066977Y0134297D01*
X0067078Y0134286D01*
X0067178Y0134271D01*
X0067277Y0134252D01*
X0067376Y0134229D01*
X0067473Y0134203D01*
X0067570Y0134172D01*
X0067665Y0134138D01*
X0067758Y0134100D01*
X0067851Y0134058D01*
X0067941Y0134013D01*
X0068030Y0133964D01*
X0068116Y0133912D01*
X0068200Y0133856D01*
X0068283Y0133797D01*
X0068362Y0133735D01*
X0068440Y0133670D01*
X0068514Y0133602D01*
X0068586Y0133530D01*
X0068655Y0133457D01*
X0068721Y0133380D01*
X0068784Y0133301D01*
X0068844Y0133219D01*
X0068900Y0133135D01*
X0068953Y0133049D01*
X0069003Y0132961D01*
X0069049Y0132871D01*
X0069092Y0132780D01*
X0069131Y0132686D01*
X0069166Y0132591D01*
X0069197Y0132495D01*
X0069225Y0132398D01*
X0069249Y0132300D01*
X0069269Y0132201D01*
X0069285Y0132101D01*
X0069297Y0132000D01*
X0069305Y0131900D01*
X0069309Y0131799D01*
X0069309Y0131697D01*
X0069305Y0131596D01*
X0069297Y0131496D01*
X0069285Y0131395D01*
X0069269Y0131295D01*
X0069249Y0131196D01*
X0069225Y0131098D01*
X0069197Y0131001D01*
X0069166Y0130905D01*
X0069131Y0130810D01*
X0069092Y0130716D01*
X0069049Y0130625D01*
X0069003Y0130535D01*
X0068953Y0130447D01*
X0068900Y0130361D01*
X0068844Y0130277D01*
X0068784Y0130195D01*
X0068721Y0130116D01*
X0068655Y0130039D01*
X0068586Y0129966D01*
X0068514Y0129894D01*
X0068440Y0129826D01*
X0068362Y0129761D01*
X0068283Y0129699D01*
X0068200Y0129640D01*
X0068116Y0129584D01*
X0068029Y0129532D01*
X0067941Y0129483D01*
X0067851Y0129438D01*
X0067758Y0129396D01*
X0067665Y0129358D01*
X0067570Y0129324D01*
X0067473Y0129293D01*
X0067376Y0129267D01*
X0067277Y0129244D01*
X0067178Y0129225D01*
X0067078Y0129210D01*
X0066977Y0129199D01*
X0066876Y0129192D01*
X0066775Y0129189D01*
X0066674Y0129190D01*
X0066573Y0129195D01*
X0066472Y0129204D01*
X0066372Y0129217D01*
X0066272Y0129234D01*
X0066174Y0129255D01*
X0066075Y0129279D01*
X0065978Y0129308D01*
X0065883Y0129340D01*
X0065788Y0129377D01*
X0065695Y0129416D01*
X0065604Y0129460D01*
X0065515Y0129507D01*
X0065427Y0129558D01*
X0065341Y0129612D01*
X0065258Y0129669D01*
X0065177Y0129729D01*
X0065099Y0129793D01*
X0065023Y0129860D01*
X0064949Y0129930D01*
X0064879Y0130002D01*
X0064812Y0130077D01*
X0064747Y0130155D01*
X0064686Y0130236D01*
X0064628Y0130318D01*
X0064573Y0130403D01*
X0064521Y0130490D01*
X0064473Y0130579D01*
X0064429Y0130670D01*
X0064388Y0130763D01*
X0064351Y0130857D01*
X0064318Y0130952D01*
X0064288Y0131049D01*
X0064263Y0131147D01*
X0064241Y0131246D01*
X0064223Y0131345D01*
X0064209Y0131445D01*
X0064199Y0131546D01*
X0064193Y0131647D01*
X0064191Y0131748D01*
X0064781Y0102220D02*
X0064783Y0102308D01*
X0064789Y0102396D01*
X0064799Y0102484D01*
X0064813Y0102572D01*
X0064830Y0102658D01*
X0064852Y0102744D01*
X0064877Y0102828D01*
X0064907Y0102912D01*
X0064939Y0102994D01*
X0064976Y0103074D01*
X0065016Y0103153D01*
X0065060Y0103230D01*
X0065107Y0103305D01*
X0065157Y0103377D01*
X0065211Y0103448D01*
X0065267Y0103515D01*
X0065327Y0103581D01*
X0065389Y0103643D01*
X0065455Y0103703D01*
X0065522Y0103759D01*
X0065593Y0103813D01*
X0065665Y0103863D01*
X0065740Y0103910D01*
X0065817Y0103954D01*
X0065896Y0103994D01*
X0065976Y0104031D01*
X0066058Y0104063D01*
X0066142Y0104093D01*
X0066226Y0104118D01*
X0066312Y0104140D01*
X0066398Y0104157D01*
X0066486Y0104171D01*
X0066574Y0104181D01*
X0066662Y0104187D01*
X0066750Y0104189D01*
X0066838Y0104187D01*
X0066926Y0104181D01*
X0067014Y0104171D01*
X0067102Y0104157D01*
X0067188Y0104140D01*
X0067274Y0104118D01*
X0067358Y0104093D01*
X0067442Y0104063D01*
X0067524Y0104031D01*
X0067604Y0103994D01*
X0067683Y0103954D01*
X0067760Y0103910D01*
X0067835Y0103863D01*
X0067907Y0103813D01*
X0067978Y0103759D01*
X0068045Y0103703D01*
X0068111Y0103643D01*
X0068173Y0103581D01*
X0068233Y0103515D01*
X0068289Y0103448D01*
X0068343Y0103377D01*
X0068393Y0103305D01*
X0068440Y0103230D01*
X0068484Y0103153D01*
X0068524Y0103074D01*
X0068561Y0102994D01*
X0068593Y0102912D01*
X0068623Y0102828D01*
X0068648Y0102744D01*
X0068670Y0102658D01*
X0068687Y0102572D01*
X0068701Y0102484D01*
X0068711Y0102396D01*
X0068717Y0102308D01*
X0068719Y0102220D01*
X0068717Y0102132D01*
X0068711Y0102044D01*
X0068701Y0101956D01*
X0068687Y0101868D01*
X0068670Y0101782D01*
X0068648Y0101696D01*
X0068623Y0101612D01*
X0068593Y0101528D01*
X0068561Y0101446D01*
X0068524Y0101366D01*
X0068484Y0101287D01*
X0068440Y0101210D01*
X0068393Y0101135D01*
X0068343Y0101063D01*
X0068289Y0100992D01*
X0068233Y0100925D01*
X0068173Y0100859D01*
X0068111Y0100797D01*
X0068045Y0100737D01*
X0067978Y0100681D01*
X0067907Y0100627D01*
X0067835Y0100577D01*
X0067760Y0100530D01*
X0067683Y0100486D01*
X0067604Y0100446D01*
X0067524Y0100409D01*
X0067442Y0100377D01*
X0067358Y0100347D01*
X0067274Y0100322D01*
X0067188Y0100300D01*
X0067102Y0100283D01*
X0067014Y0100269D01*
X0066926Y0100259D01*
X0066838Y0100253D01*
X0066750Y0100251D01*
X0066662Y0100253D01*
X0066574Y0100259D01*
X0066486Y0100269D01*
X0066398Y0100283D01*
X0066312Y0100300D01*
X0066226Y0100322D01*
X0066142Y0100347D01*
X0066058Y0100377D01*
X0065976Y0100409D01*
X0065896Y0100446D01*
X0065817Y0100486D01*
X0065740Y0100530D01*
X0065665Y0100577D01*
X0065593Y0100627D01*
X0065522Y0100681D01*
X0065455Y0100737D01*
X0065389Y0100797D01*
X0065327Y0100859D01*
X0065267Y0100925D01*
X0065211Y0100992D01*
X0065157Y0101063D01*
X0065107Y0101135D01*
X0065060Y0101210D01*
X0065016Y0101287D01*
X0064976Y0101366D01*
X0064939Y0101446D01*
X0064907Y0101528D01*
X0064877Y0101612D01*
X0064852Y0101696D01*
X0064830Y0101782D01*
X0064813Y0101868D01*
X0064799Y0101956D01*
X0064789Y0102044D01*
X0064783Y0102132D01*
X0064781Y0102220D01*
X0099250Y0178500D02*
X0111750Y0178500D01*
X0111750Y0187875D01*
X0109250Y0187875D01*
X0109250Y0200375D01*
X0099250Y0200375D01*
X0099250Y0178500D01*
X0100141Y0202250D02*
X0100143Y0202312D01*
X0100149Y0202375D01*
X0100159Y0202436D01*
X0100173Y0202497D01*
X0100190Y0202557D01*
X0100211Y0202616D01*
X0100237Y0202673D01*
X0100265Y0202728D01*
X0100297Y0202782D01*
X0100333Y0202833D01*
X0100371Y0202883D01*
X0100413Y0202929D01*
X0100457Y0202973D01*
X0100505Y0203014D01*
X0100554Y0203052D01*
X0100606Y0203086D01*
X0100660Y0203117D01*
X0100716Y0203145D01*
X0100774Y0203169D01*
X0100833Y0203190D01*
X0100893Y0203206D01*
X0100954Y0203219D01*
X0101016Y0203228D01*
X0101078Y0203233D01*
X0101141Y0203234D01*
X0101203Y0203231D01*
X0101265Y0203224D01*
X0101327Y0203213D01*
X0101387Y0203198D01*
X0101447Y0203180D01*
X0101505Y0203158D01*
X0101562Y0203132D01*
X0101617Y0203102D01*
X0101670Y0203069D01*
X0101721Y0203033D01*
X0101769Y0202994D01*
X0101815Y0202951D01*
X0101858Y0202906D01*
X0101898Y0202858D01*
X0101935Y0202808D01*
X0101969Y0202755D01*
X0102000Y0202701D01*
X0102026Y0202645D01*
X0102050Y0202587D01*
X0102069Y0202527D01*
X0102085Y0202467D01*
X0102097Y0202405D01*
X0102105Y0202344D01*
X0102109Y0202281D01*
X0102109Y0202219D01*
X0102105Y0202156D01*
X0102097Y0202095D01*
X0102085Y0202033D01*
X0102069Y0201973D01*
X0102050Y0201913D01*
X0102026Y0201855D01*
X0102000Y0201799D01*
X0101969Y0201745D01*
X0101935Y0201692D01*
X0101898Y0201642D01*
X0101858Y0201594D01*
X0101815Y0201549D01*
X0101769Y0201506D01*
X0101721Y0201467D01*
X0101670Y0201431D01*
X0101617Y0201398D01*
X0101562Y0201368D01*
X0101505Y0201342D01*
X0101447Y0201320D01*
X0101387Y0201302D01*
X0101327Y0201287D01*
X0101265Y0201276D01*
X0101203Y0201269D01*
X0101141Y0201266D01*
X0101078Y0201267D01*
X0101016Y0201272D01*
X0100954Y0201281D01*
X0100893Y0201294D01*
X0100833Y0201310D01*
X0100774Y0201331D01*
X0100716Y0201355D01*
X0100660Y0201383D01*
X0100606Y0201414D01*
X0100554Y0201448D01*
X0100505Y0201486D01*
X0100457Y0201527D01*
X0100413Y0201571D01*
X0100371Y0201617D01*
X0100333Y0201667D01*
X0100297Y0201718D01*
X0100265Y0201772D01*
X0100237Y0201827D01*
X0100211Y0201884D01*
X0100190Y0201943D01*
X0100173Y0202003D01*
X0100159Y0202064D01*
X0100149Y0202125D01*
X0100143Y0202188D01*
X0100141Y0202250D01*
X0100141Y0205375D02*
X0100143Y0205437D01*
X0100149Y0205500D01*
X0100159Y0205561D01*
X0100173Y0205622D01*
X0100190Y0205682D01*
X0100211Y0205741D01*
X0100237Y0205798D01*
X0100265Y0205853D01*
X0100297Y0205907D01*
X0100333Y0205958D01*
X0100371Y0206008D01*
X0100413Y0206054D01*
X0100457Y0206098D01*
X0100505Y0206139D01*
X0100554Y0206177D01*
X0100606Y0206211D01*
X0100660Y0206242D01*
X0100716Y0206270D01*
X0100774Y0206294D01*
X0100833Y0206315D01*
X0100893Y0206331D01*
X0100954Y0206344D01*
X0101016Y0206353D01*
X0101078Y0206358D01*
X0101141Y0206359D01*
X0101203Y0206356D01*
X0101265Y0206349D01*
X0101327Y0206338D01*
X0101387Y0206323D01*
X0101447Y0206305D01*
X0101505Y0206283D01*
X0101562Y0206257D01*
X0101617Y0206227D01*
X0101670Y0206194D01*
X0101721Y0206158D01*
X0101769Y0206119D01*
X0101815Y0206076D01*
X0101858Y0206031D01*
X0101898Y0205983D01*
X0101935Y0205933D01*
X0101969Y0205880D01*
X0102000Y0205826D01*
X0102026Y0205770D01*
X0102050Y0205712D01*
X0102069Y0205652D01*
X0102085Y0205592D01*
X0102097Y0205530D01*
X0102105Y0205469D01*
X0102109Y0205406D01*
X0102109Y0205344D01*
X0102105Y0205281D01*
X0102097Y0205220D01*
X0102085Y0205158D01*
X0102069Y0205098D01*
X0102050Y0205038D01*
X0102026Y0204980D01*
X0102000Y0204924D01*
X0101969Y0204870D01*
X0101935Y0204817D01*
X0101898Y0204767D01*
X0101858Y0204719D01*
X0101815Y0204674D01*
X0101769Y0204631D01*
X0101721Y0204592D01*
X0101670Y0204556D01*
X0101617Y0204523D01*
X0101562Y0204493D01*
X0101505Y0204467D01*
X0101447Y0204445D01*
X0101387Y0204427D01*
X0101327Y0204412D01*
X0101265Y0204401D01*
X0101203Y0204394D01*
X0101141Y0204391D01*
X0101078Y0204392D01*
X0101016Y0204397D01*
X0100954Y0204406D01*
X0100893Y0204419D01*
X0100833Y0204435D01*
X0100774Y0204456D01*
X0100716Y0204480D01*
X0100660Y0204508D01*
X0100606Y0204539D01*
X0100554Y0204573D01*
X0100505Y0204611D01*
X0100457Y0204652D01*
X0100413Y0204696D01*
X0100371Y0204742D01*
X0100333Y0204792D01*
X0100297Y0204843D01*
X0100265Y0204897D01*
X0100237Y0204952D01*
X0100211Y0205009D01*
X0100190Y0205068D01*
X0100173Y0205128D01*
X0100159Y0205189D01*
X0100149Y0205250D01*
X0100143Y0205313D01*
X0100141Y0205375D01*
X0103266Y0205375D02*
X0103268Y0205437D01*
X0103274Y0205500D01*
X0103284Y0205561D01*
X0103298Y0205622D01*
X0103315Y0205682D01*
X0103336Y0205741D01*
X0103362Y0205798D01*
X0103390Y0205853D01*
X0103422Y0205907D01*
X0103458Y0205958D01*
X0103496Y0206008D01*
X0103538Y0206054D01*
X0103582Y0206098D01*
X0103630Y0206139D01*
X0103679Y0206177D01*
X0103731Y0206211D01*
X0103785Y0206242D01*
X0103841Y0206270D01*
X0103899Y0206294D01*
X0103958Y0206315D01*
X0104018Y0206331D01*
X0104079Y0206344D01*
X0104141Y0206353D01*
X0104203Y0206358D01*
X0104266Y0206359D01*
X0104328Y0206356D01*
X0104390Y0206349D01*
X0104452Y0206338D01*
X0104512Y0206323D01*
X0104572Y0206305D01*
X0104630Y0206283D01*
X0104687Y0206257D01*
X0104742Y0206227D01*
X0104795Y0206194D01*
X0104846Y0206158D01*
X0104894Y0206119D01*
X0104940Y0206076D01*
X0104983Y0206031D01*
X0105023Y0205983D01*
X0105060Y0205933D01*
X0105094Y0205880D01*
X0105125Y0205826D01*
X0105151Y0205770D01*
X0105175Y0205712D01*
X0105194Y0205652D01*
X0105210Y0205592D01*
X0105222Y0205530D01*
X0105230Y0205469D01*
X0105234Y0205406D01*
X0105234Y0205344D01*
X0105230Y0205281D01*
X0105222Y0205220D01*
X0105210Y0205158D01*
X0105194Y0205098D01*
X0105175Y0205038D01*
X0105151Y0204980D01*
X0105125Y0204924D01*
X0105094Y0204870D01*
X0105060Y0204817D01*
X0105023Y0204767D01*
X0104983Y0204719D01*
X0104940Y0204674D01*
X0104894Y0204631D01*
X0104846Y0204592D01*
X0104795Y0204556D01*
X0104742Y0204523D01*
X0104687Y0204493D01*
X0104630Y0204467D01*
X0104572Y0204445D01*
X0104512Y0204427D01*
X0104452Y0204412D01*
X0104390Y0204401D01*
X0104328Y0204394D01*
X0104266Y0204391D01*
X0104203Y0204392D01*
X0104141Y0204397D01*
X0104079Y0204406D01*
X0104018Y0204419D01*
X0103958Y0204435D01*
X0103899Y0204456D01*
X0103841Y0204480D01*
X0103785Y0204508D01*
X0103731Y0204539D01*
X0103679Y0204573D01*
X0103630Y0204611D01*
X0103582Y0204652D01*
X0103538Y0204696D01*
X0103496Y0204742D01*
X0103458Y0204792D01*
X0103422Y0204843D01*
X0103390Y0204897D01*
X0103362Y0204952D01*
X0103336Y0205009D01*
X0103315Y0205068D01*
X0103298Y0205128D01*
X0103284Y0205189D01*
X0103274Y0205250D01*
X0103268Y0205313D01*
X0103266Y0205375D01*
X0103266Y0202250D02*
X0103268Y0202312D01*
X0103274Y0202375D01*
X0103284Y0202436D01*
X0103298Y0202497D01*
X0103315Y0202557D01*
X0103336Y0202616D01*
X0103362Y0202673D01*
X0103390Y0202728D01*
X0103422Y0202782D01*
X0103458Y0202833D01*
X0103496Y0202883D01*
X0103538Y0202929D01*
X0103582Y0202973D01*
X0103630Y0203014D01*
X0103679Y0203052D01*
X0103731Y0203086D01*
X0103785Y0203117D01*
X0103841Y0203145D01*
X0103899Y0203169D01*
X0103958Y0203190D01*
X0104018Y0203206D01*
X0104079Y0203219D01*
X0104141Y0203228D01*
X0104203Y0203233D01*
X0104266Y0203234D01*
X0104328Y0203231D01*
X0104390Y0203224D01*
X0104452Y0203213D01*
X0104512Y0203198D01*
X0104572Y0203180D01*
X0104630Y0203158D01*
X0104687Y0203132D01*
X0104742Y0203102D01*
X0104795Y0203069D01*
X0104846Y0203033D01*
X0104894Y0202994D01*
X0104940Y0202951D01*
X0104983Y0202906D01*
X0105023Y0202858D01*
X0105060Y0202808D01*
X0105094Y0202755D01*
X0105125Y0202701D01*
X0105151Y0202645D01*
X0105175Y0202587D01*
X0105194Y0202527D01*
X0105210Y0202467D01*
X0105222Y0202405D01*
X0105230Y0202344D01*
X0105234Y0202281D01*
X0105234Y0202219D01*
X0105230Y0202156D01*
X0105222Y0202095D01*
X0105210Y0202033D01*
X0105194Y0201973D01*
X0105175Y0201913D01*
X0105151Y0201855D01*
X0105125Y0201799D01*
X0105094Y0201745D01*
X0105060Y0201692D01*
X0105023Y0201642D01*
X0104983Y0201594D01*
X0104940Y0201549D01*
X0104894Y0201506D01*
X0104846Y0201467D01*
X0104795Y0201431D01*
X0104742Y0201398D01*
X0104687Y0201368D01*
X0104630Y0201342D01*
X0104572Y0201320D01*
X0104512Y0201302D01*
X0104452Y0201287D01*
X0104390Y0201276D01*
X0104328Y0201269D01*
X0104266Y0201266D01*
X0104203Y0201267D01*
X0104141Y0201272D01*
X0104079Y0201281D01*
X0104018Y0201294D01*
X0103958Y0201310D01*
X0103899Y0201331D01*
X0103841Y0201355D01*
X0103785Y0201383D01*
X0103731Y0201414D01*
X0103679Y0201448D01*
X0103630Y0201486D01*
X0103582Y0201527D01*
X0103538Y0201571D01*
X0103496Y0201617D01*
X0103458Y0201667D01*
X0103422Y0201718D01*
X0103390Y0201772D01*
X0103362Y0201827D01*
X0103336Y0201884D01*
X0103315Y0201943D01*
X0103298Y0202003D01*
X0103284Y0202064D01*
X0103274Y0202125D01*
X0103268Y0202188D01*
X0103266Y0202250D01*
X0106391Y0202250D02*
X0106393Y0202312D01*
X0106399Y0202375D01*
X0106409Y0202436D01*
X0106423Y0202497D01*
X0106440Y0202557D01*
X0106461Y0202616D01*
X0106487Y0202673D01*
X0106515Y0202728D01*
X0106547Y0202782D01*
X0106583Y0202833D01*
X0106621Y0202883D01*
X0106663Y0202929D01*
X0106707Y0202973D01*
X0106755Y0203014D01*
X0106804Y0203052D01*
X0106856Y0203086D01*
X0106910Y0203117D01*
X0106966Y0203145D01*
X0107024Y0203169D01*
X0107083Y0203190D01*
X0107143Y0203206D01*
X0107204Y0203219D01*
X0107266Y0203228D01*
X0107328Y0203233D01*
X0107391Y0203234D01*
X0107453Y0203231D01*
X0107515Y0203224D01*
X0107577Y0203213D01*
X0107637Y0203198D01*
X0107697Y0203180D01*
X0107755Y0203158D01*
X0107812Y0203132D01*
X0107867Y0203102D01*
X0107920Y0203069D01*
X0107971Y0203033D01*
X0108019Y0202994D01*
X0108065Y0202951D01*
X0108108Y0202906D01*
X0108148Y0202858D01*
X0108185Y0202808D01*
X0108219Y0202755D01*
X0108250Y0202701D01*
X0108276Y0202645D01*
X0108300Y0202587D01*
X0108319Y0202527D01*
X0108335Y0202467D01*
X0108347Y0202405D01*
X0108355Y0202344D01*
X0108359Y0202281D01*
X0108359Y0202219D01*
X0108355Y0202156D01*
X0108347Y0202095D01*
X0108335Y0202033D01*
X0108319Y0201973D01*
X0108300Y0201913D01*
X0108276Y0201855D01*
X0108250Y0201799D01*
X0108219Y0201745D01*
X0108185Y0201692D01*
X0108148Y0201642D01*
X0108108Y0201594D01*
X0108065Y0201549D01*
X0108019Y0201506D01*
X0107971Y0201467D01*
X0107920Y0201431D01*
X0107867Y0201398D01*
X0107812Y0201368D01*
X0107755Y0201342D01*
X0107697Y0201320D01*
X0107637Y0201302D01*
X0107577Y0201287D01*
X0107515Y0201276D01*
X0107453Y0201269D01*
X0107391Y0201266D01*
X0107328Y0201267D01*
X0107266Y0201272D01*
X0107204Y0201281D01*
X0107143Y0201294D01*
X0107083Y0201310D01*
X0107024Y0201331D01*
X0106966Y0201355D01*
X0106910Y0201383D01*
X0106856Y0201414D01*
X0106804Y0201448D01*
X0106755Y0201486D01*
X0106707Y0201527D01*
X0106663Y0201571D01*
X0106621Y0201617D01*
X0106583Y0201667D01*
X0106547Y0201718D01*
X0106515Y0201772D01*
X0106487Y0201827D01*
X0106461Y0201884D01*
X0106440Y0201943D01*
X0106423Y0202003D01*
X0106409Y0202064D01*
X0106399Y0202125D01*
X0106393Y0202188D01*
X0106391Y0202250D01*
X0106391Y0205375D02*
X0106393Y0205437D01*
X0106399Y0205500D01*
X0106409Y0205561D01*
X0106423Y0205622D01*
X0106440Y0205682D01*
X0106461Y0205741D01*
X0106487Y0205798D01*
X0106515Y0205853D01*
X0106547Y0205907D01*
X0106583Y0205958D01*
X0106621Y0206008D01*
X0106663Y0206054D01*
X0106707Y0206098D01*
X0106755Y0206139D01*
X0106804Y0206177D01*
X0106856Y0206211D01*
X0106910Y0206242D01*
X0106966Y0206270D01*
X0107024Y0206294D01*
X0107083Y0206315D01*
X0107143Y0206331D01*
X0107204Y0206344D01*
X0107266Y0206353D01*
X0107328Y0206358D01*
X0107391Y0206359D01*
X0107453Y0206356D01*
X0107515Y0206349D01*
X0107577Y0206338D01*
X0107637Y0206323D01*
X0107697Y0206305D01*
X0107755Y0206283D01*
X0107812Y0206257D01*
X0107867Y0206227D01*
X0107920Y0206194D01*
X0107971Y0206158D01*
X0108019Y0206119D01*
X0108065Y0206076D01*
X0108108Y0206031D01*
X0108148Y0205983D01*
X0108185Y0205933D01*
X0108219Y0205880D01*
X0108250Y0205826D01*
X0108276Y0205770D01*
X0108300Y0205712D01*
X0108319Y0205652D01*
X0108335Y0205592D01*
X0108347Y0205530D01*
X0108355Y0205469D01*
X0108359Y0205406D01*
X0108359Y0205344D01*
X0108355Y0205281D01*
X0108347Y0205220D01*
X0108335Y0205158D01*
X0108319Y0205098D01*
X0108300Y0205038D01*
X0108276Y0204980D01*
X0108250Y0204924D01*
X0108219Y0204870D01*
X0108185Y0204817D01*
X0108148Y0204767D01*
X0108108Y0204719D01*
X0108065Y0204674D01*
X0108019Y0204631D01*
X0107971Y0204592D01*
X0107920Y0204556D01*
X0107867Y0204523D01*
X0107812Y0204493D01*
X0107755Y0204467D01*
X0107697Y0204445D01*
X0107637Y0204427D01*
X0107577Y0204412D01*
X0107515Y0204401D01*
X0107453Y0204394D01*
X0107391Y0204391D01*
X0107328Y0204392D01*
X0107266Y0204397D01*
X0107204Y0204406D01*
X0107143Y0204419D01*
X0107083Y0204435D01*
X0107024Y0204456D01*
X0106966Y0204480D01*
X0106910Y0204508D01*
X0106856Y0204539D01*
X0106804Y0204573D01*
X0106755Y0204611D01*
X0106707Y0204652D01*
X0106663Y0204696D01*
X0106621Y0204742D01*
X0106583Y0204792D01*
X0106547Y0204843D01*
X0106515Y0204897D01*
X0106487Y0204952D01*
X0106461Y0205009D01*
X0106440Y0205068D01*
X0106423Y0205128D01*
X0106409Y0205189D01*
X0106399Y0205250D01*
X0106393Y0205313D01*
X0106391Y0205375D01*
X0124250Y0187875D02*
X0126750Y0187875D01*
X0126750Y0200375D01*
X0136750Y0200375D01*
X0136750Y0178500D01*
X0124250Y0178500D01*
X0124250Y0187875D01*
X0127641Y0202250D02*
X0127643Y0202312D01*
X0127649Y0202375D01*
X0127659Y0202436D01*
X0127673Y0202497D01*
X0127690Y0202557D01*
X0127711Y0202616D01*
X0127737Y0202673D01*
X0127765Y0202728D01*
X0127797Y0202782D01*
X0127833Y0202833D01*
X0127871Y0202883D01*
X0127913Y0202929D01*
X0127957Y0202973D01*
X0128005Y0203014D01*
X0128054Y0203052D01*
X0128106Y0203086D01*
X0128160Y0203117D01*
X0128216Y0203145D01*
X0128274Y0203169D01*
X0128333Y0203190D01*
X0128393Y0203206D01*
X0128454Y0203219D01*
X0128516Y0203228D01*
X0128578Y0203233D01*
X0128641Y0203234D01*
X0128703Y0203231D01*
X0128765Y0203224D01*
X0128827Y0203213D01*
X0128887Y0203198D01*
X0128947Y0203180D01*
X0129005Y0203158D01*
X0129062Y0203132D01*
X0129117Y0203102D01*
X0129170Y0203069D01*
X0129221Y0203033D01*
X0129269Y0202994D01*
X0129315Y0202951D01*
X0129358Y0202906D01*
X0129398Y0202858D01*
X0129435Y0202808D01*
X0129469Y0202755D01*
X0129500Y0202701D01*
X0129526Y0202645D01*
X0129550Y0202587D01*
X0129569Y0202527D01*
X0129585Y0202467D01*
X0129597Y0202405D01*
X0129605Y0202344D01*
X0129609Y0202281D01*
X0129609Y0202219D01*
X0129605Y0202156D01*
X0129597Y0202095D01*
X0129585Y0202033D01*
X0129569Y0201973D01*
X0129550Y0201913D01*
X0129526Y0201855D01*
X0129500Y0201799D01*
X0129469Y0201745D01*
X0129435Y0201692D01*
X0129398Y0201642D01*
X0129358Y0201594D01*
X0129315Y0201549D01*
X0129269Y0201506D01*
X0129221Y0201467D01*
X0129170Y0201431D01*
X0129117Y0201398D01*
X0129062Y0201368D01*
X0129005Y0201342D01*
X0128947Y0201320D01*
X0128887Y0201302D01*
X0128827Y0201287D01*
X0128765Y0201276D01*
X0128703Y0201269D01*
X0128641Y0201266D01*
X0128578Y0201267D01*
X0128516Y0201272D01*
X0128454Y0201281D01*
X0128393Y0201294D01*
X0128333Y0201310D01*
X0128274Y0201331D01*
X0128216Y0201355D01*
X0128160Y0201383D01*
X0128106Y0201414D01*
X0128054Y0201448D01*
X0128005Y0201486D01*
X0127957Y0201527D01*
X0127913Y0201571D01*
X0127871Y0201617D01*
X0127833Y0201667D01*
X0127797Y0201718D01*
X0127765Y0201772D01*
X0127737Y0201827D01*
X0127711Y0201884D01*
X0127690Y0201943D01*
X0127673Y0202003D01*
X0127659Y0202064D01*
X0127649Y0202125D01*
X0127643Y0202188D01*
X0127641Y0202250D01*
X0127641Y0205375D02*
X0127643Y0205437D01*
X0127649Y0205500D01*
X0127659Y0205561D01*
X0127673Y0205622D01*
X0127690Y0205682D01*
X0127711Y0205741D01*
X0127737Y0205798D01*
X0127765Y0205853D01*
X0127797Y0205907D01*
X0127833Y0205958D01*
X0127871Y0206008D01*
X0127913Y0206054D01*
X0127957Y0206098D01*
X0128005Y0206139D01*
X0128054Y0206177D01*
X0128106Y0206211D01*
X0128160Y0206242D01*
X0128216Y0206270D01*
X0128274Y0206294D01*
X0128333Y0206315D01*
X0128393Y0206331D01*
X0128454Y0206344D01*
X0128516Y0206353D01*
X0128578Y0206358D01*
X0128641Y0206359D01*
X0128703Y0206356D01*
X0128765Y0206349D01*
X0128827Y0206338D01*
X0128887Y0206323D01*
X0128947Y0206305D01*
X0129005Y0206283D01*
X0129062Y0206257D01*
X0129117Y0206227D01*
X0129170Y0206194D01*
X0129221Y0206158D01*
X0129269Y0206119D01*
X0129315Y0206076D01*
X0129358Y0206031D01*
X0129398Y0205983D01*
X0129435Y0205933D01*
X0129469Y0205880D01*
X0129500Y0205826D01*
X0129526Y0205770D01*
X0129550Y0205712D01*
X0129569Y0205652D01*
X0129585Y0205592D01*
X0129597Y0205530D01*
X0129605Y0205469D01*
X0129609Y0205406D01*
X0129609Y0205344D01*
X0129605Y0205281D01*
X0129597Y0205220D01*
X0129585Y0205158D01*
X0129569Y0205098D01*
X0129550Y0205038D01*
X0129526Y0204980D01*
X0129500Y0204924D01*
X0129469Y0204870D01*
X0129435Y0204817D01*
X0129398Y0204767D01*
X0129358Y0204719D01*
X0129315Y0204674D01*
X0129269Y0204631D01*
X0129221Y0204592D01*
X0129170Y0204556D01*
X0129117Y0204523D01*
X0129062Y0204493D01*
X0129005Y0204467D01*
X0128947Y0204445D01*
X0128887Y0204427D01*
X0128827Y0204412D01*
X0128765Y0204401D01*
X0128703Y0204394D01*
X0128641Y0204391D01*
X0128578Y0204392D01*
X0128516Y0204397D01*
X0128454Y0204406D01*
X0128393Y0204419D01*
X0128333Y0204435D01*
X0128274Y0204456D01*
X0128216Y0204480D01*
X0128160Y0204508D01*
X0128106Y0204539D01*
X0128054Y0204573D01*
X0128005Y0204611D01*
X0127957Y0204652D01*
X0127913Y0204696D01*
X0127871Y0204742D01*
X0127833Y0204792D01*
X0127797Y0204843D01*
X0127765Y0204897D01*
X0127737Y0204952D01*
X0127711Y0205009D01*
X0127690Y0205068D01*
X0127673Y0205128D01*
X0127659Y0205189D01*
X0127649Y0205250D01*
X0127643Y0205313D01*
X0127641Y0205375D01*
X0130766Y0205375D02*
X0130768Y0205437D01*
X0130774Y0205500D01*
X0130784Y0205561D01*
X0130798Y0205622D01*
X0130815Y0205682D01*
X0130836Y0205741D01*
X0130862Y0205798D01*
X0130890Y0205853D01*
X0130922Y0205907D01*
X0130958Y0205958D01*
X0130996Y0206008D01*
X0131038Y0206054D01*
X0131082Y0206098D01*
X0131130Y0206139D01*
X0131179Y0206177D01*
X0131231Y0206211D01*
X0131285Y0206242D01*
X0131341Y0206270D01*
X0131399Y0206294D01*
X0131458Y0206315D01*
X0131518Y0206331D01*
X0131579Y0206344D01*
X0131641Y0206353D01*
X0131703Y0206358D01*
X0131766Y0206359D01*
X0131828Y0206356D01*
X0131890Y0206349D01*
X0131952Y0206338D01*
X0132012Y0206323D01*
X0132072Y0206305D01*
X0132130Y0206283D01*
X0132187Y0206257D01*
X0132242Y0206227D01*
X0132295Y0206194D01*
X0132346Y0206158D01*
X0132394Y0206119D01*
X0132440Y0206076D01*
X0132483Y0206031D01*
X0132523Y0205983D01*
X0132560Y0205933D01*
X0132594Y0205880D01*
X0132625Y0205826D01*
X0132651Y0205770D01*
X0132675Y0205712D01*
X0132694Y0205652D01*
X0132710Y0205592D01*
X0132722Y0205530D01*
X0132730Y0205469D01*
X0132734Y0205406D01*
X0132734Y0205344D01*
X0132730Y0205281D01*
X0132722Y0205220D01*
X0132710Y0205158D01*
X0132694Y0205098D01*
X0132675Y0205038D01*
X0132651Y0204980D01*
X0132625Y0204924D01*
X0132594Y0204870D01*
X0132560Y0204817D01*
X0132523Y0204767D01*
X0132483Y0204719D01*
X0132440Y0204674D01*
X0132394Y0204631D01*
X0132346Y0204592D01*
X0132295Y0204556D01*
X0132242Y0204523D01*
X0132187Y0204493D01*
X0132130Y0204467D01*
X0132072Y0204445D01*
X0132012Y0204427D01*
X0131952Y0204412D01*
X0131890Y0204401D01*
X0131828Y0204394D01*
X0131766Y0204391D01*
X0131703Y0204392D01*
X0131641Y0204397D01*
X0131579Y0204406D01*
X0131518Y0204419D01*
X0131458Y0204435D01*
X0131399Y0204456D01*
X0131341Y0204480D01*
X0131285Y0204508D01*
X0131231Y0204539D01*
X0131179Y0204573D01*
X0131130Y0204611D01*
X0131082Y0204652D01*
X0131038Y0204696D01*
X0130996Y0204742D01*
X0130958Y0204792D01*
X0130922Y0204843D01*
X0130890Y0204897D01*
X0130862Y0204952D01*
X0130836Y0205009D01*
X0130815Y0205068D01*
X0130798Y0205128D01*
X0130784Y0205189D01*
X0130774Y0205250D01*
X0130768Y0205313D01*
X0130766Y0205375D01*
X0130766Y0202250D02*
X0130768Y0202312D01*
X0130774Y0202375D01*
X0130784Y0202436D01*
X0130798Y0202497D01*
X0130815Y0202557D01*
X0130836Y0202616D01*
X0130862Y0202673D01*
X0130890Y0202728D01*
X0130922Y0202782D01*
X0130958Y0202833D01*
X0130996Y0202883D01*
X0131038Y0202929D01*
X0131082Y0202973D01*
X0131130Y0203014D01*
X0131179Y0203052D01*
X0131231Y0203086D01*
X0131285Y0203117D01*
X0131341Y0203145D01*
X0131399Y0203169D01*
X0131458Y0203190D01*
X0131518Y0203206D01*
X0131579Y0203219D01*
X0131641Y0203228D01*
X0131703Y0203233D01*
X0131766Y0203234D01*
X0131828Y0203231D01*
X0131890Y0203224D01*
X0131952Y0203213D01*
X0132012Y0203198D01*
X0132072Y0203180D01*
X0132130Y0203158D01*
X0132187Y0203132D01*
X0132242Y0203102D01*
X0132295Y0203069D01*
X0132346Y0203033D01*
X0132394Y0202994D01*
X0132440Y0202951D01*
X0132483Y0202906D01*
X0132523Y0202858D01*
X0132560Y0202808D01*
X0132594Y0202755D01*
X0132625Y0202701D01*
X0132651Y0202645D01*
X0132675Y0202587D01*
X0132694Y0202527D01*
X0132710Y0202467D01*
X0132722Y0202405D01*
X0132730Y0202344D01*
X0132734Y0202281D01*
X0132734Y0202219D01*
X0132730Y0202156D01*
X0132722Y0202095D01*
X0132710Y0202033D01*
X0132694Y0201973D01*
X0132675Y0201913D01*
X0132651Y0201855D01*
X0132625Y0201799D01*
X0132594Y0201745D01*
X0132560Y0201692D01*
X0132523Y0201642D01*
X0132483Y0201594D01*
X0132440Y0201549D01*
X0132394Y0201506D01*
X0132346Y0201467D01*
X0132295Y0201431D01*
X0132242Y0201398D01*
X0132187Y0201368D01*
X0132130Y0201342D01*
X0132072Y0201320D01*
X0132012Y0201302D01*
X0131952Y0201287D01*
X0131890Y0201276D01*
X0131828Y0201269D01*
X0131766Y0201266D01*
X0131703Y0201267D01*
X0131641Y0201272D01*
X0131579Y0201281D01*
X0131518Y0201294D01*
X0131458Y0201310D01*
X0131399Y0201331D01*
X0131341Y0201355D01*
X0131285Y0201383D01*
X0131231Y0201414D01*
X0131179Y0201448D01*
X0131130Y0201486D01*
X0131082Y0201527D01*
X0131038Y0201571D01*
X0130996Y0201617D01*
X0130958Y0201667D01*
X0130922Y0201718D01*
X0130890Y0201772D01*
X0130862Y0201827D01*
X0130836Y0201884D01*
X0130815Y0201943D01*
X0130798Y0202003D01*
X0130784Y0202064D01*
X0130774Y0202125D01*
X0130768Y0202188D01*
X0130766Y0202250D01*
X0133891Y0202250D02*
X0133893Y0202312D01*
X0133899Y0202375D01*
X0133909Y0202436D01*
X0133923Y0202497D01*
X0133940Y0202557D01*
X0133961Y0202616D01*
X0133987Y0202673D01*
X0134015Y0202728D01*
X0134047Y0202782D01*
X0134083Y0202833D01*
X0134121Y0202883D01*
X0134163Y0202929D01*
X0134207Y0202973D01*
X0134255Y0203014D01*
X0134304Y0203052D01*
X0134356Y0203086D01*
X0134410Y0203117D01*
X0134466Y0203145D01*
X0134524Y0203169D01*
X0134583Y0203190D01*
X0134643Y0203206D01*
X0134704Y0203219D01*
X0134766Y0203228D01*
X0134828Y0203233D01*
X0134891Y0203234D01*
X0134953Y0203231D01*
X0135015Y0203224D01*
X0135077Y0203213D01*
X0135137Y0203198D01*
X0135197Y0203180D01*
X0135255Y0203158D01*
X0135312Y0203132D01*
X0135367Y0203102D01*
X0135420Y0203069D01*
X0135471Y0203033D01*
X0135519Y0202994D01*
X0135565Y0202951D01*
X0135608Y0202906D01*
X0135648Y0202858D01*
X0135685Y0202808D01*
X0135719Y0202755D01*
X0135750Y0202701D01*
X0135776Y0202645D01*
X0135800Y0202587D01*
X0135819Y0202527D01*
X0135835Y0202467D01*
X0135847Y0202405D01*
X0135855Y0202344D01*
X0135859Y0202281D01*
X0135859Y0202219D01*
X0135855Y0202156D01*
X0135847Y0202095D01*
X0135835Y0202033D01*
X0135819Y0201973D01*
X0135800Y0201913D01*
X0135776Y0201855D01*
X0135750Y0201799D01*
X0135719Y0201745D01*
X0135685Y0201692D01*
X0135648Y0201642D01*
X0135608Y0201594D01*
X0135565Y0201549D01*
X0135519Y0201506D01*
X0135471Y0201467D01*
X0135420Y0201431D01*
X0135367Y0201398D01*
X0135312Y0201368D01*
X0135255Y0201342D01*
X0135197Y0201320D01*
X0135137Y0201302D01*
X0135077Y0201287D01*
X0135015Y0201276D01*
X0134953Y0201269D01*
X0134891Y0201266D01*
X0134828Y0201267D01*
X0134766Y0201272D01*
X0134704Y0201281D01*
X0134643Y0201294D01*
X0134583Y0201310D01*
X0134524Y0201331D01*
X0134466Y0201355D01*
X0134410Y0201383D01*
X0134356Y0201414D01*
X0134304Y0201448D01*
X0134255Y0201486D01*
X0134207Y0201527D01*
X0134163Y0201571D01*
X0134121Y0201617D01*
X0134083Y0201667D01*
X0134047Y0201718D01*
X0134015Y0201772D01*
X0133987Y0201827D01*
X0133961Y0201884D01*
X0133940Y0201943D01*
X0133923Y0202003D01*
X0133909Y0202064D01*
X0133899Y0202125D01*
X0133893Y0202188D01*
X0133891Y0202250D01*
X0133891Y0205375D02*
X0133893Y0205437D01*
X0133899Y0205500D01*
X0133909Y0205561D01*
X0133923Y0205622D01*
X0133940Y0205682D01*
X0133961Y0205741D01*
X0133987Y0205798D01*
X0134015Y0205853D01*
X0134047Y0205907D01*
X0134083Y0205958D01*
X0134121Y0206008D01*
X0134163Y0206054D01*
X0134207Y0206098D01*
X0134255Y0206139D01*
X0134304Y0206177D01*
X0134356Y0206211D01*
X0134410Y0206242D01*
X0134466Y0206270D01*
X0134524Y0206294D01*
X0134583Y0206315D01*
X0134643Y0206331D01*
X0134704Y0206344D01*
X0134766Y0206353D01*
X0134828Y0206358D01*
X0134891Y0206359D01*
X0134953Y0206356D01*
X0135015Y0206349D01*
X0135077Y0206338D01*
X0135137Y0206323D01*
X0135197Y0206305D01*
X0135255Y0206283D01*
X0135312Y0206257D01*
X0135367Y0206227D01*
X0135420Y0206194D01*
X0135471Y0206158D01*
X0135519Y0206119D01*
X0135565Y0206076D01*
X0135608Y0206031D01*
X0135648Y0205983D01*
X0135685Y0205933D01*
X0135719Y0205880D01*
X0135750Y0205826D01*
X0135776Y0205770D01*
X0135800Y0205712D01*
X0135819Y0205652D01*
X0135835Y0205592D01*
X0135847Y0205530D01*
X0135855Y0205469D01*
X0135859Y0205406D01*
X0135859Y0205344D01*
X0135855Y0205281D01*
X0135847Y0205220D01*
X0135835Y0205158D01*
X0135819Y0205098D01*
X0135800Y0205038D01*
X0135776Y0204980D01*
X0135750Y0204924D01*
X0135719Y0204870D01*
X0135685Y0204817D01*
X0135648Y0204767D01*
X0135608Y0204719D01*
X0135565Y0204674D01*
X0135519Y0204631D01*
X0135471Y0204592D01*
X0135420Y0204556D01*
X0135367Y0204523D01*
X0135312Y0204493D01*
X0135255Y0204467D01*
X0135197Y0204445D01*
X0135137Y0204427D01*
X0135077Y0204412D01*
X0135015Y0204401D01*
X0134953Y0204394D01*
X0134891Y0204391D01*
X0134828Y0204392D01*
X0134766Y0204397D01*
X0134704Y0204406D01*
X0134643Y0204419D01*
X0134583Y0204435D01*
X0134524Y0204456D01*
X0134466Y0204480D01*
X0134410Y0204508D01*
X0134356Y0204539D01*
X0134304Y0204573D01*
X0134255Y0204611D01*
X0134207Y0204652D01*
X0134163Y0204696D01*
X0134121Y0204742D01*
X0134083Y0204792D01*
X0134047Y0204843D01*
X0134015Y0204897D01*
X0133987Y0204952D01*
X0133961Y0205009D01*
X0133940Y0205068D01*
X0133923Y0205128D01*
X0133909Y0205189D01*
X0133899Y0205250D01*
X0133893Y0205313D01*
X0133891Y0205375D01*
X0145175Y0191000D02*
X0145177Y0191079D01*
X0145183Y0191158D01*
X0145193Y0191237D01*
X0145207Y0191315D01*
X0145224Y0191392D01*
X0145246Y0191468D01*
X0145271Y0191543D01*
X0145301Y0191616D01*
X0145333Y0191688D01*
X0145370Y0191759D01*
X0145410Y0191827D01*
X0145453Y0191893D01*
X0145499Y0191957D01*
X0145549Y0192019D01*
X0145602Y0192078D01*
X0145657Y0192134D01*
X0145716Y0192188D01*
X0145777Y0192238D01*
X0145840Y0192286D01*
X0145906Y0192330D01*
X0145974Y0192371D01*
X0146044Y0192408D01*
X0146115Y0192442D01*
X0146189Y0192472D01*
X0146263Y0192498D01*
X0146339Y0192520D01*
X0146416Y0192539D01*
X0146494Y0192554D01*
X0146572Y0192565D01*
X0146651Y0192572D01*
X0146730Y0192575D01*
X0146809Y0192574D01*
X0146888Y0192569D01*
X0146967Y0192560D01*
X0147045Y0192547D01*
X0147122Y0192530D01*
X0147199Y0192510D01*
X0147274Y0192485D01*
X0147348Y0192457D01*
X0147421Y0192425D01*
X0147491Y0192390D01*
X0147560Y0192351D01*
X0147627Y0192308D01*
X0147692Y0192262D01*
X0147754Y0192214D01*
X0147814Y0192162D01*
X0147871Y0192107D01*
X0147925Y0192049D01*
X0147976Y0191989D01*
X0148024Y0191926D01*
X0148069Y0191861D01*
X0148111Y0191793D01*
X0148149Y0191724D01*
X0148183Y0191653D01*
X0148214Y0191580D01*
X0148242Y0191505D01*
X0148265Y0191430D01*
X0148285Y0191353D01*
X0148301Y0191276D01*
X0148313Y0191197D01*
X0148321Y0191119D01*
X0148325Y0191040D01*
X0148325Y0190960D01*
X0148321Y0190881D01*
X0148313Y0190803D01*
X0148301Y0190724D01*
X0148285Y0190647D01*
X0148265Y0190570D01*
X0148242Y0190495D01*
X0148214Y0190420D01*
X0148183Y0190347D01*
X0148149Y0190276D01*
X0148111Y0190207D01*
X0148069Y0190139D01*
X0148024Y0190074D01*
X0147976Y0190011D01*
X0147925Y0189951D01*
X0147871Y0189893D01*
X0147814Y0189838D01*
X0147754Y0189786D01*
X0147692Y0189738D01*
X0147627Y0189692D01*
X0147560Y0189649D01*
X0147491Y0189610D01*
X0147421Y0189575D01*
X0147348Y0189543D01*
X0147274Y0189515D01*
X0147199Y0189490D01*
X0147122Y0189470D01*
X0147045Y0189453D01*
X0146967Y0189440D01*
X0146888Y0189431D01*
X0146809Y0189426D01*
X0146730Y0189425D01*
X0146651Y0189428D01*
X0146572Y0189435D01*
X0146494Y0189446D01*
X0146416Y0189461D01*
X0146339Y0189480D01*
X0146263Y0189502D01*
X0146189Y0189528D01*
X0146115Y0189558D01*
X0146044Y0189592D01*
X0145974Y0189629D01*
X0145906Y0189670D01*
X0145840Y0189714D01*
X0145777Y0189762D01*
X0145716Y0189812D01*
X0145657Y0189866D01*
X0145602Y0189922D01*
X0145549Y0189981D01*
X0145499Y0190043D01*
X0145453Y0190107D01*
X0145410Y0190173D01*
X0145370Y0190241D01*
X0145333Y0190312D01*
X0145301Y0190384D01*
X0145271Y0190457D01*
X0145246Y0190532D01*
X0145224Y0190608D01*
X0145207Y0190685D01*
X0145193Y0190763D01*
X0145183Y0190842D01*
X0145177Y0190921D01*
X0145175Y0191000D01*
X0152951Y0191000D02*
X0152953Y0191158D01*
X0152959Y0191316D01*
X0152969Y0191474D01*
X0152983Y0191632D01*
X0153001Y0191789D01*
X0153022Y0191946D01*
X0153048Y0192102D01*
X0153078Y0192258D01*
X0153111Y0192413D01*
X0153149Y0192566D01*
X0153190Y0192719D01*
X0153235Y0192871D01*
X0153284Y0193022D01*
X0153337Y0193171D01*
X0153393Y0193319D01*
X0153453Y0193465D01*
X0153517Y0193610D01*
X0153585Y0193753D01*
X0153656Y0193895D01*
X0153730Y0194035D01*
X0153808Y0194172D01*
X0153890Y0194308D01*
X0153974Y0194442D01*
X0154063Y0194573D01*
X0154154Y0194702D01*
X0154249Y0194829D01*
X0154346Y0194954D01*
X0154447Y0195076D01*
X0154551Y0195195D01*
X0154658Y0195312D01*
X0154768Y0195426D01*
X0154881Y0195537D01*
X0154996Y0195646D01*
X0155114Y0195751D01*
X0155235Y0195853D01*
X0155358Y0195953D01*
X0155484Y0196049D01*
X0155612Y0196142D01*
X0155742Y0196232D01*
X0155875Y0196318D01*
X0156010Y0196402D01*
X0156146Y0196481D01*
X0156285Y0196558D01*
X0156426Y0196630D01*
X0156568Y0196700D01*
X0156712Y0196765D01*
X0156858Y0196827D01*
X0157005Y0196885D01*
X0157154Y0196940D01*
X0157304Y0196991D01*
X0157455Y0197038D01*
X0157607Y0197081D01*
X0157760Y0197120D01*
X0157915Y0197156D01*
X0158070Y0197187D01*
X0158226Y0197215D01*
X0158382Y0197239D01*
X0158539Y0197259D01*
X0158697Y0197275D01*
X0158854Y0197287D01*
X0159013Y0197295D01*
X0159171Y0197299D01*
X0159329Y0197299D01*
X0159487Y0197295D01*
X0159646Y0197287D01*
X0159803Y0197275D01*
X0159961Y0197259D01*
X0160118Y0197239D01*
X0160274Y0197215D01*
X0160430Y0197187D01*
X0160585Y0197156D01*
X0160740Y0197120D01*
X0160893Y0197081D01*
X0161045Y0197038D01*
X0161196Y0196991D01*
X0161346Y0196940D01*
X0161495Y0196885D01*
X0161642Y0196827D01*
X0161788Y0196765D01*
X0161932Y0196700D01*
X0162074Y0196630D01*
X0162215Y0196558D01*
X0162354Y0196481D01*
X0162490Y0196402D01*
X0162625Y0196318D01*
X0162758Y0196232D01*
X0162888Y0196142D01*
X0163016Y0196049D01*
X0163142Y0195953D01*
X0163265Y0195853D01*
X0163386Y0195751D01*
X0163504Y0195646D01*
X0163619Y0195537D01*
X0163732Y0195426D01*
X0163842Y0195312D01*
X0163949Y0195195D01*
X0164053Y0195076D01*
X0164154Y0194954D01*
X0164251Y0194829D01*
X0164346Y0194702D01*
X0164437Y0194573D01*
X0164526Y0194442D01*
X0164610Y0194308D01*
X0164692Y0194172D01*
X0164770Y0194035D01*
X0164844Y0193895D01*
X0164915Y0193753D01*
X0164983Y0193610D01*
X0165047Y0193465D01*
X0165107Y0193319D01*
X0165163Y0193171D01*
X0165216Y0193022D01*
X0165265Y0192871D01*
X0165310Y0192719D01*
X0165351Y0192566D01*
X0165389Y0192413D01*
X0165422Y0192258D01*
X0165452Y0192102D01*
X0165478Y0191946D01*
X0165499Y0191789D01*
X0165517Y0191632D01*
X0165531Y0191474D01*
X0165541Y0191316D01*
X0165547Y0191158D01*
X0165549Y0191000D01*
X0165547Y0190842D01*
X0165541Y0190684D01*
X0165531Y0190526D01*
X0165517Y0190368D01*
X0165499Y0190211D01*
X0165478Y0190054D01*
X0165452Y0189898D01*
X0165422Y0189742D01*
X0165389Y0189587D01*
X0165351Y0189434D01*
X0165310Y0189281D01*
X0165265Y0189129D01*
X0165216Y0188978D01*
X0165163Y0188829D01*
X0165107Y0188681D01*
X0165047Y0188535D01*
X0164983Y0188390D01*
X0164915Y0188247D01*
X0164844Y0188105D01*
X0164770Y0187965D01*
X0164692Y0187828D01*
X0164610Y0187692D01*
X0164526Y0187558D01*
X0164437Y0187427D01*
X0164346Y0187298D01*
X0164251Y0187171D01*
X0164154Y0187046D01*
X0164053Y0186924D01*
X0163949Y0186805D01*
X0163842Y0186688D01*
X0163732Y0186574D01*
X0163619Y0186463D01*
X0163504Y0186354D01*
X0163386Y0186249D01*
X0163265Y0186147D01*
X0163142Y0186047D01*
X0163016Y0185951D01*
X0162888Y0185858D01*
X0162758Y0185768D01*
X0162625Y0185682D01*
X0162490Y0185598D01*
X0162354Y0185519D01*
X0162215Y0185442D01*
X0162074Y0185370D01*
X0161932Y0185300D01*
X0161788Y0185235D01*
X0161642Y0185173D01*
X0161495Y0185115D01*
X0161346Y0185060D01*
X0161196Y0185009D01*
X0161045Y0184962D01*
X0160893Y0184919D01*
X0160740Y0184880D01*
X0160585Y0184844D01*
X0160430Y0184813D01*
X0160274Y0184785D01*
X0160118Y0184761D01*
X0159961Y0184741D01*
X0159803Y0184725D01*
X0159646Y0184713D01*
X0159487Y0184705D01*
X0159329Y0184701D01*
X0159171Y0184701D01*
X0159013Y0184705D01*
X0158854Y0184713D01*
X0158697Y0184725D01*
X0158539Y0184741D01*
X0158382Y0184761D01*
X0158226Y0184785D01*
X0158070Y0184813D01*
X0157915Y0184844D01*
X0157760Y0184880D01*
X0157607Y0184919D01*
X0157455Y0184962D01*
X0157304Y0185009D01*
X0157154Y0185060D01*
X0157005Y0185115D01*
X0156858Y0185173D01*
X0156712Y0185235D01*
X0156568Y0185300D01*
X0156426Y0185370D01*
X0156285Y0185442D01*
X0156146Y0185519D01*
X0156010Y0185598D01*
X0155875Y0185682D01*
X0155742Y0185768D01*
X0155612Y0185858D01*
X0155484Y0185951D01*
X0155358Y0186047D01*
X0155235Y0186147D01*
X0155114Y0186249D01*
X0154996Y0186354D01*
X0154881Y0186463D01*
X0154768Y0186574D01*
X0154658Y0186688D01*
X0154551Y0186805D01*
X0154447Y0186924D01*
X0154346Y0187046D01*
X0154249Y0187171D01*
X0154154Y0187298D01*
X0154063Y0187427D01*
X0153974Y0187558D01*
X0153890Y0187692D01*
X0153808Y0187828D01*
X0153730Y0187965D01*
X0153656Y0188105D01*
X0153585Y0188247D01*
X0153517Y0188390D01*
X0153453Y0188535D01*
X0153393Y0188681D01*
X0153337Y0188829D01*
X0153284Y0188978D01*
X0153235Y0189129D01*
X0153190Y0189281D01*
X0153149Y0189434D01*
X0153111Y0189587D01*
X0153078Y0189742D01*
X0153048Y0189898D01*
X0153022Y0190054D01*
X0153001Y0190211D01*
X0152983Y0190368D01*
X0152969Y0190526D01*
X0152959Y0190684D01*
X0152953Y0190842D01*
X0152951Y0191000D01*
X0155141Y0208500D02*
X0155143Y0208562D01*
X0155149Y0208625D01*
X0155159Y0208686D01*
X0155173Y0208747D01*
X0155190Y0208807D01*
X0155211Y0208866D01*
X0155237Y0208923D01*
X0155265Y0208978D01*
X0155297Y0209032D01*
X0155333Y0209083D01*
X0155371Y0209133D01*
X0155413Y0209179D01*
X0155457Y0209223D01*
X0155505Y0209264D01*
X0155554Y0209302D01*
X0155606Y0209336D01*
X0155660Y0209367D01*
X0155716Y0209395D01*
X0155774Y0209419D01*
X0155833Y0209440D01*
X0155893Y0209456D01*
X0155954Y0209469D01*
X0156016Y0209478D01*
X0156078Y0209483D01*
X0156141Y0209484D01*
X0156203Y0209481D01*
X0156265Y0209474D01*
X0156327Y0209463D01*
X0156387Y0209448D01*
X0156447Y0209430D01*
X0156505Y0209408D01*
X0156562Y0209382D01*
X0156617Y0209352D01*
X0156670Y0209319D01*
X0156721Y0209283D01*
X0156769Y0209244D01*
X0156815Y0209201D01*
X0156858Y0209156D01*
X0156898Y0209108D01*
X0156935Y0209058D01*
X0156969Y0209005D01*
X0157000Y0208951D01*
X0157026Y0208895D01*
X0157050Y0208837D01*
X0157069Y0208777D01*
X0157085Y0208717D01*
X0157097Y0208655D01*
X0157105Y0208594D01*
X0157109Y0208531D01*
X0157109Y0208469D01*
X0157105Y0208406D01*
X0157097Y0208345D01*
X0157085Y0208283D01*
X0157069Y0208223D01*
X0157050Y0208163D01*
X0157026Y0208105D01*
X0157000Y0208049D01*
X0156969Y0207995D01*
X0156935Y0207942D01*
X0156898Y0207892D01*
X0156858Y0207844D01*
X0156815Y0207799D01*
X0156769Y0207756D01*
X0156721Y0207717D01*
X0156670Y0207681D01*
X0156617Y0207648D01*
X0156562Y0207618D01*
X0156505Y0207592D01*
X0156447Y0207570D01*
X0156387Y0207552D01*
X0156327Y0207537D01*
X0156265Y0207526D01*
X0156203Y0207519D01*
X0156141Y0207516D01*
X0156078Y0207517D01*
X0156016Y0207522D01*
X0155954Y0207531D01*
X0155893Y0207544D01*
X0155833Y0207560D01*
X0155774Y0207581D01*
X0155716Y0207605D01*
X0155660Y0207633D01*
X0155606Y0207664D01*
X0155554Y0207698D01*
X0155505Y0207736D01*
X0155457Y0207777D01*
X0155413Y0207821D01*
X0155371Y0207867D01*
X0155333Y0207917D01*
X0155297Y0207968D01*
X0155265Y0208022D01*
X0155237Y0208077D01*
X0155211Y0208134D01*
X0155190Y0208193D01*
X0155173Y0208253D01*
X0155159Y0208314D01*
X0155149Y0208375D01*
X0155143Y0208438D01*
X0155141Y0208500D01*
X0155141Y0211625D02*
X0155143Y0211687D01*
X0155149Y0211750D01*
X0155159Y0211811D01*
X0155173Y0211872D01*
X0155190Y0211932D01*
X0155211Y0211991D01*
X0155237Y0212048D01*
X0155265Y0212103D01*
X0155297Y0212157D01*
X0155333Y0212208D01*
X0155371Y0212258D01*
X0155413Y0212304D01*
X0155457Y0212348D01*
X0155505Y0212389D01*
X0155554Y0212427D01*
X0155606Y0212461D01*
X0155660Y0212492D01*
X0155716Y0212520D01*
X0155774Y0212544D01*
X0155833Y0212565D01*
X0155893Y0212581D01*
X0155954Y0212594D01*
X0156016Y0212603D01*
X0156078Y0212608D01*
X0156141Y0212609D01*
X0156203Y0212606D01*
X0156265Y0212599D01*
X0156327Y0212588D01*
X0156387Y0212573D01*
X0156447Y0212555D01*
X0156505Y0212533D01*
X0156562Y0212507D01*
X0156617Y0212477D01*
X0156670Y0212444D01*
X0156721Y0212408D01*
X0156769Y0212369D01*
X0156815Y0212326D01*
X0156858Y0212281D01*
X0156898Y0212233D01*
X0156935Y0212183D01*
X0156969Y0212130D01*
X0157000Y0212076D01*
X0157026Y0212020D01*
X0157050Y0211962D01*
X0157069Y0211902D01*
X0157085Y0211842D01*
X0157097Y0211780D01*
X0157105Y0211719D01*
X0157109Y0211656D01*
X0157109Y0211594D01*
X0157105Y0211531D01*
X0157097Y0211470D01*
X0157085Y0211408D01*
X0157069Y0211348D01*
X0157050Y0211288D01*
X0157026Y0211230D01*
X0157000Y0211174D01*
X0156969Y0211120D01*
X0156935Y0211067D01*
X0156898Y0211017D01*
X0156858Y0210969D01*
X0156815Y0210924D01*
X0156769Y0210881D01*
X0156721Y0210842D01*
X0156670Y0210806D01*
X0156617Y0210773D01*
X0156562Y0210743D01*
X0156505Y0210717D01*
X0156447Y0210695D01*
X0156387Y0210677D01*
X0156327Y0210662D01*
X0156265Y0210651D01*
X0156203Y0210644D01*
X0156141Y0210641D01*
X0156078Y0210642D01*
X0156016Y0210647D01*
X0155954Y0210656D01*
X0155893Y0210669D01*
X0155833Y0210685D01*
X0155774Y0210706D01*
X0155716Y0210730D01*
X0155660Y0210758D01*
X0155606Y0210789D01*
X0155554Y0210823D01*
X0155505Y0210861D01*
X0155457Y0210902D01*
X0155413Y0210946D01*
X0155371Y0210992D01*
X0155333Y0211042D01*
X0155297Y0211093D01*
X0155265Y0211147D01*
X0155237Y0211202D01*
X0155211Y0211259D01*
X0155190Y0211318D01*
X0155173Y0211378D01*
X0155159Y0211439D01*
X0155149Y0211500D01*
X0155143Y0211563D01*
X0155141Y0211625D01*
X0155141Y0214750D02*
X0155143Y0214812D01*
X0155149Y0214875D01*
X0155159Y0214936D01*
X0155173Y0214997D01*
X0155190Y0215057D01*
X0155211Y0215116D01*
X0155237Y0215173D01*
X0155265Y0215228D01*
X0155297Y0215282D01*
X0155333Y0215333D01*
X0155371Y0215383D01*
X0155413Y0215429D01*
X0155457Y0215473D01*
X0155505Y0215514D01*
X0155554Y0215552D01*
X0155606Y0215586D01*
X0155660Y0215617D01*
X0155716Y0215645D01*
X0155774Y0215669D01*
X0155833Y0215690D01*
X0155893Y0215706D01*
X0155954Y0215719D01*
X0156016Y0215728D01*
X0156078Y0215733D01*
X0156141Y0215734D01*
X0156203Y0215731D01*
X0156265Y0215724D01*
X0156327Y0215713D01*
X0156387Y0215698D01*
X0156447Y0215680D01*
X0156505Y0215658D01*
X0156562Y0215632D01*
X0156617Y0215602D01*
X0156670Y0215569D01*
X0156721Y0215533D01*
X0156769Y0215494D01*
X0156815Y0215451D01*
X0156858Y0215406D01*
X0156898Y0215358D01*
X0156935Y0215308D01*
X0156969Y0215255D01*
X0157000Y0215201D01*
X0157026Y0215145D01*
X0157050Y0215087D01*
X0157069Y0215027D01*
X0157085Y0214967D01*
X0157097Y0214905D01*
X0157105Y0214844D01*
X0157109Y0214781D01*
X0157109Y0214719D01*
X0157105Y0214656D01*
X0157097Y0214595D01*
X0157085Y0214533D01*
X0157069Y0214473D01*
X0157050Y0214413D01*
X0157026Y0214355D01*
X0157000Y0214299D01*
X0156969Y0214245D01*
X0156935Y0214192D01*
X0156898Y0214142D01*
X0156858Y0214094D01*
X0156815Y0214049D01*
X0156769Y0214006D01*
X0156721Y0213967D01*
X0156670Y0213931D01*
X0156617Y0213898D01*
X0156562Y0213868D01*
X0156505Y0213842D01*
X0156447Y0213820D01*
X0156387Y0213802D01*
X0156327Y0213787D01*
X0156265Y0213776D01*
X0156203Y0213769D01*
X0156141Y0213766D01*
X0156078Y0213767D01*
X0156016Y0213772D01*
X0155954Y0213781D01*
X0155893Y0213794D01*
X0155833Y0213810D01*
X0155774Y0213831D01*
X0155716Y0213855D01*
X0155660Y0213883D01*
X0155606Y0213914D01*
X0155554Y0213948D01*
X0155505Y0213986D01*
X0155457Y0214027D01*
X0155413Y0214071D01*
X0155371Y0214117D01*
X0155333Y0214167D01*
X0155297Y0214218D01*
X0155265Y0214272D01*
X0155237Y0214327D01*
X0155211Y0214384D01*
X0155190Y0214443D01*
X0155173Y0214503D01*
X0155159Y0214564D01*
X0155149Y0214625D01*
X0155143Y0214688D01*
X0155141Y0214750D01*
X0158266Y0214750D02*
X0158268Y0214812D01*
X0158274Y0214875D01*
X0158284Y0214936D01*
X0158298Y0214997D01*
X0158315Y0215057D01*
X0158336Y0215116D01*
X0158362Y0215173D01*
X0158390Y0215228D01*
X0158422Y0215282D01*
X0158458Y0215333D01*
X0158496Y0215383D01*
X0158538Y0215429D01*
X0158582Y0215473D01*
X0158630Y0215514D01*
X0158679Y0215552D01*
X0158731Y0215586D01*
X0158785Y0215617D01*
X0158841Y0215645D01*
X0158899Y0215669D01*
X0158958Y0215690D01*
X0159018Y0215706D01*
X0159079Y0215719D01*
X0159141Y0215728D01*
X0159203Y0215733D01*
X0159266Y0215734D01*
X0159328Y0215731D01*
X0159390Y0215724D01*
X0159452Y0215713D01*
X0159512Y0215698D01*
X0159572Y0215680D01*
X0159630Y0215658D01*
X0159687Y0215632D01*
X0159742Y0215602D01*
X0159795Y0215569D01*
X0159846Y0215533D01*
X0159894Y0215494D01*
X0159940Y0215451D01*
X0159983Y0215406D01*
X0160023Y0215358D01*
X0160060Y0215308D01*
X0160094Y0215255D01*
X0160125Y0215201D01*
X0160151Y0215145D01*
X0160175Y0215087D01*
X0160194Y0215027D01*
X0160210Y0214967D01*
X0160222Y0214905D01*
X0160230Y0214844D01*
X0160234Y0214781D01*
X0160234Y0214719D01*
X0160230Y0214656D01*
X0160222Y0214595D01*
X0160210Y0214533D01*
X0160194Y0214473D01*
X0160175Y0214413D01*
X0160151Y0214355D01*
X0160125Y0214299D01*
X0160094Y0214245D01*
X0160060Y0214192D01*
X0160023Y0214142D01*
X0159983Y0214094D01*
X0159940Y0214049D01*
X0159894Y0214006D01*
X0159846Y0213967D01*
X0159795Y0213931D01*
X0159742Y0213898D01*
X0159687Y0213868D01*
X0159630Y0213842D01*
X0159572Y0213820D01*
X0159512Y0213802D01*
X0159452Y0213787D01*
X0159390Y0213776D01*
X0159328Y0213769D01*
X0159266Y0213766D01*
X0159203Y0213767D01*
X0159141Y0213772D01*
X0159079Y0213781D01*
X0159018Y0213794D01*
X0158958Y0213810D01*
X0158899Y0213831D01*
X0158841Y0213855D01*
X0158785Y0213883D01*
X0158731Y0213914D01*
X0158679Y0213948D01*
X0158630Y0213986D01*
X0158582Y0214027D01*
X0158538Y0214071D01*
X0158496Y0214117D01*
X0158458Y0214167D01*
X0158422Y0214218D01*
X0158390Y0214272D01*
X0158362Y0214327D01*
X0158336Y0214384D01*
X0158315Y0214443D01*
X0158298Y0214503D01*
X0158284Y0214564D01*
X0158274Y0214625D01*
X0158268Y0214688D01*
X0158266Y0214750D01*
X0158266Y0211625D02*
X0158268Y0211687D01*
X0158274Y0211750D01*
X0158284Y0211811D01*
X0158298Y0211872D01*
X0158315Y0211932D01*
X0158336Y0211991D01*
X0158362Y0212048D01*
X0158390Y0212103D01*
X0158422Y0212157D01*
X0158458Y0212208D01*
X0158496Y0212258D01*
X0158538Y0212304D01*
X0158582Y0212348D01*
X0158630Y0212389D01*
X0158679Y0212427D01*
X0158731Y0212461D01*
X0158785Y0212492D01*
X0158841Y0212520D01*
X0158899Y0212544D01*
X0158958Y0212565D01*
X0159018Y0212581D01*
X0159079Y0212594D01*
X0159141Y0212603D01*
X0159203Y0212608D01*
X0159266Y0212609D01*
X0159328Y0212606D01*
X0159390Y0212599D01*
X0159452Y0212588D01*
X0159512Y0212573D01*
X0159572Y0212555D01*
X0159630Y0212533D01*
X0159687Y0212507D01*
X0159742Y0212477D01*
X0159795Y0212444D01*
X0159846Y0212408D01*
X0159894Y0212369D01*
X0159940Y0212326D01*
X0159983Y0212281D01*
X0160023Y0212233D01*
X0160060Y0212183D01*
X0160094Y0212130D01*
X0160125Y0212076D01*
X0160151Y0212020D01*
X0160175Y0211962D01*
X0160194Y0211902D01*
X0160210Y0211842D01*
X0160222Y0211780D01*
X0160230Y0211719D01*
X0160234Y0211656D01*
X0160234Y0211594D01*
X0160230Y0211531D01*
X0160222Y0211470D01*
X0160210Y0211408D01*
X0160194Y0211348D01*
X0160175Y0211288D01*
X0160151Y0211230D01*
X0160125Y0211174D01*
X0160094Y0211120D01*
X0160060Y0211067D01*
X0160023Y0211017D01*
X0159983Y0210969D01*
X0159940Y0210924D01*
X0159894Y0210881D01*
X0159846Y0210842D01*
X0159795Y0210806D01*
X0159742Y0210773D01*
X0159687Y0210743D01*
X0159630Y0210717D01*
X0159572Y0210695D01*
X0159512Y0210677D01*
X0159452Y0210662D01*
X0159390Y0210651D01*
X0159328Y0210644D01*
X0159266Y0210641D01*
X0159203Y0210642D01*
X0159141Y0210647D01*
X0159079Y0210656D01*
X0159018Y0210669D01*
X0158958Y0210685D01*
X0158899Y0210706D01*
X0158841Y0210730D01*
X0158785Y0210758D01*
X0158731Y0210789D01*
X0158679Y0210823D01*
X0158630Y0210861D01*
X0158582Y0210902D01*
X0158538Y0210946D01*
X0158496Y0210992D01*
X0158458Y0211042D01*
X0158422Y0211093D01*
X0158390Y0211147D01*
X0158362Y0211202D01*
X0158336Y0211259D01*
X0158315Y0211318D01*
X0158298Y0211378D01*
X0158284Y0211439D01*
X0158274Y0211500D01*
X0158268Y0211563D01*
X0158266Y0211625D01*
X0158266Y0208500D02*
X0158268Y0208562D01*
X0158274Y0208625D01*
X0158284Y0208686D01*
X0158298Y0208747D01*
X0158315Y0208807D01*
X0158336Y0208866D01*
X0158362Y0208923D01*
X0158390Y0208978D01*
X0158422Y0209032D01*
X0158458Y0209083D01*
X0158496Y0209133D01*
X0158538Y0209179D01*
X0158582Y0209223D01*
X0158630Y0209264D01*
X0158679Y0209302D01*
X0158731Y0209336D01*
X0158785Y0209367D01*
X0158841Y0209395D01*
X0158899Y0209419D01*
X0158958Y0209440D01*
X0159018Y0209456D01*
X0159079Y0209469D01*
X0159141Y0209478D01*
X0159203Y0209483D01*
X0159266Y0209484D01*
X0159328Y0209481D01*
X0159390Y0209474D01*
X0159452Y0209463D01*
X0159512Y0209448D01*
X0159572Y0209430D01*
X0159630Y0209408D01*
X0159687Y0209382D01*
X0159742Y0209352D01*
X0159795Y0209319D01*
X0159846Y0209283D01*
X0159894Y0209244D01*
X0159940Y0209201D01*
X0159983Y0209156D01*
X0160023Y0209108D01*
X0160060Y0209058D01*
X0160094Y0209005D01*
X0160125Y0208951D01*
X0160151Y0208895D01*
X0160175Y0208837D01*
X0160194Y0208777D01*
X0160210Y0208717D01*
X0160222Y0208655D01*
X0160230Y0208594D01*
X0160234Y0208531D01*
X0160234Y0208469D01*
X0160230Y0208406D01*
X0160222Y0208345D01*
X0160210Y0208283D01*
X0160194Y0208223D01*
X0160175Y0208163D01*
X0160151Y0208105D01*
X0160125Y0208049D01*
X0160094Y0207995D01*
X0160060Y0207942D01*
X0160023Y0207892D01*
X0159983Y0207844D01*
X0159940Y0207799D01*
X0159894Y0207756D01*
X0159846Y0207717D01*
X0159795Y0207681D01*
X0159742Y0207648D01*
X0159687Y0207618D01*
X0159630Y0207592D01*
X0159572Y0207570D01*
X0159512Y0207552D01*
X0159452Y0207537D01*
X0159390Y0207526D01*
X0159328Y0207519D01*
X0159266Y0207516D01*
X0159203Y0207517D01*
X0159141Y0207522D01*
X0159079Y0207531D01*
X0159018Y0207544D01*
X0158958Y0207560D01*
X0158899Y0207581D01*
X0158841Y0207605D01*
X0158785Y0207633D01*
X0158731Y0207664D01*
X0158679Y0207698D01*
X0158630Y0207736D01*
X0158582Y0207777D01*
X0158538Y0207821D01*
X0158496Y0207867D01*
X0158458Y0207917D01*
X0158422Y0207968D01*
X0158390Y0208022D01*
X0158362Y0208077D01*
X0158336Y0208134D01*
X0158315Y0208193D01*
X0158298Y0208253D01*
X0158284Y0208314D01*
X0158274Y0208375D01*
X0158268Y0208438D01*
X0158266Y0208500D01*
X0161391Y0208500D02*
X0161393Y0208562D01*
X0161399Y0208625D01*
X0161409Y0208686D01*
X0161423Y0208747D01*
X0161440Y0208807D01*
X0161461Y0208866D01*
X0161487Y0208923D01*
X0161515Y0208978D01*
X0161547Y0209032D01*
X0161583Y0209083D01*
X0161621Y0209133D01*
X0161663Y0209179D01*
X0161707Y0209223D01*
X0161755Y0209264D01*
X0161804Y0209302D01*
X0161856Y0209336D01*
X0161910Y0209367D01*
X0161966Y0209395D01*
X0162024Y0209419D01*
X0162083Y0209440D01*
X0162143Y0209456D01*
X0162204Y0209469D01*
X0162266Y0209478D01*
X0162328Y0209483D01*
X0162391Y0209484D01*
X0162453Y0209481D01*
X0162515Y0209474D01*
X0162577Y0209463D01*
X0162637Y0209448D01*
X0162697Y0209430D01*
X0162755Y0209408D01*
X0162812Y0209382D01*
X0162867Y0209352D01*
X0162920Y0209319D01*
X0162971Y0209283D01*
X0163019Y0209244D01*
X0163065Y0209201D01*
X0163108Y0209156D01*
X0163148Y0209108D01*
X0163185Y0209058D01*
X0163219Y0209005D01*
X0163250Y0208951D01*
X0163276Y0208895D01*
X0163300Y0208837D01*
X0163319Y0208777D01*
X0163335Y0208717D01*
X0163347Y0208655D01*
X0163355Y0208594D01*
X0163359Y0208531D01*
X0163359Y0208469D01*
X0163355Y0208406D01*
X0163347Y0208345D01*
X0163335Y0208283D01*
X0163319Y0208223D01*
X0163300Y0208163D01*
X0163276Y0208105D01*
X0163250Y0208049D01*
X0163219Y0207995D01*
X0163185Y0207942D01*
X0163148Y0207892D01*
X0163108Y0207844D01*
X0163065Y0207799D01*
X0163019Y0207756D01*
X0162971Y0207717D01*
X0162920Y0207681D01*
X0162867Y0207648D01*
X0162812Y0207618D01*
X0162755Y0207592D01*
X0162697Y0207570D01*
X0162637Y0207552D01*
X0162577Y0207537D01*
X0162515Y0207526D01*
X0162453Y0207519D01*
X0162391Y0207516D01*
X0162328Y0207517D01*
X0162266Y0207522D01*
X0162204Y0207531D01*
X0162143Y0207544D01*
X0162083Y0207560D01*
X0162024Y0207581D01*
X0161966Y0207605D01*
X0161910Y0207633D01*
X0161856Y0207664D01*
X0161804Y0207698D01*
X0161755Y0207736D01*
X0161707Y0207777D01*
X0161663Y0207821D01*
X0161621Y0207867D01*
X0161583Y0207917D01*
X0161547Y0207968D01*
X0161515Y0208022D01*
X0161487Y0208077D01*
X0161461Y0208134D01*
X0161440Y0208193D01*
X0161423Y0208253D01*
X0161409Y0208314D01*
X0161399Y0208375D01*
X0161393Y0208438D01*
X0161391Y0208500D01*
X0161391Y0211625D02*
X0161393Y0211687D01*
X0161399Y0211750D01*
X0161409Y0211811D01*
X0161423Y0211872D01*
X0161440Y0211932D01*
X0161461Y0211991D01*
X0161487Y0212048D01*
X0161515Y0212103D01*
X0161547Y0212157D01*
X0161583Y0212208D01*
X0161621Y0212258D01*
X0161663Y0212304D01*
X0161707Y0212348D01*
X0161755Y0212389D01*
X0161804Y0212427D01*
X0161856Y0212461D01*
X0161910Y0212492D01*
X0161966Y0212520D01*
X0162024Y0212544D01*
X0162083Y0212565D01*
X0162143Y0212581D01*
X0162204Y0212594D01*
X0162266Y0212603D01*
X0162328Y0212608D01*
X0162391Y0212609D01*
X0162453Y0212606D01*
X0162515Y0212599D01*
X0162577Y0212588D01*
X0162637Y0212573D01*
X0162697Y0212555D01*
X0162755Y0212533D01*
X0162812Y0212507D01*
X0162867Y0212477D01*
X0162920Y0212444D01*
X0162971Y0212408D01*
X0163019Y0212369D01*
X0163065Y0212326D01*
X0163108Y0212281D01*
X0163148Y0212233D01*
X0163185Y0212183D01*
X0163219Y0212130D01*
X0163250Y0212076D01*
X0163276Y0212020D01*
X0163300Y0211962D01*
X0163319Y0211902D01*
X0163335Y0211842D01*
X0163347Y0211780D01*
X0163355Y0211719D01*
X0163359Y0211656D01*
X0163359Y0211594D01*
X0163355Y0211531D01*
X0163347Y0211470D01*
X0163335Y0211408D01*
X0163319Y0211348D01*
X0163300Y0211288D01*
X0163276Y0211230D01*
X0163250Y0211174D01*
X0163219Y0211120D01*
X0163185Y0211067D01*
X0163148Y0211017D01*
X0163108Y0210969D01*
X0163065Y0210924D01*
X0163019Y0210881D01*
X0162971Y0210842D01*
X0162920Y0210806D01*
X0162867Y0210773D01*
X0162812Y0210743D01*
X0162755Y0210717D01*
X0162697Y0210695D01*
X0162637Y0210677D01*
X0162577Y0210662D01*
X0162515Y0210651D01*
X0162453Y0210644D01*
X0162391Y0210641D01*
X0162328Y0210642D01*
X0162266Y0210647D01*
X0162204Y0210656D01*
X0162143Y0210669D01*
X0162083Y0210685D01*
X0162024Y0210706D01*
X0161966Y0210730D01*
X0161910Y0210758D01*
X0161856Y0210789D01*
X0161804Y0210823D01*
X0161755Y0210861D01*
X0161707Y0210902D01*
X0161663Y0210946D01*
X0161621Y0210992D01*
X0161583Y0211042D01*
X0161547Y0211093D01*
X0161515Y0211147D01*
X0161487Y0211202D01*
X0161461Y0211259D01*
X0161440Y0211318D01*
X0161423Y0211378D01*
X0161409Y0211439D01*
X0161399Y0211500D01*
X0161393Y0211563D01*
X0161391Y0211625D01*
X0161391Y0214750D02*
X0161393Y0214812D01*
X0161399Y0214875D01*
X0161409Y0214936D01*
X0161423Y0214997D01*
X0161440Y0215057D01*
X0161461Y0215116D01*
X0161487Y0215173D01*
X0161515Y0215228D01*
X0161547Y0215282D01*
X0161583Y0215333D01*
X0161621Y0215383D01*
X0161663Y0215429D01*
X0161707Y0215473D01*
X0161755Y0215514D01*
X0161804Y0215552D01*
X0161856Y0215586D01*
X0161910Y0215617D01*
X0161966Y0215645D01*
X0162024Y0215669D01*
X0162083Y0215690D01*
X0162143Y0215706D01*
X0162204Y0215719D01*
X0162266Y0215728D01*
X0162328Y0215733D01*
X0162391Y0215734D01*
X0162453Y0215731D01*
X0162515Y0215724D01*
X0162577Y0215713D01*
X0162637Y0215698D01*
X0162697Y0215680D01*
X0162755Y0215658D01*
X0162812Y0215632D01*
X0162867Y0215602D01*
X0162920Y0215569D01*
X0162971Y0215533D01*
X0163019Y0215494D01*
X0163065Y0215451D01*
X0163108Y0215406D01*
X0163148Y0215358D01*
X0163185Y0215308D01*
X0163219Y0215255D01*
X0163250Y0215201D01*
X0163276Y0215145D01*
X0163300Y0215087D01*
X0163319Y0215027D01*
X0163335Y0214967D01*
X0163347Y0214905D01*
X0163355Y0214844D01*
X0163359Y0214781D01*
X0163359Y0214719D01*
X0163355Y0214656D01*
X0163347Y0214595D01*
X0163335Y0214533D01*
X0163319Y0214473D01*
X0163300Y0214413D01*
X0163276Y0214355D01*
X0163250Y0214299D01*
X0163219Y0214245D01*
X0163185Y0214192D01*
X0163148Y0214142D01*
X0163108Y0214094D01*
X0163065Y0214049D01*
X0163019Y0214006D01*
X0162971Y0213967D01*
X0162920Y0213931D01*
X0162867Y0213898D01*
X0162812Y0213868D01*
X0162755Y0213842D01*
X0162697Y0213820D01*
X0162637Y0213802D01*
X0162577Y0213787D01*
X0162515Y0213776D01*
X0162453Y0213769D01*
X0162391Y0213766D01*
X0162328Y0213767D01*
X0162266Y0213772D01*
X0162204Y0213781D01*
X0162143Y0213794D01*
X0162083Y0213810D01*
X0162024Y0213831D01*
X0161966Y0213855D01*
X0161910Y0213883D01*
X0161856Y0213914D01*
X0161804Y0213948D01*
X0161755Y0213986D01*
X0161707Y0214027D01*
X0161663Y0214071D01*
X0161621Y0214117D01*
X0161583Y0214167D01*
X0161547Y0214218D01*
X0161515Y0214272D01*
X0161487Y0214327D01*
X0161461Y0214384D01*
X0161440Y0214443D01*
X0161423Y0214503D01*
X0161409Y0214564D01*
X0161399Y0214625D01*
X0161393Y0214688D01*
X0161391Y0214750D01*
X0157951Y0226000D02*
X0157953Y0226158D01*
X0157959Y0226316D01*
X0157969Y0226474D01*
X0157983Y0226632D01*
X0158001Y0226789D01*
X0158022Y0226946D01*
X0158048Y0227102D01*
X0158078Y0227258D01*
X0158111Y0227413D01*
X0158149Y0227566D01*
X0158190Y0227719D01*
X0158235Y0227871D01*
X0158284Y0228022D01*
X0158337Y0228171D01*
X0158393Y0228319D01*
X0158453Y0228465D01*
X0158517Y0228610D01*
X0158585Y0228753D01*
X0158656Y0228895D01*
X0158730Y0229035D01*
X0158808Y0229172D01*
X0158890Y0229308D01*
X0158974Y0229442D01*
X0159063Y0229573D01*
X0159154Y0229702D01*
X0159249Y0229829D01*
X0159346Y0229954D01*
X0159447Y0230076D01*
X0159551Y0230195D01*
X0159658Y0230312D01*
X0159768Y0230426D01*
X0159881Y0230537D01*
X0159996Y0230646D01*
X0160114Y0230751D01*
X0160235Y0230853D01*
X0160358Y0230953D01*
X0160484Y0231049D01*
X0160612Y0231142D01*
X0160742Y0231232D01*
X0160875Y0231318D01*
X0161010Y0231402D01*
X0161146Y0231481D01*
X0161285Y0231558D01*
X0161426Y0231630D01*
X0161568Y0231700D01*
X0161712Y0231765D01*
X0161858Y0231827D01*
X0162005Y0231885D01*
X0162154Y0231940D01*
X0162304Y0231991D01*
X0162455Y0232038D01*
X0162607Y0232081D01*
X0162760Y0232120D01*
X0162915Y0232156D01*
X0163070Y0232187D01*
X0163226Y0232215D01*
X0163382Y0232239D01*
X0163539Y0232259D01*
X0163697Y0232275D01*
X0163854Y0232287D01*
X0164013Y0232295D01*
X0164171Y0232299D01*
X0164329Y0232299D01*
X0164487Y0232295D01*
X0164646Y0232287D01*
X0164803Y0232275D01*
X0164961Y0232259D01*
X0165118Y0232239D01*
X0165274Y0232215D01*
X0165430Y0232187D01*
X0165585Y0232156D01*
X0165740Y0232120D01*
X0165893Y0232081D01*
X0166045Y0232038D01*
X0166196Y0231991D01*
X0166346Y0231940D01*
X0166495Y0231885D01*
X0166642Y0231827D01*
X0166788Y0231765D01*
X0166932Y0231700D01*
X0167074Y0231630D01*
X0167215Y0231558D01*
X0167354Y0231481D01*
X0167490Y0231402D01*
X0167625Y0231318D01*
X0167758Y0231232D01*
X0167888Y0231142D01*
X0168016Y0231049D01*
X0168142Y0230953D01*
X0168265Y0230853D01*
X0168386Y0230751D01*
X0168504Y0230646D01*
X0168619Y0230537D01*
X0168732Y0230426D01*
X0168842Y0230312D01*
X0168949Y0230195D01*
X0169053Y0230076D01*
X0169154Y0229954D01*
X0169251Y0229829D01*
X0169346Y0229702D01*
X0169437Y0229573D01*
X0169526Y0229442D01*
X0169610Y0229308D01*
X0169692Y0229172D01*
X0169770Y0229035D01*
X0169844Y0228895D01*
X0169915Y0228753D01*
X0169983Y0228610D01*
X0170047Y0228465D01*
X0170107Y0228319D01*
X0170163Y0228171D01*
X0170216Y0228022D01*
X0170265Y0227871D01*
X0170310Y0227719D01*
X0170351Y0227566D01*
X0170389Y0227413D01*
X0170422Y0227258D01*
X0170452Y0227102D01*
X0170478Y0226946D01*
X0170499Y0226789D01*
X0170517Y0226632D01*
X0170531Y0226474D01*
X0170541Y0226316D01*
X0170547Y0226158D01*
X0170549Y0226000D01*
X0170547Y0225842D01*
X0170541Y0225684D01*
X0170531Y0225526D01*
X0170517Y0225368D01*
X0170499Y0225211D01*
X0170478Y0225054D01*
X0170452Y0224898D01*
X0170422Y0224742D01*
X0170389Y0224587D01*
X0170351Y0224434D01*
X0170310Y0224281D01*
X0170265Y0224129D01*
X0170216Y0223978D01*
X0170163Y0223829D01*
X0170107Y0223681D01*
X0170047Y0223535D01*
X0169983Y0223390D01*
X0169915Y0223247D01*
X0169844Y0223105D01*
X0169770Y0222965D01*
X0169692Y0222828D01*
X0169610Y0222692D01*
X0169526Y0222558D01*
X0169437Y0222427D01*
X0169346Y0222298D01*
X0169251Y0222171D01*
X0169154Y0222046D01*
X0169053Y0221924D01*
X0168949Y0221805D01*
X0168842Y0221688D01*
X0168732Y0221574D01*
X0168619Y0221463D01*
X0168504Y0221354D01*
X0168386Y0221249D01*
X0168265Y0221147D01*
X0168142Y0221047D01*
X0168016Y0220951D01*
X0167888Y0220858D01*
X0167758Y0220768D01*
X0167625Y0220682D01*
X0167490Y0220598D01*
X0167354Y0220519D01*
X0167215Y0220442D01*
X0167074Y0220370D01*
X0166932Y0220300D01*
X0166788Y0220235D01*
X0166642Y0220173D01*
X0166495Y0220115D01*
X0166346Y0220060D01*
X0166196Y0220009D01*
X0166045Y0219962D01*
X0165893Y0219919D01*
X0165740Y0219880D01*
X0165585Y0219844D01*
X0165430Y0219813D01*
X0165274Y0219785D01*
X0165118Y0219761D01*
X0164961Y0219741D01*
X0164803Y0219725D01*
X0164646Y0219713D01*
X0164487Y0219705D01*
X0164329Y0219701D01*
X0164171Y0219701D01*
X0164013Y0219705D01*
X0163854Y0219713D01*
X0163697Y0219725D01*
X0163539Y0219741D01*
X0163382Y0219761D01*
X0163226Y0219785D01*
X0163070Y0219813D01*
X0162915Y0219844D01*
X0162760Y0219880D01*
X0162607Y0219919D01*
X0162455Y0219962D01*
X0162304Y0220009D01*
X0162154Y0220060D01*
X0162005Y0220115D01*
X0161858Y0220173D01*
X0161712Y0220235D01*
X0161568Y0220300D01*
X0161426Y0220370D01*
X0161285Y0220442D01*
X0161146Y0220519D01*
X0161010Y0220598D01*
X0160875Y0220682D01*
X0160742Y0220768D01*
X0160612Y0220858D01*
X0160484Y0220951D01*
X0160358Y0221047D01*
X0160235Y0221147D01*
X0160114Y0221249D01*
X0159996Y0221354D01*
X0159881Y0221463D01*
X0159768Y0221574D01*
X0159658Y0221688D01*
X0159551Y0221805D01*
X0159447Y0221924D01*
X0159346Y0222046D01*
X0159249Y0222171D01*
X0159154Y0222298D01*
X0159063Y0222427D01*
X0158974Y0222558D01*
X0158890Y0222692D01*
X0158808Y0222828D01*
X0158730Y0222965D01*
X0158656Y0223105D01*
X0158585Y0223247D01*
X0158517Y0223390D01*
X0158453Y0223535D01*
X0158393Y0223681D01*
X0158337Y0223829D01*
X0158284Y0223978D01*
X0158235Y0224129D01*
X0158190Y0224281D01*
X0158149Y0224434D01*
X0158111Y0224587D01*
X0158078Y0224742D01*
X0158048Y0224898D01*
X0158022Y0225054D01*
X0158001Y0225211D01*
X0157983Y0225368D01*
X0157969Y0225526D01*
X0157959Y0225684D01*
X0157953Y0225842D01*
X0157951Y0226000D01*
X0144766Y0152875D02*
X0144768Y0153000D01*
X0144774Y0153125D01*
X0144784Y0153249D01*
X0144798Y0153373D01*
X0144815Y0153497D01*
X0144837Y0153620D01*
X0144863Y0153742D01*
X0144892Y0153864D01*
X0144925Y0153984D01*
X0144963Y0154103D01*
X0145003Y0154222D01*
X0145048Y0154338D01*
X0145096Y0154453D01*
X0145148Y0154567D01*
X0145204Y0154679D01*
X0145263Y0154789D01*
X0145325Y0154897D01*
X0145391Y0155004D01*
X0145460Y0155108D01*
X0145533Y0155209D01*
X0145608Y0155309D01*
X0145687Y0155406D01*
X0145769Y0155500D01*
X0145854Y0155592D01*
X0145941Y0155681D01*
X0146032Y0155767D01*
X0146125Y0155850D01*
X0146221Y0155931D01*
X0146319Y0156008D01*
X0146419Y0156082D01*
X0146522Y0156153D01*
X0146627Y0156220D01*
X0146735Y0156285D01*
X0146844Y0156345D01*
X0146955Y0156403D01*
X0147068Y0156456D01*
X0147182Y0156506D01*
X0147298Y0156553D01*
X0147415Y0156595D01*
X0147534Y0156634D01*
X0147654Y0156670D01*
X0147775Y0156701D01*
X0147897Y0156729D01*
X0148019Y0156752D01*
X0148143Y0156772D01*
X0148267Y0156788D01*
X0148391Y0156800D01*
X0148516Y0156808D01*
X0148641Y0156812D01*
X0148765Y0156812D01*
X0148890Y0156808D01*
X0149015Y0156800D01*
X0149139Y0156788D01*
X0149263Y0156772D01*
X0149387Y0156752D01*
X0149509Y0156729D01*
X0149631Y0156701D01*
X0149752Y0156670D01*
X0149872Y0156634D01*
X0149991Y0156595D01*
X0150108Y0156553D01*
X0150224Y0156506D01*
X0150338Y0156456D01*
X0150451Y0156403D01*
X0150562Y0156345D01*
X0150672Y0156285D01*
X0150779Y0156220D01*
X0150884Y0156153D01*
X0150987Y0156082D01*
X0151087Y0156008D01*
X0151185Y0155931D01*
X0151281Y0155850D01*
X0151374Y0155767D01*
X0151465Y0155681D01*
X0151552Y0155592D01*
X0151637Y0155500D01*
X0151719Y0155406D01*
X0151798Y0155309D01*
X0151873Y0155209D01*
X0151946Y0155108D01*
X0152015Y0155004D01*
X0152081Y0154897D01*
X0152143Y0154789D01*
X0152202Y0154679D01*
X0152258Y0154567D01*
X0152310Y0154453D01*
X0152358Y0154338D01*
X0152403Y0154222D01*
X0152443Y0154103D01*
X0152481Y0153984D01*
X0152514Y0153864D01*
X0152543Y0153742D01*
X0152569Y0153620D01*
X0152591Y0153497D01*
X0152608Y0153373D01*
X0152622Y0153249D01*
X0152632Y0153125D01*
X0152638Y0153000D01*
X0152640Y0152875D01*
X0152638Y0152750D01*
X0152632Y0152625D01*
X0152622Y0152501D01*
X0152608Y0152377D01*
X0152591Y0152253D01*
X0152569Y0152130D01*
X0152543Y0152008D01*
X0152514Y0151886D01*
X0152481Y0151766D01*
X0152443Y0151647D01*
X0152403Y0151528D01*
X0152358Y0151412D01*
X0152310Y0151297D01*
X0152258Y0151183D01*
X0152202Y0151071D01*
X0152143Y0150961D01*
X0152081Y0150853D01*
X0152015Y0150746D01*
X0151946Y0150642D01*
X0151873Y0150541D01*
X0151798Y0150441D01*
X0151719Y0150344D01*
X0151637Y0150250D01*
X0151552Y0150158D01*
X0151465Y0150069D01*
X0151374Y0149983D01*
X0151281Y0149900D01*
X0151185Y0149819D01*
X0151087Y0149742D01*
X0150987Y0149668D01*
X0150884Y0149597D01*
X0150779Y0149530D01*
X0150671Y0149465D01*
X0150562Y0149405D01*
X0150451Y0149347D01*
X0150338Y0149294D01*
X0150224Y0149244D01*
X0150108Y0149197D01*
X0149991Y0149155D01*
X0149872Y0149116D01*
X0149752Y0149080D01*
X0149631Y0149049D01*
X0149509Y0149021D01*
X0149387Y0148998D01*
X0149263Y0148978D01*
X0149139Y0148962D01*
X0149015Y0148950D01*
X0148890Y0148942D01*
X0148765Y0148938D01*
X0148641Y0148938D01*
X0148516Y0148942D01*
X0148391Y0148950D01*
X0148267Y0148962D01*
X0148143Y0148978D01*
X0148019Y0148998D01*
X0147897Y0149021D01*
X0147775Y0149049D01*
X0147654Y0149080D01*
X0147534Y0149116D01*
X0147415Y0149155D01*
X0147298Y0149197D01*
X0147182Y0149244D01*
X0147068Y0149294D01*
X0146955Y0149347D01*
X0146844Y0149405D01*
X0146734Y0149465D01*
X0146627Y0149530D01*
X0146522Y0149597D01*
X0146419Y0149668D01*
X0146319Y0149742D01*
X0146221Y0149819D01*
X0146125Y0149900D01*
X0146032Y0149983D01*
X0145941Y0150069D01*
X0145854Y0150158D01*
X0145769Y0150250D01*
X0145687Y0150344D01*
X0145608Y0150441D01*
X0145533Y0150541D01*
X0145460Y0150642D01*
X0145391Y0150746D01*
X0145325Y0150853D01*
X0145263Y0150961D01*
X0145204Y0151071D01*
X0145148Y0151183D01*
X0145096Y0151297D01*
X0145048Y0151412D01*
X0145003Y0151528D01*
X0144963Y0151647D01*
X0144925Y0151766D01*
X0144892Y0151886D01*
X0144863Y0152008D01*
X0144837Y0152130D01*
X0144815Y0152253D01*
X0144798Y0152377D01*
X0144784Y0152501D01*
X0144774Y0152625D01*
X0144768Y0152750D01*
X0144766Y0152875D01*
X0166425Y0148500D02*
X0166427Y0148579D01*
X0166433Y0148658D01*
X0166443Y0148737D01*
X0166457Y0148815D01*
X0166474Y0148892D01*
X0166496Y0148968D01*
X0166521Y0149043D01*
X0166551Y0149116D01*
X0166583Y0149188D01*
X0166620Y0149259D01*
X0166660Y0149327D01*
X0166703Y0149393D01*
X0166749Y0149457D01*
X0166799Y0149519D01*
X0166852Y0149578D01*
X0166907Y0149634D01*
X0166966Y0149688D01*
X0167027Y0149738D01*
X0167090Y0149786D01*
X0167156Y0149830D01*
X0167224Y0149871D01*
X0167294Y0149908D01*
X0167365Y0149942D01*
X0167439Y0149972D01*
X0167513Y0149998D01*
X0167589Y0150020D01*
X0167666Y0150039D01*
X0167744Y0150054D01*
X0167822Y0150065D01*
X0167901Y0150072D01*
X0167980Y0150075D01*
X0168059Y0150074D01*
X0168138Y0150069D01*
X0168217Y0150060D01*
X0168295Y0150047D01*
X0168372Y0150030D01*
X0168449Y0150010D01*
X0168524Y0149985D01*
X0168598Y0149957D01*
X0168671Y0149925D01*
X0168741Y0149890D01*
X0168810Y0149851D01*
X0168877Y0149808D01*
X0168942Y0149762D01*
X0169004Y0149714D01*
X0169064Y0149662D01*
X0169121Y0149607D01*
X0169175Y0149549D01*
X0169226Y0149489D01*
X0169274Y0149426D01*
X0169319Y0149361D01*
X0169361Y0149293D01*
X0169399Y0149224D01*
X0169433Y0149153D01*
X0169464Y0149080D01*
X0169492Y0149005D01*
X0169515Y0148930D01*
X0169535Y0148853D01*
X0169551Y0148776D01*
X0169563Y0148697D01*
X0169571Y0148619D01*
X0169575Y0148540D01*
X0169575Y0148460D01*
X0169571Y0148381D01*
X0169563Y0148303D01*
X0169551Y0148224D01*
X0169535Y0148147D01*
X0169515Y0148070D01*
X0169492Y0147995D01*
X0169464Y0147920D01*
X0169433Y0147847D01*
X0169399Y0147776D01*
X0169361Y0147707D01*
X0169319Y0147639D01*
X0169274Y0147574D01*
X0169226Y0147511D01*
X0169175Y0147451D01*
X0169121Y0147393D01*
X0169064Y0147338D01*
X0169004Y0147286D01*
X0168942Y0147238D01*
X0168877Y0147192D01*
X0168810Y0147149D01*
X0168741Y0147110D01*
X0168671Y0147075D01*
X0168598Y0147043D01*
X0168524Y0147015D01*
X0168449Y0146990D01*
X0168372Y0146970D01*
X0168295Y0146953D01*
X0168217Y0146940D01*
X0168138Y0146931D01*
X0168059Y0146926D01*
X0167980Y0146925D01*
X0167901Y0146928D01*
X0167822Y0146935D01*
X0167744Y0146946D01*
X0167666Y0146961D01*
X0167589Y0146980D01*
X0167513Y0147002D01*
X0167439Y0147028D01*
X0167365Y0147058D01*
X0167294Y0147092D01*
X0167224Y0147129D01*
X0167156Y0147170D01*
X0167090Y0147214D01*
X0167027Y0147262D01*
X0166966Y0147312D01*
X0166907Y0147366D01*
X0166852Y0147422D01*
X0166799Y0147481D01*
X0166749Y0147543D01*
X0166703Y0147607D01*
X0166660Y0147673D01*
X0166620Y0147741D01*
X0166583Y0147812D01*
X0166551Y0147884D01*
X0166521Y0147957D01*
X0166496Y0148032D01*
X0166474Y0148108D01*
X0166457Y0148185D01*
X0166443Y0148263D01*
X0166433Y0148342D01*
X0166427Y0148421D01*
X0166425Y0148500D01*
X0166425Y0082250D02*
X0166427Y0082329D01*
X0166433Y0082408D01*
X0166443Y0082487D01*
X0166457Y0082565D01*
X0166474Y0082642D01*
X0166496Y0082718D01*
X0166521Y0082793D01*
X0166551Y0082866D01*
X0166583Y0082938D01*
X0166620Y0083009D01*
X0166660Y0083077D01*
X0166703Y0083143D01*
X0166749Y0083207D01*
X0166799Y0083269D01*
X0166852Y0083328D01*
X0166907Y0083384D01*
X0166966Y0083438D01*
X0167027Y0083488D01*
X0167090Y0083536D01*
X0167156Y0083580D01*
X0167224Y0083621D01*
X0167294Y0083658D01*
X0167365Y0083692D01*
X0167439Y0083722D01*
X0167513Y0083748D01*
X0167589Y0083770D01*
X0167666Y0083789D01*
X0167744Y0083804D01*
X0167822Y0083815D01*
X0167901Y0083822D01*
X0167980Y0083825D01*
X0168059Y0083824D01*
X0168138Y0083819D01*
X0168217Y0083810D01*
X0168295Y0083797D01*
X0168372Y0083780D01*
X0168449Y0083760D01*
X0168524Y0083735D01*
X0168598Y0083707D01*
X0168671Y0083675D01*
X0168741Y0083640D01*
X0168810Y0083601D01*
X0168877Y0083558D01*
X0168942Y0083512D01*
X0169004Y0083464D01*
X0169064Y0083412D01*
X0169121Y0083357D01*
X0169175Y0083299D01*
X0169226Y0083239D01*
X0169274Y0083176D01*
X0169319Y0083111D01*
X0169361Y0083043D01*
X0169399Y0082974D01*
X0169433Y0082903D01*
X0169464Y0082830D01*
X0169492Y0082755D01*
X0169515Y0082680D01*
X0169535Y0082603D01*
X0169551Y0082526D01*
X0169563Y0082447D01*
X0169571Y0082369D01*
X0169575Y0082290D01*
X0169575Y0082210D01*
X0169571Y0082131D01*
X0169563Y0082053D01*
X0169551Y0081974D01*
X0169535Y0081897D01*
X0169515Y0081820D01*
X0169492Y0081745D01*
X0169464Y0081670D01*
X0169433Y0081597D01*
X0169399Y0081526D01*
X0169361Y0081457D01*
X0169319Y0081389D01*
X0169274Y0081324D01*
X0169226Y0081261D01*
X0169175Y0081201D01*
X0169121Y0081143D01*
X0169064Y0081088D01*
X0169004Y0081036D01*
X0168942Y0080988D01*
X0168877Y0080942D01*
X0168810Y0080899D01*
X0168741Y0080860D01*
X0168671Y0080825D01*
X0168598Y0080793D01*
X0168524Y0080765D01*
X0168449Y0080740D01*
X0168372Y0080720D01*
X0168295Y0080703D01*
X0168217Y0080690D01*
X0168138Y0080681D01*
X0168059Y0080676D01*
X0167980Y0080675D01*
X0167901Y0080678D01*
X0167822Y0080685D01*
X0167744Y0080696D01*
X0167666Y0080711D01*
X0167589Y0080730D01*
X0167513Y0080752D01*
X0167439Y0080778D01*
X0167365Y0080808D01*
X0167294Y0080842D01*
X0167224Y0080879D01*
X0167156Y0080920D01*
X0167090Y0080964D01*
X0167027Y0081012D01*
X0166966Y0081062D01*
X0166907Y0081116D01*
X0166852Y0081172D01*
X0166799Y0081231D01*
X0166749Y0081293D01*
X0166703Y0081357D01*
X0166660Y0081423D01*
X0166620Y0081491D01*
X0166583Y0081562D01*
X0166551Y0081634D01*
X0166521Y0081707D01*
X0166496Y0081782D01*
X0166474Y0081858D01*
X0166457Y0081935D01*
X0166443Y0082013D01*
X0166433Y0082092D01*
X0166427Y0082171D01*
X0166425Y0082250D01*
X0144766Y0078070D02*
X0144768Y0078195D01*
X0144774Y0078320D01*
X0144784Y0078444D01*
X0144798Y0078568D01*
X0144815Y0078692D01*
X0144837Y0078815D01*
X0144863Y0078937D01*
X0144892Y0079059D01*
X0144925Y0079179D01*
X0144963Y0079298D01*
X0145003Y0079417D01*
X0145048Y0079533D01*
X0145096Y0079648D01*
X0145148Y0079762D01*
X0145204Y0079874D01*
X0145263Y0079984D01*
X0145325Y0080092D01*
X0145391Y0080199D01*
X0145460Y0080303D01*
X0145533Y0080404D01*
X0145608Y0080504D01*
X0145687Y0080601D01*
X0145769Y0080695D01*
X0145854Y0080787D01*
X0145941Y0080876D01*
X0146032Y0080962D01*
X0146125Y0081045D01*
X0146221Y0081126D01*
X0146319Y0081203D01*
X0146419Y0081277D01*
X0146522Y0081348D01*
X0146627Y0081415D01*
X0146735Y0081480D01*
X0146844Y0081540D01*
X0146955Y0081598D01*
X0147068Y0081651D01*
X0147182Y0081701D01*
X0147298Y0081748D01*
X0147415Y0081790D01*
X0147534Y0081829D01*
X0147654Y0081865D01*
X0147775Y0081896D01*
X0147897Y0081924D01*
X0148019Y0081947D01*
X0148143Y0081967D01*
X0148267Y0081983D01*
X0148391Y0081995D01*
X0148516Y0082003D01*
X0148641Y0082007D01*
X0148765Y0082007D01*
X0148890Y0082003D01*
X0149015Y0081995D01*
X0149139Y0081983D01*
X0149263Y0081967D01*
X0149387Y0081947D01*
X0149509Y0081924D01*
X0149631Y0081896D01*
X0149752Y0081865D01*
X0149872Y0081829D01*
X0149991Y0081790D01*
X0150108Y0081748D01*
X0150224Y0081701D01*
X0150338Y0081651D01*
X0150451Y0081598D01*
X0150562Y0081540D01*
X0150672Y0081480D01*
X0150779Y0081415D01*
X0150884Y0081348D01*
X0150987Y0081277D01*
X0151087Y0081203D01*
X0151185Y0081126D01*
X0151281Y0081045D01*
X0151374Y0080962D01*
X0151465Y0080876D01*
X0151552Y0080787D01*
X0151637Y0080695D01*
X0151719Y0080601D01*
X0151798Y0080504D01*
X0151873Y0080404D01*
X0151946Y0080303D01*
X0152015Y0080199D01*
X0152081Y0080092D01*
X0152143Y0079984D01*
X0152202Y0079874D01*
X0152258Y0079762D01*
X0152310Y0079648D01*
X0152358Y0079533D01*
X0152403Y0079417D01*
X0152443Y0079298D01*
X0152481Y0079179D01*
X0152514Y0079059D01*
X0152543Y0078937D01*
X0152569Y0078815D01*
X0152591Y0078692D01*
X0152608Y0078568D01*
X0152622Y0078444D01*
X0152632Y0078320D01*
X0152638Y0078195D01*
X0152640Y0078070D01*
X0152638Y0077945D01*
X0152632Y0077820D01*
X0152622Y0077696D01*
X0152608Y0077572D01*
X0152591Y0077448D01*
X0152569Y0077325D01*
X0152543Y0077203D01*
X0152514Y0077081D01*
X0152481Y0076961D01*
X0152443Y0076842D01*
X0152403Y0076723D01*
X0152358Y0076607D01*
X0152310Y0076492D01*
X0152258Y0076378D01*
X0152202Y0076266D01*
X0152143Y0076156D01*
X0152081Y0076048D01*
X0152015Y0075941D01*
X0151946Y0075837D01*
X0151873Y0075736D01*
X0151798Y0075636D01*
X0151719Y0075539D01*
X0151637Y0075445D01*
X0151552Y0075353D01*
X0151465Y0075264D01*
X0151374Y0075178D01*
X0151281Y0075095D01*
X0151185Y0075014D01*
X0151087Y0074937D01*
X0150987Y0074863D01*
X0150884Y0074792D01*
X0150779Y0074725D01*
X0150671Y0074660D01*
X0150562Y0074600D01*
X0150451Y0074542D01*
X0150338Y0074489D01*
X0150224Y0074439D01*
X0150108Y0074392D01*
X0149991Y0074350D01*
X0149872Y0074311D01*
X0149752Y0074275D01*
X0149631Y0074244D01*
X0149509Y0074216D01*
X0149387Y0074193D01*
X0149263Y0074173D01*
X0149139Y0074157D01*
X0149015Y0074145D01*
X0148890Y0074137D01*
X0148765Y0074133D01*
X0148641Y0074133D01*
X0148516Y0074137D01*
X0148391Y0074145D01*
X0148267Y0074157D01*
X0148143Y0074173D01*
X0148019Y0074193D01*
X0147897Y0074216D01*
X0147775Y0074244D01*
X0147654Y0074275D01*
X0147534Y0074311D01*
X0147415Y0074350D01*
X0147298Y0074392D01*
X0147182Y0074439D01*
X0147068Y0074489D01*
X0146955Y0074542D01*
X0146844Y0074600D01*
X0146734Y0074660D01*
X0146627Y0074725D01*
X0146522Y0074792D01*
X0146419Y0074863D01*
X0146319Y0074937D01*
X0146221Y0075014D01*
X0146125Y0075095D01*
X0146032Y0075178D01*
X0145941Y0075264D01*
X0145854Y0075353D01*
X0145769Y0075445D01*
X0145687Y0075539D01*
X0145608Y0075636D01*
X0145533Y0075736D01*
X0145460Y0075837D01*
X0145391Y0075941D01*
X0145325Y0076048D01*
X0145263Y0076156D01*
X0145204Y0076266D01*
X0145148Y0076378D01*
X0145096Y0076492D01*
X0145048Y0076607D01*
X0145003Y0076723D01*
X0144963Y0076842D01*
X0144925Y0076961D01*
X0144892Y0077081D01*
X0144863Y0077203D01*
X0144837Y0077325D01*
X0144815Y0077448D01*
X0144798Y0077572D01*
X0144784Y0077696D01*
X0144774Y0077820D01*
X0144768Y0077945D01*
X0144766Y0078070D01*
X0152951Y0051000D02*
X0152953Y0051158D01*
X0152959Y0051316D01*
X0152969Y0051474D01*
X0152983Y0051632D01*
X0153001Y0051789D01*
X0153022Y0051946D01*
X0153048Y0052102D01*
X0153078Y0052258D01*
X0153111Y0052413D01*
X0153149Y0052566D01*
X0153190Y0052719D01*
X0153235Y0052871D01*
X0153284Y0053022D01*
X0153337Y0053171D01*
X0153393Y0053319D01*
X0153453Y0053465D01*
X0153517Y0053610D01*
X0153585Y0053753D01*
X0153656Y0053895D01*
X0153730Y0054035D01*
X0153808Y0054172D01*
X0153890Y0054308D01*
X0153974Y0054442D01*
X0154063Y0054573D01*
X0154154Y0054702D01*
X0154249Y0054829D01*
X0154346Y0054954D01*
X0154447Y0055076D01*
X0154551Y0055195D01*
X0154658Y0055312D01*
X0154768Y0055426D01*
X0154881Y0055537D01*
X0154996Y0055646D01*
X0155114Y0055751D01*
X0155235Y0055853D01*
X0155358Y0055953D01*
X0155484Y0056049D01*
X0155612Y0056142D01*
X0155742Y0056232D01*
X0155875Y0056318D01*
X0156010Y0056402D01*
X0156146Y0056481D01*
X0156285Y0056558D01*
X0156426Y0056630D01*
X0156568Y0056700D01*
X0156712Y0056765D01*
X0156858Y0056827D01*
X0157005Y0056885D01*
X0157154Y0056940D01*
X0157304Y0056991D01*
X0157455Y0057038D01*
X0157607Y0057081D01*
X0157760Y0057120D01*
X0157915Y0057156D01*
X0158070Y0057187D01*
X0158226Y0057215D01*
X0158382Y0057239D01*
X0158539Y0057259D01*
X0158697Y0057275D01*
X0158854Y0057287D01*
X0159013Y0057295D01*
X0159171Y0057299D01*
X0159329Y0057299D01*
X0159487Y0057295D01*
X0159646Y0057287D01*
X0159803Y0057275D01*
X0159961Y0057259D01*
X0160118Y0057239D01*
X0160274Y0057215D01*
X0160430Y0057187D01*
X0160585Y0057156D01*
X0160740Y0057120D01*
X0160893Y0057081D01*
X0161045Y0057038D01*
X0161196Y0056991D01*
X0161346Y0056940D01*
X0161495Y0056885D01*
X0161642Y0056827D01*
X0161788Y0056765D01*
X0161932Y0056700D01*
X0162074Y0056630D01*
X0162215Y0056558D01*
X0162354Y0056481D01*
X0162490Y0056402D01*
X0162625Y0056318D01*
X0162758Y0056232D01*
X0162888Y0056142D01*
X0163016Y0056049D01*
X0163142Y0055953D01*
X0163265Y0055853D01*
X0163386Y0055751D01*
X0163504Y0055646D01*
X0163619Y0055537D01*
X0163732Y0055426D01*
X0163842Y0055312D01*
X0163949Y0055195D01*
X0164053Y0055076D01*
X0164154Y0054954D01*
X0164251Y0054829D01*
X0164346Y0054702D01*
X0164437Y0054573D01*
X0164526Y0054442D01*
X0164610Y0054308D01*
X0164692Y0054172D01*
X0164770Y0054035D01*
X0164844Y0053895D01*
X0164915Y0053753D01*
X0164983Y0053610D01*
X0165047Y0053465D01*
X0165107Y0053319D01*
X0165163Y0053171D01*
X0165216Y0053022D01*
X0165265Y0052871D01*
X0165310Y0052719D01*
X0165351Y0052566D01*
X0165389Y0052413D01*
X0165422Y0052258D01*
X0165452Y0052102D01*
X0165478Y0051946D01*
X0165499Y0051789D01*
X0165517Y0051632D01*
X0165531Y0051474D01*
X0165541Y0051316D01*
X0165547Y0051158D01*
X0165549Y0051000D01*
X0165547Y0050842D01*
X0165541Y0050684D01*
X0165531Y0050526D01*
X0165517Y0050368D01*
X0165499Y0050211D01*
X0165478Y0050054D01*
X0165452Y0049898D01*
X0165422Y0049742D01*
X0165389Y0049587D01*
X0165351Y0049434D01*
X0165310Y0049281D01*
X0165265Y0049129D01*
X0165216Y0048978D01*
X0165163Y0048829D01*
X0165107Y0048681D01*
X0165047Y0048535D01*
X0164983Y0048390D01*
X0164915Y0048247D01*
X0164844Y0048105D01*
X0164770Y0047965D01*
X0164692Y0047828D01*
X0164610Y0047692D01*
X0164526Y0047558D01*
X0164437Y0047427D01*
X0164346Y0047298D01*
X0164251Y0047171D01*
X0164154Y0047046D01*
X0164053Y0046924D01*
X0163949Y0046805D01*
X0163842Y0046688D01*
X0163732Y0046574D01*
X0163619Y0046463D01*
X0163504Y0046354D01*
X0163386Y0046249D01*
X0163265Y0046147D01*
X0163142Y0046047D01*
X0163016Y0045951D01*
X0162888Y0045858D01*
X0162758Y0045768D01*
X0162625Y0045682D01*
X0162490Y0045598D01*
X0162354Y0045519D01*
X0162215Y0045442D01*
X0162074Y0045370D01*
X0161932Y0045300D01*
X0161788Y0045235D01*
X0161642Y0045173D01*
X0161495Y0045115D01*
X0161346Y0045060D01*
X0161196Y0045009D01*
X0161045Y0044962D01*
X0160893Y0044919D01*
X0160740Y0044880D01*
X0160585Y0044844D01*
X0160430Y0044813D01*
X0160274Y0044785D01*
X0160118Y0044761D01*
X0159961Y0044741D01*
X0159803Y0044725D01*
X0159646Y0044713D01*
X0159487Y0044705D01*
X0159329Y0044701D01*
X0159171Y0044701D01*
X0159013Y0044705D01*
X0158854Y0044713D01*
X0158697Y0044725D01*
X0158539Y0044741D01*
X0158382Y0044761D01*
X0158226Y0044785D01*
X0158070Y0044813D01*
X0157915Y0044844D01*
X0157760Y0044880D01*
X0157607Y0044919D01*
X0157455Y0044962D01*
X0157304Y0045009D01*
X0157154Y0045060D01*
X0157005Y0045115D01*
X0156858Y0045173D01*
X0156712Y0045235D01*
X0156568Y0045300D01*
X0156426Y0045370D01*
X0156285Y0045442D01*
X0156146Y0045519D01*
X0156010Y0045598D01*
X0155875Y0045682D01*
X0155742Y0045768D01*
X0155612Y0045858D01*
X0155484Y0045951D01*
X0155358Y0046047D01*
X0155235Y0046147D01*
X0155114Y0046249D01*
X0154996Y0046354D01*
X0154881Y0046463D01*
X0154768Y0046574D01*
X0154658Y0046688D01*
X0154551Y0046805D01*
X0154447Y0046924D01*
X0154346Y0047046D01*
X0154249Y0047171D01*
X0154154Y0047298D01*
X0154063Y0047427D01*
X0153974Y0047558D01*
X0153890Y0047692D01*
X0153808Y0047828D01*
X0153730Y0047965D01*
X0153656Y0048105D01*
X0153585Y0048247D01*
X0153517Y0048390D01*
X0153453Y0048535D01*
X0153393Y0048681D01*
X0153337Y0048829D01*
X0153284Y0048978D01*
X0153235Y0049129D01*
X0153190Y0049281D01*
X0153149Y0049434D01*
X0153111Y0049587D01*
X0153078Y0049742D01*
X0153048Y0049898D01*
X0153022Y0050054D01*
X0153001Y0050211D01*
X0152983Y0050368D01*
X0152969Y0050526D01*
X0152959Y0050684D01*
X0152953Y0050842D01*
X0152951Y0051000D01*
X0155141Y0033500D02*
X0155143Y0033562D01*
X0155149Y0033625D01*
X0155159Y0033686D01*
X0155173Y0033747D01*
X0155190Y0033807D01*
X0155211Y0033866D01*
X0155237Y0033923D01*
X0155265Y0033978D01*
X0155297Y0034032D01*
X0155333Y0034083D01*
X0155371Y0034133D01*
X0155413Y0034179D01*
X0155457Y0034223D01*
X0155505Y0034264D01*
X0155554Y0034302D01*
X0155606Y0034336D01*
X0155660Y0034367D01*
X0155716Y0034395D01*
X0155774Y0034419D01*
X0155833Y0034440D01*
X0155893Y0034456D01*
X0155954Y0034469D01*
X0156016Y0034478D01*
X0156078Y0034483D01*
X0156141Y0034484D01*
X0156203Y0034481D01*
X0156265Y0034474D01*
X0156327Y0034463D01*
X0156387Y0034448D01*
X0156447Y0034430D01*
X0156505Y0034408D01*
X0156562Y0034382D01*
X0156617Y0034352D01*
X0156670Y0034319D01*
X0156721Y0034283D01*
X0156769Y0034244D01*
X0156815Y0034201D01*
X0156858Y0034156D01*
X0156898Y0034108D01*
X0156935Y0034058D01*
X0156969Y0034005D01*
X0157000Y0033951D01*
X0157026Y0033895D01*
X0157050Y0033837D01*
X0157069Y0033777D01*
X0157085Y0033717D01*
X0157097Y0033655D01*
X0157105Y0033594D01*
X0157109Y0033531D01*
X0157109Y0033469D01*
X0157105Y0033406D01*
X0157097Y0033345D01*
X0157085Y0033283D01*
X0157069Y0033223D01*
X0157050Y0033163D01*
X0157026Y0033105D01*
X0157000Y0033049D01*
X0156969Y0032995D01*
X0156935Y0032942D01*
X0156898Y0032892D01*
X0156858Y0032844D01*
X0156815Y0032799D01*
X0156769Y0032756D01*
X0156721Y0032717D01*
X0156670Y0032681D01*
X0156617Y0032648D01*
X0156562Y0032618D01*
X0156505Y0032592D01*
X0156447Y0032570D01*
X0156387Y0032552D01*
X0156327Y0032537D01*
X0156265Y0032526D01*
X0156203Y0032519D01*
X0156141Y0032516D01*
X0156078Y0032517D01*
X0156016Y0032522D01*
X0155954Y0032531D01*
X0155893Y0032544D01*
X0155833Y0032560D01*
X0155774Y0032581D01*
X0155716Y0032605D01*
X0155660Y0032633D01*
X0155606Y0032664D01*
X0155554Y0032698D01*
X0155505Y0032736D01*
X0155457Y0032777D01*
X0155413Y0032821D01*
X0155371Y0032867D01*
X0155333Y0032917D01*
X0155297Y0032968D01*
X0155265Y0033022D01*
X0155237Y0033077D01*
X0155211Y0033134D01*
X0155190Y0033193D01*
X0155173Y0033253D01*
X0155159Y0033314D01*
X0155149Y0033375D01*
X0155143Y0033438D01*
X0155141Y0033500D01*
X0155141Y0030375D02*
X0155143Y0030437D01*
X0155149Y0030500D01*
X0155159Y0030561D01*
X0155173Y0030622D01*
X0155190Y0030682D01*
X0155211Y0030741D01*
X0155237Y0030798D01*
X0155265Y0030853D01*
X0155297Y0030907D01*
X0155333Y0030958D01*
X0155371Y0031008D01*
X0155413Y0031054D01*
X0155457Y0031098D01*
X0155505Y0031139D01*
X0155554Y0031177D01*
X0155606Y0031211D01*
X0155660Y0031242D01*
X0155716Y0031270D01*
X0155774Y0031294D01*
X0155833Y0031315D01*
X0155893Y0031331D01*
X0155954Y0031344D01*
X0156016Y0031353D01*
X0156078Y0031358D01*
X0156141Y0031359D01*
X0156203Y0031356D01*
X0156265Y0031349D01*
X0156327Y0031338D01*
X0156387Y0031323D01*
X0156447Y0031305D01*
X0156505Y0031283D01*
X0156562Y0031257D01*
X0156617Y0031227D01*
X0156670Y0031194D01*
X0156721Y0031158D01*
X0156769Y0031119D01*
X0156815Y0031076D01*
X0156858Y0031031D01*
X0156898Y0030983D01*
X0156935Y0030933D01*
X0156969Y0030880D01*
X0157000Y0030826D01*
X0157026Y0030770D01*
X0157050Y0030712D01*
X0157069Y0030652D01*
X0157085Y0030592D01*
X0157097Y0030530D01*
X0157105Y0030469D01*
X0157109Y0030406D01*
X0157109Y0030344D01*
X0157105Y0030281D01*
X0157097Y0030220D01*
X0157085Y0030158D01*
X0157069Y0030098D01*
X0157050Y0030038D01*
X0157026Y0029980D01*
X0157000Y0029924D01*
X0156969Y0029870D01*
X0156935Y0029817D01*
X0156898Y0029767D01*
X0156858Y0029719D01*
X0156815Y0029674D01*
X0156769Y0029631D01*
X0156721Y0029592D01*
X0156670Y0029556D01*
X0156617Y0029523D01*
X0156562Y0029493D01*
X0156505Y0029467D01*
X0156447Y0029445D01*
X0156387Y0029427D01*
X0156327Y0029412D01*
X0156265Y0029401D01*
X0156203Y0029394D01*
X0156141Y0029391D01*
X0156078Y0029392D01*
X0156016Y0029397D01*
X0155954Y0029406D01*
X0155893Y0029419D01*
X0155833Y0029435D01*
X0155774Y0029456D01*
X0155716Y0029480D01*
X0155660Y0029508D01*
X0155606Y0029539D01*
X0155554Y0029573D01*
X0155505Y0029611D01*
X0155457Y0029652D01*
X0155413Y0029696D01*
X0155371Y0029742D01*
X0155333Y0029792D01*
X0155297Y0029843D01*
X0155265Y0029897D01*
X0155237Y0029952D01*
X0155211Y0030009D01*
X0155190Y0030068D01*
X0155173Y0030128D01*
X0155159Y0030189D01*
X0155149Y0030250D01*
X0155143Y0030313D01*
X0155141Y0030375D01*
X0155141Y0027250D02*
X0155143Y0027312D01*
X0155149Y0027375D01*
X0155159Y0027436D01*
X0155173Y0027497D01*
X0155190Y0027557D01*
X0155211Y0027616D01*
X0155237Y0027673D01*
X0155265Y0027728D01*
X0155297Y0027782D01*
X0155333Y0027833D01*
X0155371Y0027883D01*
X0155413Y0027929D01*
X0155457Y0027973D01*
X0155505Y0028014D01*
X0155554Y0028052D01*
X0155606Y0028086D01*
X0155660Y0028117D01*
X0155716Y0028145D01*
X0155774Y0028169D01*
X0155833Y0028190D01*
X0155893Y0028206D01*
X0155954Y0028219D01*
X0156016Y0028228D01*
X0156078Y0028233D01*
X0156141Y0028234D01*
X0156203Y0028231D01*
X0156265Y0028224D01*
X0156327Y0028213D01*
X0156387Y0028198D01*
X0156447Y0028180D01*
X0156505Y0028158D01*
X0156562Y0028132D01*
X0156617Y0028102D01*
X0156670Y0028069D01*
X0156721Y0028033D01*
X0156769Y0027994D01*
X0156815Y0027951D01*
X0156858Y0027906D01*
X0156898Y0027858D01*
X0156935Y0027808D01*
X0156969Y0027755D01*
X0157000Y0027701D01*
X0157026Y0027645D01*
X0157050Y0027587D01*
X0157069Y0027527D01*
X0157085Y0027467D01*
X0157097Y0027405D01*
X0157105Y0027344D01*
X0157109Y0027281D01*
X0157109Y0027219D01*
X0157105Y0027156D01*
X0157097Y0027095D01*
X0157085Y0027033D01*
X0157069Y0026973D01*
X0157050Y0026913D01*
X0157026Y0026855D01*
X0157000Y0026799D01*
X0156969Y0026745D01*
X0156935Y0026692D01*
X0156898Y0026642D01*
X0156858Y0026594D01*
X0156815Y0026549D01*
X0156769Y0026506D01*
X0156721Y0026467D01*
X0156670Y0026431D01*
X0156617Y0026398D01*
X0156562Y0026368D01*
X0156505Y0026342D01*
X0156447Y0026320D01*
X0156387Y0026302D01*
X0156327Y0026287D01*
X0156265Y0026276D01*
X0156203Y0026269D01*
X0156141Y0026266D01*
X0156078Y0026267D01*
X0156016Y0026272D01*
X0155954Y0026281D01*
X0155893Y0026294D01*
X0155833Y0026310D01*
X0155774Y0026331D01*
X0155716Y0026355D01*
X0155660Y0026383D01*
X0155606Y0026414D01*
X0155554Y0026448D01*
X0155505Y0026486D01*
X0155457Y0026527D01*
X0155413Y0026571D01*
X0155371Y0026617D01*
X0155333Y0026667D01*
X0155297Y0026718D01*
X0155265Y0026772D01*
X0155237Y0026827D01*
X0155211Y0026884D01*
X0155190Y0026943D01*
X0155173Y0027003D01*
X0155159Y0027064D01*
X0155149Y0027125D01*
X0155143Y0027188D01*
X0155141Y0027250D01*
X0158266Y0027250D02*
X0158268Y0027312D01*
X0158274Y0027375D01*
X0158284Y0027436D01*
X0158298Y0027497D01*
X0158315Y0027557D01*
X0158336Y0027616D01*
X0158362Y0027673D01*
X0158390Y0027728D01*
X0158422Y0027782D01*
X0158458Y0027833D01*
X0158496Y0027883D01*
X0158538Y0027929D01*
X0158582Y0027973D01*
X0158630Y0028014D01*
X0158679Y0028052D01*
X0158731Y0028086D01*
X0158785Y0028117D01*
X0158841Y0028145D01*
X0158899Y0028169D01*
X0158958Y0028190D01*
X0159018Y0028206D01*
X0159079Y0028219D01*
X0159141Y0028228D01*
X0159203Y0028233D01*
X0159266Y0028234D01*
X0159328Y0028231D01*
X0159390Y0028224D01*
X0159452Y0028213D01*
X0159512Y0028198D01*
X0159572Y0028180D01*
X0159630Y0028158D01*
X0159687Y0028132D01*
X0159742Y0028102D01*
X0159795Y0028069D01*
X0159846Y0028033D01*
X0159894Y0027994D01*
X0159940Y0027951D01*
X0159983Y0027906D01*
X0160023Y0027858D01*
X0160060Y0027808D01*
X0160094Y0027755D01*
X0160125Y0027701D01*
X0160151Y0027645D01*
X0160175Y0027587D01*
X0160194Y0027527D01*
X0160210Y0027467D01*
X0160222Y0027405D01*
X0160230Y0027344D01*
X0160234Y0027281D01*
X0160234Y0027219D01*
X0160230Y0027156D01*
X0160222Y0027095D01*
X0160210Y0027033D01*
X0160194Y0026973D01*
X0160175Y0026913D01*
X0160151Y0026855D01*
X0160125Y0026799D01*
X0160094Y0026745D01*
X0160060Y0026692D01*
X0160023Y0026642D01*
X0159983Y0026594D01*
X0159940Y0026549D01*
X0159894Y0026506D01*
X0159846Y0026467D01*
X0159795Y0026431D01*
X0159742Y0026398D01*
X0159687Y0026368D01*
X0159630Y0026342D01*
X0159572Y0026320D01*
X0159512Y0026302D01*
X0159452Y0026287D01*
X0159390Y0026276D01*
X0159328Y0026269D01*
X0159266Y0026266D01*
X0159203Y0026267D01*
X0159141Y0026272D01*
X0159079Y0026281D01*
X0159018Y0026294D01*
X0158958Y0026310D01*
X0158899Y0026331D01*
X0158841Y0026355D01*
X0158785Y0026383D01*
X0158731Y0026414D01*
X0158679Y0026448D01*
X0158630Y0026486D01*
X0158582Y0026527D01*
X0158538Y0026571D01*
X0158496Y0026617D01*
X0158458Y0026667D01*
X0158422Y0026718D01*
X0158390Y0026772D01*
X0158362Y0026827D01*
X0158336Y0026884D01*
X0158315Y0026943D01*
X0158298Y0027003D01*
X0158284Y0027064D01*
X0158274Y0027125D01*
X0158268Y0027188D01*
X0158266Y0027250D01*
X0158266Y0030375D02*
X0158268Y0030437D01*
X0158274Y0030500D01*
X0158284Y0030561D01*
X0158298Y0030622D01*
X0158315Y0030682D01*
X0158336Y0030741D01*
X0158362Y0030798D01*
X0158390Y0030853D01*
X0158422Y0030907D01*
X0158458Y0030958D01*
X0158496Y0031008D01*
X0158538Y0031054D01*
X0158582Y0031098D01*
X0158630Y0031139D01*
X0158679Y0031177D01*
X0158731Y0031211D01*
X0158785Y0031242D01*
X0158841Y0031270D01*
X0158899Y0031294D01*
X0158958Y0031315D01*
X0159018Y0031331D01*
X0159079Y0031344D01*
X0159141Y0031353D01*
X0159203Y0031358D01*
X0159266Y0031359D01*
X0159328Y0031356D01*
X0159390Y0031349D01*
X0159452Y0031338D01*
X0159512Y0031323D01*
X0159572Y0031305D01*
X0159630Y0031283D01*
X0159687Y0031257D01*
X0159742Y0031227D01*
X0159795Y0031194D01*
X0159846Y0031158D01*
X0159894Y0031119D01*
X0159940Y0031076D01*
X0159983Y0031031D01*
X0160023Y0030983D01*
X0160060Y0030933D01*
X0160094Y0030880D01*
X0160125Y0030826D01*
X0160151Y0030770D01*
X0160175Y0030712D01*
X0160194Y0030652D01*
X0160210Y0030592D01*
X0160222Y0030530D01*
X0160230Y0030469D01*
X0160234Y0030406D01*
X0160234Y0030344D01*
X0160230Y0030281D01*
X0160222Y0030220D01*
X0160210Y0030158D01*
X0160194Y0030098D01*
X0160175Y0030038D01*
X0160151Y0029980D01*
X0160125Y0029924D01*
X0160094Y0029870D01*
X0160060Y0029817D01*
X0160023Y0029767D01*
X0159983Y0029719D01*
X0159940Y0029674D01*
X0159894Y0029631D01*
X0159846Y0029592D01*
X0159795Y0029556D01*
X0159742Y0029523D01*
X0159687Y0029493D01*
X0159630Y0029467D01*
X0159572Y0029445D01*
X0159512Y0029427D01*
X0159452Y0029412D01*
X0159390Y0029401D01*
X0159328Y0029394D01*
X0159266Y0029391D01*
X0159203Y0029392D01*
X0159141Y0029397D01*
X0159079Y0029406D01*
X0159018Y0029419D01*
X0158958Y0029435D01*
X0158899Y0029456D01*
X0158841Y0029480D01*
X0158785Y0029508D01*
X0158731Y0029539D01*
X0158679Y0029573D01*
X0158630Y0029611D01*
X0158582Y0029652D01*
X0158538Y0029696D01*
X0158496Y0029742D01*
X0158458Y0029792D01*
X0158422Y0029843D01*
X0158390Y0029897D01*
X0158362Y0029952D01*
X0158336Y0030009D01*
X0158315Y0030068D01*
X0158298Y0030128D01*
X0158284Y0030189D01*
X0158274Y0030250D01*
X0158268Y0030313D01*
X0158266Y0030375D01*
X0158266Y0033500D02*
X0158268Y0033562D01*
X0158274Y0033625D01*
X0158284Y0033686D01*
X0158298Y0033747D01*
X0158315Y0033807D01*
X0158336Y0033866D01*
X0158362Y0033923D01*
X0158390Y0033978D01*
X0158422Y0034032D01*
X0158458Y0034083D01*
X0158496Y0034133D01*
X0158538Y0034179D01*
X0158582Y0034223D01*
X0158630Y0034264D01*
X0158679Y0034302D01*
X0158731Y0034336D01*
X0158785Y0034367D01*
X0158841Y0034395D01*
X0158899Y0034419D01*
X0158958Y0034440D01*
X0159018Y0034456D01*
X0159079Y0034469D01*
X0159141Y0034478D01*
X0159203Y0034483D01*
X0159266Y0034484D01*
X0159328Y0034481D01*
X0159390Y0034474D01*
X0159452Y0034463D01*
X0159512Y0034448D01*
X0159572Y0034430D01*
X0159630Y0034408D01*
X0159687Y0034382D01*
X0159742Y0034352D01*
X0159795Y0034319D01*
X0159846Y0034283D01*
X0159894Y0034244D01*
X0159940Y0034201D01*
X0159983Y0034156D01*
X0160023Y0034108D01*
X0160060Y0034058D01*
X0160094Y0034005D01*
X0160125Y0033951D01*
X0160151Y0033895D01*
X0160175Y0033837D01*
X0160194Y0033777D01*
X0160210Y0033717D01*
X0160222Y0033655D01*
X0160230Y0033594D01*
X0160234Y0033531D01*
X0160234Y0033469D01*
X0160230Y0033406D01*
X0160222Y0033345D01*
X0160210Y0033283D01*
X0160194Y0033223D01*
X0160175Y0033163D01*
X0160151Y0033105D01*
X0160125Y0033049D01*
X0160094Y0032995D01*
X0160060Y0032942D01*
X0160023Y0032892D01*
X0159983Y0032844D01*
X0159940Y0032799D01*
X0159894Y0032756D01*
X0159846Y0032717D01*
X0159795Y0032681D01*
X0159742Y0032648D01*
X0159687Y0032618D01*
X0159630Y0032592D01*
X0159572Y0032570D01*
X0159512Y0032552D01*
X0159452Y0032537D01*
X0159390Y0032526D01*
X0159328Y0032519D01*
X0159266Y0032516D01*
X0159203Y0032517D01*
X0159141Y0032522D01*
X0159079Y0032531D01*
X0159018Y0032544D01*
X0158958Y0032560D01*
X0158899Y0032581D01*
X0158841Y0032605D01*
X0158785Y0032633D01*
X0158731Y0032664D01*
X0158679Y0032698D01*
X0158630Y0032736D01*
X0158582Y0032777D01*
X0158538Y0032821D01*
X0158496Y0032867D01*
X0158458Y0032917D01*
X0158422Y0032968D01*
X0158390Y0033022D01*
X0158362Y0033077D01*
X0158336Y0033134D01*
X0158315Y0033193D01*
X0158298Y0033253D01*
X0158284Y0033314D01*
X0158274Y0033375D01*
X0158268Y0033438D01*
X0158266Y0033500D01*
X0161391Y0033500D02*
X0161393Y0033562D01*
X0161399Y0033625D01*
X0161409Y0033686D01*
X0161423Y0033747D01*
X0161440Y0033807D01*
X0161461Y0033866D01*
X0161487Y0033923D01*
X0161515Y0033978D01*
X0161547Y0034032D01*
X0161583Y0034083D01*
X0161621Y0034133D01*
X0161663Y0034179D01*
X0161707Y0034223D01*
X0161755Y0034264D01*
X0161804Y0034302D01*
X0161856Y0034336D01*
X0161910Y0034367D01*
X0161966Y0034395D01*
X0162024Y0034419D01*
X0162083Y0034440D01*
X0162143Y0034456D01*
X0162204Y0034469D01*
X0162266Y0034478D01*
X0162328Y0034483D01*
X0162391Y0034484D01*
X0162453Y0034481D01*
X0162515Y0034474D01*
X0162577Y0034463D01*
X0162637Y0034448D01*
X0162697Y0034430D01*
X0162755Y0034408D01*
X0162812Y0034382D01*
X0162867Y0034352D01*
X0162920Y0034319D01*
X0162971Y0034283D01*
X0163019Y0034244D01*
X0163065Y0034201D01*
X0163108Y0034156D01*
X0163148Y0034108D01*
X0163185Y0034058D01*
X0163219Y0034005D01*
X0163250Y0033951D01*
X0163276Y0033895D01*
X0163300Y0033837D01*
X0163319Y0033777D01*
X0163335Y0033717D01*
X0163347Y0033655D01*
X0163355Y0033594D01*
X0163359Y0033531D01*
X0163359Y0033469D01*
X0163355Y0033406D01*
X0163347Y0033345D01*
X0163335Y0033283D01*
X0163319Y0033223D01*
X0163300Y0033163D01*
X0163276Y0033105D01*
X0163250Y0033049D01*
X0163219Y0032995D01*
X0163185Y0032942D01*
X0163148Y0032892D01*
X0163108Y0032844D01*
X0163065Y0032799D01*
X0163019Y0032756D01*
X0162971Y0032717D01*
X0162920Y0032681D01*
X0162867Y0032648D01*
X0162812Y0032618D01*
X0162755Y0032592D01*
X0162697Y0032570D01*
X0162637Y0032552D01*
X0162577Y0032537D01*
X0162515Y0032526D01*
X0162453Y0032519D01*
X0162391Y0032516D01*
X0162328Y0032517D01*
X0162266Y0032522D01*
X0162204Y0032531D01*
X0162143Y0032544D01*
X0162083Y0032560D01*
X0162024Y0032581D01*
X0161966Y0032605D01*
X0161910Y0032633D01*
X0161856Y0032664D01*
X0161804Y0032698D01*
X0161755Y0032736D01*
X0161707Y0032777D01*
X0161663Y0032821D01*
X0161621Y0032867D01*
X0161583Y0032917D01*
X0161547Y0032968D01*
X0161515Y0033022D01*
X0161487Y0033077D01*
X0161461Y0033134D01*
X0161440Y0033193D01*
X0161423Y0033253D01*
X0161409Y0033314D01*
X0161399Y0033375D01*
X0161393Y0033438D01*
X0161391Y0033500D01*
X0161391Y0030375D02*
X0161393Y0030437D01*
X0161399Y0030500D01*
X0161409Y0030561D01*
X0161423Y0030622D01*
X0161440Y0030682D01*
X0161461Y0030741D01*
X0161487Y0030798D01*
X0161515Y0030853D01*
X0161547Y0030907D01*
X0161583Y0030958D01*
X0161621Y0031008D01*
X0161663Y0031054D01*
X0161707Y0031098D01*
X0161755Y0031139D01*
X0161804Y0031177D01*
X0161856Y0031211D01*
X0161910Y0031242D01*
X0161966Y0031270D01*
X0162024Y0031294D01*
X0162083Y0031315D01*
X0162143Y0031331D01*
X0162204Y0031344D01*
X0162266Y0031353D01*
X0162328Y0031358D01*
X0162391Y0031359D01*
X0162453Y0031356D01*
X0162515Y0031349D01*
X0162577Y0031338D01*
X0162637Y0031323D01*
X0162697Y0031305D01*
X0162755Y0031283D01*
X0162812Y0031257D01*
X0162867Y0031227D01*
X0162920Y0031194D01*
X0162971Y0031158D01*
X0163019Y0031119D01*
X0163065Y0031076D01*
X0163108Y0031031D01*
X0163148Y0030983D01*
X0163185Y0030933D01*
X0163219Y0030880D01*
X0163250Y0030826D01*
X0163276Y0030770D01*
X0163300Y0030712D01*
X0163319Y0030652D01*
X0163335Y0030592D01*
X0163347Y0030530D01*
X0163355Y0030469D01*
X0163359Y0030406D01*
X0163359Y0030344D01*
X0163355Y0030281D01*
X0163347Y0030220D01*
X0163335Y0030158D01*
X0163319Y0030098D01*
X0163300Y0030038D01*
X0163276Y0029980D01*
X0163250Y0029924D01*
X0163219Y0029870D01*
X0163185Y0029817D01*
X0163148Y0029767D01*
X0163108Y0029719D01*
X0163065Y0029674D01*
X0163019Y0029631D01*
X0162971Y0029592D01*
X0162920Y0029556D01*
X0162867Y0029523D01*
X0162812Y0029493D01*
X0162755Y0029467D01*
X0162697Y0029445D01*
X0162637Y0029427D01*
X0162577Y0029412D01*
X0162515Y0029401D01*
X0162453Y0029394D01*
X0162391Y0029391D01*
X0162328Y0029392D01*
X0162266Y0029397D01*
X0162204Y0029406D01*
X0162143Y0029419D01*
X0162083Y0029435D01*
X0162024Y0029456D01*
X0161966Y0029480D01*
X0161910Y0029508D01*
X0161856Y0029539D01*
X0161804Y0029573D01*
X0161755Y0029611D01*
X0161707Y0029652D01*
X0161663Y0029696D01*
X0161621Y0029742D01*
X0161583Y0029792D01*
X0161547Y0029843D01*
X0161515Y0029897D01*
X0161487Y0029952D01*
X0161461Y0030009D01*
X0161440Y0030068D01*
X0161423Y0030128D01*
X0161409Y0030189D01*
X0161399Y0030250D01*
X0161393Y0030313D01*
X0161391Y0030375D01*
X0161391Y0027250D02*
X0161393Y0027312D01*
X0161399Y0027375D01*
X0161409Y0027436D01*
X0161423Y0027497D01*
X0161440Y0027557D01*
X0161461Y0027616D01*
X0161487Y0027673D01*
X0161515Y0027728D01*
X0161547Y0027782D01*
X0161583Y0027833D01*
X0161621Y0027883D01*
X0161663Y0027929D01*
X0161707Y0027973D01*
X0161755Y0028014D01*
X0161804Y0028052D01*
X0161856Y0028086D01*
X0161910Y0028117D01*
X0161966Y0028145D01*
X0162024Y0028169D01*
X0162083Y0028190D01*
X0162143Y0028206D01*
X0162204Y0028219D01*
X0162266Y0028228D01*
X0162328Y0028233D01*
X0162391Y0028234D01*
X0162453Y0028231D01*
X0162515Y0028224D01*
X0162577Y0028213D01*
X0162637Y0028198D01*
X0162697Y0028180D01*
X0162755Y0028158D01*
X0162812Y0028132D01*
X0162867Y0028102D01*
X0162920Y0028069D01*
X0162971Y0028033D01*
X0163019Y0027994D01*
X0163065Y0027951D01*
X0163108Y0027906D01*
X0163148Y0027858D01*
X0163185Y0027808D01*
X0163219Y0027755D01*
X0163250Y0027701D01*
X0163276Y0027645D01*
X0163300Y0027587D01*
X0163319Y0027527D01*
X0163335Y0027467D01*
X0163347Y0027405D01*
X0163355Y0027344D01*
X0163359Y0027281D01*
X0163359Y0027219D01*
X0163355Y0027156D01*
X0163347Y0027095D01*
X0163335Y0027033D01*
X0163319Y0026973D01*
X0163300Y0026913D01*
X0163276Y0026855D01*
X0163250Y0026799D01*
X0163219Y0026745D01*
X0163185Y0026692D01*
X0163148Y0026642D01*
X0163108Y0026594D01*
X0163065Y0026549D01*
X0163019Y0026506D01*
X0162971Y0026467D01*
X0162920Y0026431D01*
X0162867Y0026398D01*
X0162812Y0026368D01*
X0162755Y0026342D01*
X0162697Y0026320D01*
X0162637Y0026302D01*
X0162577Y0026287D01*
X0162515Y0026276D01*
X0162453Y0026269D01*
X0162391Y0026266D01*
X0162328Y0026267D01*
X0162266Y0026272D01*
X0162204Y0026281D01*
X0162143Y0026294D01*
X0162083Y0026310D01*
X0162024Y0026331D01*
X0161966Y0026355D01*
X0161910Y0026383D01*
X0161856Y0026414D01*
X0161804Y0026448D01*
X0161755Y0026486D01*
X0161707Y0026527D01*
X0161663Y0026571D01*
X0161621Y0026617D01*
X0161583Y0026667D01*
X0161547Y0026718D01*
X0161515Y0026772D01*
X0161487Y0026827D01*
X0161461Y0026884D01*
X0161440Y0026943D01*
X0161423Y0027003D01*
X0161409Y0027064D01*
X0161399Y0027125D01*
X0161393Y0027188D01*
X0161391Y0027250D01*
X0157951Y0014750D02*
X0157953Y0014908D01*
X0157959Y0015066D01*
X0157969Y0015224D01*
X0157983Y0015382D01*
X0158001Y0015539D01*
X0158022Y0015696D01*
X0158048Y0015852D01*
X0158078Y0016008D01*
X0158111Y0016163D01*
X0158149Y0016316D01*
X0158190Y0016469D01*
X0158235Y0016621D01*
X0158284Y0016772D01*
X0158337Y0016921D01*
X0158393Y0017069D01*
X0158453Y0017215D01*
X0158517Y0017360D01*
X0158585Y0017503D01*
X0158656Y0017645D01*
X0158730Y0017785D01*
X0158808Y0017922D01*
X0158890Y0018058D01*
X0158974Y0018192D01*
X0159063Y0018323D01*
X0159154Y0018452D01*
X0159249Y0018579D01*
X0159346Y0018704D01*
X0159447Y0018826D01*
X0159551Y0018945D01*
X0159658Y0019062D01*
X0159768Y0019176D01*
X0159881Y0019287D01*
X0159996Y0019396D01*
X0160114Y0019501D01*
X0160235Y0019603D01*
X0160358Y0019703D01*
X0160484Y0019799D01*
X0160612Y0019892D01*
X0160742Y0019982D01*
X0160875Y0020068D01*
X0161010Y0020152D01*
X0161146Y0020231D01*
X0161285Y0020308D01*
X0161426Y0020380D01*
X0161568Y0020450D01*
X0161712Y0020515D01*
X0161858Y0020577D01*
X0162005Y0020635D01*
X0162154Y0020690D01*
X0162304Y0020741D01*
X0162455Y0020788D01*
X0162607Y0020831D01*
X0162760Y0020870D01*
X0162915Y0020906D01*
X0163070Y0020937D01*
X0163226Y0020965D01*
X0163382Y0020989D01*
X0163539Y0021009D01*
X0163697Y0021025D01*
X0163854Y0021037D01*
X0164013Y0021045D01*
X0164171Y0021049D01*
X0164329Y0021049D01*
X0164487Y0021045D01*
X0164646Y0021037D01*
X0164803Y0021025D01*
X0164961Y0021009D01*
X0165118Y0020989D01*
X0165274Y0020965D01*
X0165430Y0020937D01*
X0165585Y0020906D01*
X0165740Y0020870D01*
X0165893Y0020831D01*
X0166045Y0020788D01*
X0166196Y0020741D01*
X0166346Y0020690D01*
X0166495Y0020635D01*
X0166642Y0020577D01*
X0166788Y0020515D01*
X0166932Y0020450D01*
X0167074Y0020380D01*
X0167215Y0020308D01*
X0167354Y0020231D01*
X0167490Y0020152D01*
X0167625Y0020068D01*
X0167758Y0019982D01*
X0167888Y0019892D01*
X0168016Y0019799D01*
X0168142Y0019703D01*
X0168265Y0019603D01*
X0168386Y0019501D01*
X0168504Y0019396D01*
X0168619Y0019287D01*
X0168732Y0019176D01*
X0168842Y0019062D01*
X0168949Y0018945D01*
X0169053Y0018826D01*
X0169154Y0018704D01*
X0169251Y0018579D01*
X0169346Y0018452D01*
X0169437Y0018323D01*
X0169526Y0018192D01*
X0169610Y0018058D01*
X0169692Y0017922D01*
X0169770Y0017785D01*
X0169844Y0017645D01*
X0169915Y0017503D01*
X0169983Y0017360D01*
X0170047Y0017215D01*
X0170107Y0017069D01*
X0170163Y0016921D01*
X0170216Y0016772D01*
X0170265Y0016621D01*
X0170310Y0016469D01*
X0170351Y0016316D01*
X0170389Y0016163D01*
X0170422Y0016008D01*
X0170452Y0015852D01*
X0170478Y0015696D01*
X0170499Y0015539D01*
X0170517Y0015382D01*
X0170531Y0015224D01*
X0170541Y0015066D01*
X0170547Y0014908D01*
X0170549Y0014750D01*
X0170547Y0014592D01*
X0170541Y0014434D01*
X0170531Y0014276D01*
X0170517Y0014118D01*
X0170499Y0013961D01*
X0170478Y0013804D01*
X0170452Y0013648D01*
X0170422Y0013492D01*
X0170389Y0013337D01*
X0170351Y0013184D01*
X0170310Y0013031D01*
X0170265Y0012879D01*
X0170216Y0012728D01*
X0170163Y0012579D01*
X0170107Y0012431D01*
X0170047Y0012285D01*
X0169983Y0012140D01*
X0169915Y0011997D01*
X0169844Y0011855D01*
X0169770Y0011715D01*
X0169692Y0011578D01*
X0169610Y0011442D01*
X0169526Y0011308D01*
X0169437Y0011177D01*
X0169346Y0011048D01*
X0169251Y0010921D01*
X0169154Y0010796D01*
X0169053Y0010674D01*
X0168949Y0010555D01*
X0168842Y0010438D01*
X0168732Y0010324D01*
X0168619Y0010213D01*
X0168504Y0010104D01*
X0168386Y0009999D01*
X0168265Y0009897D01*
X0168142Y0009797D01*
X0168016Y0009701D01*
X0167888Y0009608D01*
X0167758Y0009518D01*
X0167625Y0009432D01*
X0167490Y0009348D01*
X0167354Y0009269D01*
X0167215Y0009192D01*
X0167074Y0009120D01*
X0166932Y0009050D01*
X0166788Y0008985D01*
X0166642Y0008923D01*
X0166495Y0008865D01*
X0166346Y0008810D01*
X0166196Y0008759D01*
X0166045Y0008712D01*
X0165893Y0008669D01*
X0165740Y0008630D01*
X0165585Y0008594D01*
X0165430Y0008563D01*
X0165274Y0008535D01*
X0165118Y0008511D01*
X0164961Y0008491D01*
X0164803Y0008475D01*
X0164646Y0008463D01*
X0164487Y0008455D01*
X0164329Y0008451D01*
X0164171Y0008451D01*
X0164013Y0008455D01*
X0163854Y0008463D01*
X0163697Y0008475D01*
X0163539Y0008491D01*
X0163382Y0008511D01*
X0163226Y0008535D01*
X0163070Y0008563D01*
X0162915Y0008594D01*
X0162760Y0008630D01*
X0162607Y0008669D01*
X0162455Y0008712D01*
X0162304Y0008759D01*
X0162154Y0008810D01*
X0162005Y0008865D01*
X0161858Y0008923D01*
X0161712Y0008985D01*
X0161568Y0009050D01*
X0161426Y0009120D01*
X0161285Y0009192D01*
X0161146Y0009269D01*
X0161010Y0009348D01*
X0160875Y0009432D01*
X0160742Y0009518D01*
X0160612Y0009608D01*
X0160484Y0009701D01*
X0160358Y0009797D01*
X0160235Y0009897D01*
X0160114Y0009999D01*
X0159996Y0010104D01*
X0159881Y0010213D01*
X0159768Y0010324D01*
X0159658Y0010438D01*
X0159551Y0010555D01*
X0159447Y0010674D01*
X0159346Y0010796D01*
X0159249Y0010921D01*
X0159154Y0011048D01*
X0159063Y0011177D01*
X0158974Y0011308D01*
X0158890Y0011442D01*
X0158808Y0011578D01*
X0158730Y0011715D01*
X0158656Y0011855D01*
X0158585Y0011997D01*
X0158517Y0012140D01*
X0158453Y0012285D01*
X0158393Y0012431D01*
X0158337Y0012579D01*
X0158284Y0012728D01*
X0158235Y0012879D01*
X0158190Y0013031D01*
X0158149Y0013184D01*
X0158111Y0013337D01*
X0158078Y0013492D01*
X0158048Y0013648D01*
X0158022Y0013804D01*
X0158001Y0013961D01*
X0157983Y0014118D01*
X0157969Y0014276D01*
X0157959Y0014434D01*
X0157953Y0014592D01*
X0157951Y0014750D01*
D11*
X0168000Y0074000D03*
X0168000Y0090500D03*
X0168000Y0140250D03*
X0168000Y0156750D03*
X0146750Y0182750D03*
X0146750Y0199250D03*
X0010500Y0156750D03*
X0010500Y0140250D03*
X0010500Y0090500D03*
X0010500Y0074000D03*
D12*
X0169305Y0048411D02*
X0170445Y0048411D01*
X0170445Y0047271D01*
X0169305Y0047271D01*
X0169305Y0048411D01*
X0169305Y0044729D02*
X0170445Y0044729D01*
X0170445Y0043589D01*
X0169305Y0043589D01*
X0169305Y0044729D01*
D13*
X0169250Y0053625D02*
X0169250Y0054875D01*
X0170500Y0054875D01*
X0170500Y0053625D01*
X0169250Y0053625D01*
X0169250Y0054874D02*
X0170500Y0054874D01*
X0169250Y0057125D02*
X0169250Y0058375D01*
X0170500Y0058375D01*
X0170500Y0057125D01*
X0169250Y0057125D01*
X0169250Y0058374D02*
X0170500Y0058374D01*
X0143625Y0053375D02*
X0143625Y0052125D01*
X0143625Y0053375D02*
X0144875Y0053375D01*
X0144875Y0052125D01*
X0143625Y0052125D01*
X0143625Y0053374D02*
X0144875Y0053374D01*
X0143625Y0049875D02*
X0143625Y0048625D01*
X0143625Y0049875D02*
X0144875Y0049875D01*
X0144875Y0048625D01*
X0143625Y0048625D01*
X0143625Y0049874D02*
X0144875Y0049874D01*
X0166125Y0096125D02*
X0166125Y0097375D01*
X0166125Y0096125D02*
X0164875Y0096125D01*
X0164875Y0097375D01*
X0166125Y0097375D01*
X0166125Y0097374D02*
X0164875Y0097374D01*
X0166125Y0099625D02*
X0166125Y0100875D01*
X0166125Y0099625D02*
X0164875Y0099625D01*
X0164875Y0100875D01*
X0166125Y0100875D01*
X0166125Y0100874D02*
X0164875Y0100874D01*
X0169875Y0100875D02*
X0169875Y0099625D01*
X0169875Y0100875D02*
X0171125Y0100875D01*
X0171125Y0099625D01*
X0169875Y0099625D01*
X0169875Y0100874D02*
X0171125Y0100874D01*
X0169875Y0097375D02*
X0169875Y0096125D01*
X0169875Y0097375D02*
X0171125Y0097375D01*
X0171125Y0096125D01*
X0169875Y0096125D01*
X0169875Y0097374D02*
X0171125Y0097374D01*
X0171125Y0129875D02*
X0171125Y0131125D01*
X0171125Y0129875D02*
X0169875Y0129875D01*
X0169875Y0131125D01*
X0171125Y0131125D01*
X0171125Y0131124D02*
X0169875Y0131124D01*
X0171125Y0133375D02*
X0171125Y0134625D01*
X0171125Y0133375D02*
X0169875Y0133375D01*
X0169875Y0134625D01*
X0171125Y0134625D01*
X0171125Y0134624D02*
X0169875Y0134624D01*
X0164875Y0134625D02*
X0164875Y0133375D01*
X0164875Y0134625D02*
X0166125Y0134625D01*
X0166125Y0133375D01*
X0164875Y0133375D01*
X0164875Y0134624D02*
X0166125Y0134624D01*
X0164875Y0131125D02*
X0164875Y0129875D01*
X0164875Y0131125D02*
X0166125Y0131125D01*
X0166125Y0129875D01*
X0164875Y0129875D01*
X0164875Y0131124D02*
X0166125Y0131124D01*
X0149875Y0164875D02*
X0149875Y0166125D01*
X0151125Y0166125D01*
X0151125Y0164875D01*
X0149875Y0164875D01*
X0149875Y0166124D02*
X0151125Y0166124D01*
X0149875Y0168375D02*
X0149875Y0169625D01*
X0151125Y0169625D01*
X0151125Y0168375D01*
X0149875Y0168375D01*
X0149875Y0169624D02*
X0151125Y0169624D01*
X0150625Y0174125D02*
X0151875Y0174125D01*
X0150625Y0174125D02*
X0150625Y0175375D01*
X0151875Y0175375D01*
X0151875Y0174125D01*
X0151875Y0175374D02*
X0150625Y0175374D01*
X0154125Y0174125D02*
X0155375Y0174125D01*
X0154125Y0174125D02*
X0154125Y0175375D01*
X0155375Y0175375D01*
X0155375Y0174125D01*
X0155375Y0175374D02*
X0154125Y0175374D01*
X0159875Y0176125D02*
X0159875Y0177375D01*
X0161125Y0177375D01*
X0161125Y0176125D01*
X0159875Y0176125D01*
X0159875Y0177374D02*
X0161125Y0177374D01*
X0159875Y0179625D02*
X0159875Y0180875D01*
X0161125Y0180875D01*
X0161125Y0179625D01*
X0159875Y0179625D01*
X0159875Y0180874D02*
X0161125Y0180874D01*
X0144875Y0169625D02*
X0144875Y0168375D01*
X0144875Y0169625D02*
X0146125Y0169625D01*
X0146125Y0168375D01*
X0144875Y0168375D01*
X0144875Y0169624D02*
X0146125Y0169624D01*
X0144875Y0166125D02*
X0144875Y0164875D01*
X0144875Y0166125D02*
X0146125Y0166125D01*
X0146125Y0164875D01*
X0144875Y0164875D01*
X0144875Y0166124D02*
X0146125Y0166124D01*
X0139875Y0166125D02*
X0139875Y0164875D01*
X0139875Y0166125D02*
X0141125Y0166125D01*
X0141125Y0164875D01*
X0139875Y0164875D01*
X0139875Y0166124D02*
X0141125Y0166124D01*
X0139875Y0168375D02*
X0139875Y0169625D01*
X0141125Y0169625D01*
X0141125Y0168375D01*
X0139875Y0168375D01*
X0139875Y0169624D02*
X0141125Y0169624D01*
X0134875Y0169625D02*
X0134875Y0168375D01*
X0134875Y0169625D02*
X0136125Y0169625D01*
X0136125Y0168375D01*
X0134875Y0168375D01*
X0134875Y0169624D02*
X0136125Y0169624D01*
X0134875Y0166125D02*
X0134875Y0164875D01*
X0134875Y0166125D02*
X0136125Y0166125D01*
X0136125Y0164875D01*
X0134875Y0164875D01*
X0134875Y0166124D02*
X0136125Y0166124D01*
X0129875Y0166125D02*
X0129875Y0164875D01*
X0129875Y0166125D02*
X0131125Y0166125D01*
X0131125Y0164875D01*
X0129875Y0164875D01*
X0129875Y0166124D02*
X0131125Y0166124D01*
X0129875Y0168375D02*
X0129875Y0169625D01*
X0131125Y0169625D01*
X0131125Y0168375D01*
X0129875Y0168375D01*
X0129875Y0169624D02*
X0131125Y0169624D01*
X0119875Y0169625D02*
X0119875Y0168375D01*
X0119875Y0169625D02*
X0121125Y0169625D01*
X0121125Y0168375D01*
X0119875Y0168375D01*
X0119875Y0169624D02*
X0121125Y0169624D01*
X0119875Y0166125D02*
X0119875Y0164875D01*
X0119875Y0166125D02*
X0121125Y0166125D01*
X0121125Y0164875D01*
X0119875Y0164875D01*
X0119875Y0166124D02*
X0121125Y0166124D01*
X0114875Y0166125D02*
X0114875Y0164875D01*
X0114875Y0166125D02*
X0116125Y0166125D01*
X0116125Y0164875D01*
X0114875Y0164875D01*
X0114875Y0166124D02*
X0116125Y0166124D01*
X0114875Y0168375D02*
X0114875Y0169625D01*
X0116125Y0169625D01*
X0116125Y0168375D01*
X0114875Y0168375D01*
X0114875Y0169624D02*
X0116125Y0169624D01*
X0091312Y0182875D02*
X0090062Y0182875D01*
X0091312Y0182875D02*
X0091312Y0181625D01*
X0090062Y0181625D01*
X0090062Y0182875D01*
X0090062Y0182874D02*
X0091312Y0182874D01*
X0087812Y0182875D02*
X0086562Y0182875D01*
X0087812Y0182875D02*
X0087812Y0181625D01*
X0086562Y0181625D01*
X0086562Y0182875D01*
X0086562Y0182874D02*
X0087812Y0182874D01*
X0087250Y0167875D02*
X0086000Y0167875D01*
X0087250Y0167875D02*
X0087250Y0166625D01*
X0086000Y0166625D01*
X0086000Y0167875D01*
X0086000Y0167874D02*
X0087250Y0167874D01*
X0083750Y0167875D02*
X0082500Y0167875D01*
X0083750Y0167875D02*
X0083750Y0166625D01*
X0082500Y0166625D01*
X0082500Y0167875D01*
X0082500Y0167874D02*
X0083750Y0167874D01*
X0074250Y0181750D02*
X0074250Y0183000D01*
X0075500Y0183000D01*
X0075500Y0181750D01*
X0074250Y0181750D01*
X0074250Y0182999D02*
X0075500Y0182999D01*
X0074250Y0185250D02*
X0074250Y0186500D01*
X0075500Y0186500D01*
X0075500Y0185250D01*
X0074250Y0185250D01*
X0074250Y0186499D02*
X0075500Y0186499D01*
X0078125Y0202875D02*
X0079375Y0202875D01*
X0078125Y0202875D02*
X0078125Y0204125D01*
X0079375Y0204125D01*
X0079375Y0202875D01*
X0079375Y0204124D02*
X0078125Y0204124D01*
X0081625Y0202875D02*
X0082875Y0202875D01*
X0081625Y0202875D02*
X0081625Y0204125D01*
X0082875Y0204125D01*
X0082875Y0202875D01*
X0082875Y0204124D02*
X0081625Y0204124D01*
X0088125Y0204125D02*
X0089375Y0204125D01*
X0089375Y0202875D01*
X0088125Y0202875D01*
X0088125Y0204125D01*
X0088125Y0204124D02*
X0089375Y0204124D01*
X0091625Y0204125D02*
X0092875Y0204125D01*
X0092875Y0202875D01*
X0091625Y0202875D01*
X0091625Y0204125D01*
X0091625Y0204124D02*
X0092875Y0204124D01*
X0071625Y0204125D02*
X0070375Y0204125D01*
X0071625Y0204125D02*
X0071625Y0202875D01*
X0070375Y0202875D01*
X0070375Y0204125D01*
X0070375Y0204124D02*
X0071625Y0204124D01*
X0068125Y0204125D02*
X0066875Y0204125D01*
X0068125Y0204125D02*
X0068125Y0202875D01*
X0066875Y0202875D01*
X0066875Y0204125D01*
X0066875Y0204124D02*
X0068125Y0204124D01*
X0063500Y0202875D02*
X0062250Y0202875D01*
X0062250Y0204125D01*
X0063500Y0204125D01*
X0063500Y0202875D01*
X0063500Y0204124D02*
X0062250Y0204124D01*
X0060000Y0202875D02*
X0058750Y0202875D01*
X0058750Y0204125D01*
X0060000Y0204125D01*
X0060000Y0202875D01*
X0060000Y0204124D02*
X0058750Y0204124D01*
X0058750Y0197875D02*
X0060000Y0197875D01*
X0058750Y0197875D02*
X0058750Y0199125D01*
X0060000Y0199125D01*
X0060000Y0197875D01*
X0060000Y0199124D02*
X0058750Y0199124D01*
X0062250Y0197875D02*
X0063500Y0197875D01*
X0062250Y0197875D02*
X0062250Y0199125D01*
X0063500Y0199125D01*
X0063500Y0197875D01*
X0063500Y0199124D02*
X0062250Y0199124D01*
X0053000Y0198625D02*
X0053000Y0199875D01*
X0053000Y0198625D02*
X0051750Y0198625D01*
X0051750Y0199875D01*
X0053000Y0199875D01*
X0053000Y0199874D02*
X0051750Y0199874D01*
X0053000Y0202125D02*
X0053000Y0203375D01*
X0053000Y0202125D02*
X0051750Y0202125D01*
X0051750Y0203375D01*
X0053000Y0203375D01*
X0053000Y0203374D02*
X0051750Y0203374D01*
X0045375Y0204125D02*
X0044125Y0204125D01*
X0045375Y0204125D02*
X0045375Y0202875D01*
X0044125Y0202875D01*
X0044125Y0204125D01*
X0044125Y0204124D02*
X0045375Y0204124D01*
X0041875Y0204125D02*
X0040625Y0204125D01*
X0041875Y0204125D02*
X0041875Y0202875D01*
X0040625Y0202875D01*
X0040625Y0204125D01*
X0040625Y0204124D02*
X0041875Y0204124D01*
X0053000Y0194000D02*
X0053000Y0192750D01*
X0051750Y0192750D01*
X0051750Y0194000D01*
X0053000Y0194000D01*
X0053000Y0193999D02*
X0051750Y0193999D01*
X0053000Y0190500D02*
X0053000Y0189250D01*
X0051750Y0189250D01*
X0051750Y0190500D01*
X0053000Y0190500D01*
X0053000Y0190499D02*
X0051750Y0190499D01*
X0012375Y0134625D02*
X0012375Y0133375D01*
X0012375Y0134625D02*
X0013625Y0134625D01*
X0013625Y0133375D01*
X0012375Y0133375D01*
X0012375Y0134624D02*
X0013625Y0134624D01*
X0012375Y0131125D02*
X0012375Y0129875D01*
X0012375Y0131125D02*
X0013625Y0131125D01*
X0013625Y0129875D01*
X0012375Y0129875D01*
X0012375Y0131124D02*
X0013625Y0131124D01*
X0008625Y0131125D02*
X0008625Y0129875D01*
X0007375Y0129875D01*
X0007375Y0131125D01*
X0008625Y0131125D01*
X0008625Y0131124D02*
X0007375Y0131124D01*
X0008625Y0133375D02*
X0008625Y0134625D01*
X0008625Y0133375D02*
X0007375Y0133375D01*
X0007375Y0134625D01*
X0008625Y0134625D01*
X0008625Y0134624D02*
X0007375Y0134624D01*
X0016125Y0125875D02*
X0016125Y0124625D01*
X0014875Y0124625D01*
X0014875Y0125875D01*
X0016125Y0125875D01*
X0016125Y0125874D02*
X0014875Y0125874D01*
X0016125Y0122375D02*
X0016125Y0121125D01*
X0014875Y0121125D01*
X0014875Y0122375D01*
X0016125Y0122375D01*
X0016125Y0122374D02*
X0014875Y0122374D01*
X0014875Y0118375D02*
X0014875Y0117125D01*
X0014875Y0118375D02*
X0016125Y0118375D01*
X0016125Y0117125D01*
X0014875Y0117125D01*
X0014875Y0118374D02*
X0016125Y0118374D01*
X0014875Y0114875D02*
X0014875Y0113625D01*
X0014875Y0114875D02*
X0016125Y0114875D01*
X0016125Y0113625D01*
X0014875Y0113625D01*
X0014875Y0114874D02*
X0016125Y0114874D01*
X0014875Y0109625D02*
X0014875Y0108375D01*
X0014875Y0109625D02*
X0016125Y0109625D01*
X0016125Y0108375D01*
X0014875Y0108375D01*
X0014875Y0109624D02*
X0016125Y0109624D01*
X0014875Y0106125D02*
X0014875Y0104875D01*
X0014875Y0106125D02*
X0016125Y0106125D01*
X0016125Y0104875D01*
X0014875Y0104875D01*
X0014875Y0106124D02*
X0016125Y0106124D01*
X0013625Y0100875D02*
X0013625Y0099625D01*
X0012375Y0099625D01*
X0012375Y0100875D01*
X0013625Y0100875D01*
X0013625Y0100874D02*
X0012375Y0100874D01*
X0013625Y0097375D02*
X0013625Y0096125D01*
X0012375Y0096125D01*
X0012375Y0097375D01*
X0013625Y0097375D01*
X0013625Y0097374D02*
X0012375Y0097374D01*
X0007375Y0097375D02*
X0007375Y0096125D01*
X0007375Y0097375D02*
X0008625Y0097375D01*
X0008625Y0096125D01*
X0007375Y0096125D01*
X0007375Y0097374D02*
X0008625Y0097374D01*
X0007375Y0099625D02*
X0007375Y0100875D01*
X0008625Y0100875D01*
X0008625Y0099625D01*
X0007375Y0099625D01*
X0007375Y0100874D02*
X0008625Y0100874D01*
X0007375Y0062125D02*
X0007375Y0060875D01*
X0007375Y0062125D02*
X0008625Y0062125D01*
X0008625Y0060875D01*
X0007375Y0060875D01*
X0007375Y0062124D02*
X0008625Y0062124D01*
X0007375Y0058625D02*
X0007375Y0057375D01*
X0007375Y0058625D02*
X0008625Y0058625D01*
X0008625Y0057375D01*
X0007375Y0057375D01*
X0007375Y0058624D02*
X0008625Y0058624D01*
X0029875Y0058625D02*
X0029875Y0057375D01*
X0028625Y0057375D01*
X0028625Y0058625D01*
X0029875Y0058625D01*
X0029875Y0058624D02*
X0028625Y0058624D01*
X0029875Y0060875D02*
X0029875Y0062125D01*
X0029875Y0060875D02*
X0028625Y0060875D01*
X0028625Y0062125D01*
X0029875Y0062125D01*
X0029875Y0062124D02*
X0028625Y0062124D01*
X0033625Y0062125D02*
X0033625Y0060875D01*
X0033625Y0062125D02*
X0034875Y0062125D01*
X0034875Y0060875D01*
X0033625Y0060875D01*
X0033625Y0062124D02*
X0034875Y0062124D01*
X0033625Y0058625D02*
X0033625Y0057375D01*
X0033625Y0058625D02*
X0034875Y0058625D01*
X0034875Y0057375D01*
X0033625Y0057375D01*
X0033625Y0058624D02*
X0034875Y0058624D01*
X0115625Y0204125D02*
X0116875Y0204125D01*
X0116875Y0202875D01*
X0115625Y0202875D01*
X0115625Y0204125D01*
X0115625Y0204124D02*
X0116875Y0204124D01*
X0119125Y0204125D02*
X0120375Y0204125D01*
X0120375Y0202875D01*
X0119125Y0202875D01*
X0119125Y0204125D01*
X0119125Y0204124D02*
X0120375Y0204124D01*
D14*
X0105500Y0166875D02*
X0102500Y0166875D01*
X0102500Y0171375D01*
X0105500Y0171375D01*
X0105500Y0166875D01*
X0105500Y0167874D02*
X0102500Y0167874D01*
X0102500Y0168873D02*
X0105500Y0168873D01*
X0105500Y0169872D02*
X0102500Y0169872D01*
X0102500Y0170871D02*
X0105500Y0170871D01*
X0098500Y0166875D02*
X0095500Y0166875D01*
X0095500Y0171375D01*
X0098500Y0171375D01*
X0098500Y0166875D01*
X0098500Y0167874D02*
X0095500Y0167874D01*
X0095500Y0168873D02*
X0098500Y0168873D01*
X0098500Y0169872D02*
X0095500Y0169872D01*
X0095500Y0170871D02*
X0098500Y0170871D01*
X0089875Y0177000D02*
X0086875Y0177000D01*
X0089875Y0177000D02*
X0089875Y0172500D01*
X0086875Y0172500D01*
X0086875Y0177000D01*
X0086875Y0173499D02*
X0089875Y0173499D01*
X0089875Y0174498D02*
X0086875Y0174498D01*
X0086875Y0175497D02*
X0089875Y0175497D01*
X0089875Y0176496D02*
X0086875Y0176496D01*
X0082875Y0177000D02*
X0079875Y0177000D01*
X0082875Y0177000D02*
X0082875Y0172500D01*
X0079875Y0172500D01*
X0079875Y0177000D01*
X0079875Y0173499D02*
X0082875Y0173499D01*
X0082875Y0174498D02*
X0079875Y0174498D01*
X0079875Y0175497D02*
X0082875Y0175497D01*
X0082875Y0176496D02*
X0079875Y0176496D01*
X0048000Y0185000D02*
X0045000Y0185000D01*
X0045000Y0189500D01*
X0048000Y0189500D01*
X0048000Y0185000D01*
X0048000Y0185999D02*
X0045000Y0185999D01*
X0045000Y0186998D02*
X0048000Y0186998D01*
X0048000Y0187997D02*
X0045000Y0187997D01*
X0045000Y0188996D02*
X0048000Y0188996D01*
X0041000Y0185000D02*
X0038000Y0185000D01*
X0038000Y0189500D01*
X0041000Y0189500D01*
X0041000Y0185000D01*
X0041000Y0185999D02*
X0038000Y0185999D01*
X0038000Y0186998D02*
X0041000Y0186998D01*
X0041000Y0187997D02*
X0038000Y0187997D01*
X0038000Y0188996D02*
X0041000Y0188996D01*
X0005750Y0122250D02*
X0005750Y0119250D01*
X0005750Y0122250D02*
X0010250Y0122250D01*
X0010250Y0119250D01*
X0005750Y0119250D01*
X0005750Y0120249D02*
X0010250Y0120249D01*
X0010250Y0121248D02*
X0005750Y0121248D01*
X0005750Y0122247D02*
X0010250Y0122247D01*
X0005750Y0115250D02*
X0005750Y0112250D01*
X0005750Y0115250D02*
X0010250Y0115250D01*
X0010250Y0112250D01*
X0005750Y0112250D01*
X0005750Y0113249D02*
X0010250Y0113249D01*
X0010250Y0114248D02*
X0005750Y0114248D01*
X0005750Y0115247D02*
X0010250Y0115247D01*
X0164500Y0114000D02*
X0164500Y0111000D01*
X0164500Y0114000D02*
X0169000Y0114000D01*
X0169000Y0111000D01*
X0164500Y0111000D01*
X0164500Y0111999D02*
X0169000Y0111999D01*
X0169000Y0112998D02*
X0164500Y0112998D01*
X0164500Y0113997D02*
X0169000Y0113997D01*
X0164500Y0118000D02*
X0164500Y0121000D01*
X0169000Y0121000D01*
X0169000Y0118000D01*
X0164500Y0118000D01*
X0164500Y0118999D02*
X0169000Y0118999D01*
X0169000Y0119998D02*
X0164500Y0119998D01*
X0164500Y0120997D02*
X0169000Y0120997D01*
X0167000Y0174750D02*
X0167000Y0177750D01*
X0171500Y0177750D01*
X0171500Y0174750D01*
X0167000Y0174750D01*
X0167000Y0175749D02*
X0171500Y0175749D01*
X0171500Y0176748D02*
X0167000Y0176748D01*
X0167000Y0177747D02*
X0171500Y0177747D01*
X0167000Y0181750D02*
X0167000Y0184750D01*
X0171500Y0184750D01*
X0171500Y0181750D01*
X0167000Y0181750D01*
X0167000Y0182749D02*
X0171500Y0182749D01*
X0171500Y0183748D02*
X0167000Y0183748D01*
X0167000Y0184747D02*
X0171500Y0184747D01*
D15*
X0153281Y0130883D03*
X0153281Y0120883D03*
X0153281Y0110883D03*
X0153281Y0100883D03*
X0025493Y0101000D03*
X0025493Y0111000D03*
X0025493Y0121000D03*
X0025493Y0131000D03*
D16*
X0115047Y0194656D03*
X0118000Y0193672D03*
X0120953Y0194656D03*
X0120953Y0198594D03*
X0118000Y0199578D03*
X0115047Y0198594D03*
D17*
X0091425Y0195823D03*
X0089732Y0195823D03*
X0088039Y0195823D03*
X0086346Y0195823D03*
X0084654Y0195823D03*
X0082961Y0195823D03*
X0081268Y0195823D03*
X0079575Y0195823D03*
X0079575Y0186177D03*
X0081268Y0186177D03*
X0082961Y0186177D03*
X0084654Y0186177D03*
X0086346Y0186177D03*
X0088039Y0186177D03*
X0089732Y0186177D03*
X0091425Y0186177D03*
D18*
X0091307Y0188461D03*
X0091307Y0190154D03*
X0091307Y0191846D03*
X0091307Y0193539D03*
X0079693Y0193539D03*
X0079693Y0191846D03*
X0079693Y0190154D03*
X0079693Y0188461D03*
D19*
X0068089Y0187850D03*
X0065530Y0187850D03*
X0062970Y0187850D03*
X0060411Y0187850D03*
X0060411Y0194150D03*
X0062970Y0194150D03*
X0065530Y0194150D03*
X0068089Y0194150D03*
D20*
X0023119Y0063490D03*
X0023119Y0059750D03*
X0023119Y0056010D03*
X0012881Y0056010D03*
X0012881Y0063490D03*
D21*
X0037587Y0198067D03*
D22*
X0037587Y0196000D03*
X0037587Y0194031D03*
X0048413Y0194031D03*
X0048413Y0196000D03*
X0048413Y0197969D03*
M02*
