%
M48
M72
T01C0.01969
T02C0.02362
T03C0.02756
T04C0.03150
T05C0.03543
T06C0.04000
T07C0.04331
T08C0.12598
%
T01
X156125Y27250
X156125Y30375
X156125Y33500
X159250Y33500
X159250Y30375
X159250Y27250
X162375Y27250
X162375Y30375
X162375Y33500
X161750Y38500
X158000Y38500
X154250Y38500
X150500Y38500
X146750Y38500
X143000Y38500
X139250Y38500
X135500Y38500
X131750Y38500
X128000Y38500
X124250Y38500
X120500Y38500
X116750Y38500
X113000Y38500
X109250Y38500
X105500Y38500
X101750Y38500
X98000Y38500
X94250Y38500
X90500Y38500
X86750Y38500
X83000Y38500
X79250Y38500
X75500Y38500
X71750Y38500
X68000Y38500
X64250Y38500
X60500Y38500
X56750Y38500
X53000Y38500
X49250Y38500
X45500Y38500
X45500Y42250
X45500Y46000
X45500Y49750
X54875Y63500
X54875Y67250
X54875Y71000
X54875Y74750
X54875Y78500
X54875Y82250
X56750Y86000
X60500Y86000
X64250Y86000
X68000Y86000
X71750Y86000
X73625Y82250
X73625Y78500
X73625Y74750
X73625Y71000
X79250Y58500
X83000Y51000
X84250Y56000
X88000Y67250
X91750Y78500
X93000Y84750
X99250Y78500
X96125Y67250
X96750Y62875
X93000Y54750
X102375Y56000
X108000Y65375
X108000Y69125
X111750Y69125
X111750Y65375
X121750Y58500
X121750Y73500
X132375Y61625
X134250Y67875
X140500Y69125
X133000Y81000
X131750Y96000
X128000Y96000
X124250Y96000
X120500Y96000
X116750Y96000
X113000Y96000
X109250Y96000
X105500Y96000
X101750Y96000
X98000Y96000
X94250Y96000
X90500Y96000
X86750Y96000
X83000Y96000
X79250Y96000
X75500Y96000
X71750Y96000
X68000Y96000
X64250Y96000
X60500Y96000
X56750Y96000
X53000Y96000
X49250Y96000
X45500Y96000
X45500Y92250
X32687Y101937
X32687Y105687
X32687Y109437
X28312Y109437
X28312Y105687
X28312Y101937
X23937Y101937
X23937Y105687
X23937Y109437
X19563Y109437
X19563Y105687
X19563Y101937
X15187Y101937
X15187Y105687
X15187Y109437
X10812Y109437
X10812Y105687
X10812Y101937
X8000Y67250
X8000Y62250
X16125Y33500
X16125Y30375
X16125Y27250
X19250Y27250
X19250Y30375
X19250Y33500
X22375Y33500
X22375Y30375
X22375Y27250
X34250Y88500
X9250Y131000
X43000Y142250
X50500Y156000
X50500Y159750
X50500Y163500
X50500Y167250
X50500Y171000
X54250Y174750
X50500Y178500
X50500Y182250
X54250Y182250
X54250Y186000
X54250Y189750
X54250Y193500
X54250Y197250
X54250Y201000
X54250Y204750
X56750Y208500
X56750Y212250
X56750Y216000
X56750Y219750
X56750Y223500
X56125Y227250
X53000Y229125
X49250Y229750
X46750Y232250
X46750Y236000
X46750Y239750
X50500Y239750
X54250Y239750
X58000Y239750
X61750Y239750
X65500Y239750
X69250Y239750
X73000Y239750
X76750Y239750
X80500Y239750
X84250Y239750
X88000Y239750
X91750Y239750
X95500Y239750
X99250Y239750
X103000Y239750
X106750Y239750
X110500Y239750
X114250Y239750
X118000Y239750
X120500Y237250
X120500Y233500
X123000Y231000
X125500Y228500
X128000Y226000
X130500Y223500
X131750Y219750
X131750Y214750
X131750Y211000
X131750Y207250
X131750Y203500
X131750Y199750
X131750Y196000
X131750Y191000
X131750Y187250
X131750Y183500
X131750Y178500
X131750Y173500
X131750Y169750
X131750Y166000
X131750Y161000
X131750Y157250
X129250Y154750
X125500Y154750
X121750Y154750
X118000Y154750
X114250Y154750
X110500Y154750
X106750Y154750
X103000Y154750
X99250Y154750
X95500Y154750
X91750Y154750
X88000Y154750
X84250Y154750
X80500Y154750
X76750Y154750
X73000Y154750
X69250Y154750
X65500Y154750
X61750Y154750
X59250Y157250
X59250Y161000
X59250Y164750
X59250Y168500
X59250Y172250
X59250Y177250
X58000Y181000
X46750Y214750
X46750Y219750
X34875Y249125
X29875Y247875
X13000Y251000
X16125Y284750
X16125Y287875
X16125Y291000
X19250Y291000
X19250Y287875
X19250Y284750
X22375Y284750
X22375Y287875
X22375Y291000
X35500Y273500
X44250Y252875
X49250Y257250
X111750Y193500
X116750Y193500
X121750Y193500
X126750Y193500
X126750Y163500
X121750Y163500
X116750Y163500
X111750Y163500
X138625Y138500
X144250Y134750
X156125Y110062
X156125Y106937
X156125Y103812
X156125Y100687
X154250Y96000
X150500Y96000
X146750Y96000
X143000Y96000
X139250Y96000
X135500Y96000
X153625Y66938
X154875Y71000
X154875Y62875
X154250Y55375
X165500Y38500
X169250Y38500
X166750Y56000
X166750Y59750
X166750Y63500
X166750Y67250
X166750Y71000
X166750Y74750
X166750Y78500
X165500Y96000
X161750Y96000
X162375Y100687
X162375Y103812
X162375Y106937
X162375Y110062
X159250Y110062
X159250Y106937
X159250Y103812
X159250Y100687
X158000Y96000
X169250Y96000
X108000Y81000
X83625Y83500
X131750Y253500
X136126Y252250
X139875Y252250
X144250Y252250
X156125Y284750
X156125Y287875
X156125Y291000
X159250Y291000
X159250Y287875
X159250Y284750
X162375Y284750
X162375Y287875
X162375Y291000
X161750Y256000
T02
X167124Y50242
X146022Y50242
X146022Y84258
X167124Y84258
X119367Y176547
X65187Y220062
T03
X14250Y122250
X19250Y122250
X24250Y122250
X29250Y122250
X34250Y122250
X34250Y79750
X34250Y74750
X34250Y69750
X34250Y64750
X34250Y59750
X34250Y54750
X9250Y122250
X130500Y232250
T04
X134250Y49125
X118625Y77875
X134250Y88500
X149250Y116000
X93625Y49125
X14250Y64750
X14250Y87250
X19250Y139750
X146750Y267250
X163000Y251000
T05
X159250Y59750
T06
X44250Y122250
X44250Y132250
X54250Y132250
X54250Y122250
X64250Y122250
X64250Y132250
X74250Y132250
X74250Y122250
X84250Y122250
X84250Y132250
X94250Y132250
X94250Y122250
X104250Y122250
X104250Y132250
X114250Y132250
X114250Y122250
X124250Y122250
X124250Y132250
X134250Y132250
X134250Y122250
X154250Y152250
X154250Y162250
X154250Y172250
X154250Y182250
X154250Y192250
X154250Y202250
X154250Y212250
X154250Y222250
X154250Y232250
X154250Y242250
X164250Y242250
X164250Y232250
X164250Y222250
X164250Y212250
X164250Y202250
X164250Y192250
X164250Y182250
X164250Y172250
X164250Y162250
X164250Y152250
X134250Y262250
X134250Y272250
X124250Y272250
X124250Y262250
X114250Y262250
X114250Y272250
X104250Y272250
X104250Y262250
X94250Y262250
X94250Y272250
X84250Y272250
X84250Y262250
X74250Y262250
X74250Y272250
X64250Y272250
X64250Y262250
X54250Y262250
X54250Y272250
X44250Y272250
X44250Y262250
X24250Y242250
X24250Y232250
X24250Y222250
X24250Y212250
X24250Y202250
X24250Y192250
X24250Y182250
X24250Y172250
X24250Y162250
X24250Y152250
X14250Y152250
X14250Y162250
X14250Y172250
X14250Y182250
X14250Y192250
X14250Y202250
X14250Y212250
X14250Y222250
X14250Y232250
X14250Y242250
T07
X138000Y58500
X138000Y76000
T08
X14250Y14750
X14250Y44750
X19250Y267250
X14250Y302250
X164250Y302250
X159250Y267250
X159250Y127250
X164250Y14750
M30
